<svg width="1915" height="500" viewBox="0 0 1915 500" fill="none" xmlns="http://www.w3.org/2000/svg">
<rect y="50" width="400" height="400" rx="50" fill="url(#paint0_linear_2_15)"/>
<g filter="url(#filter0_d_2_15)">
<path d="M337.944 164.502C286.674 87.6992 200.255 138.901 200.255 183.466C200.255 138.901 114.031 89.5954 62.5659 164.502C12.5174 237.347 123.409 321.55 194.333 370.894C197.872 373.357 202.569 373.252 206.021 370.667C271.468 321.662 387.716 239.061 337.944 164.502Z" fill="url(#paint1_linear_2_15)"/>
</g>
<path d="M742.2 108V294.8C742.2 326.533 733.533 350.8 716.2 367.6C699.133 384.4 675.533 392.8 645.4 392.8C613.4 392.8 587.8 383.867 568.6 366C549.667 348.133 540.2 322.4 540.2 288.8H617.8C618.067 310.933 626.2 322 642.2 322C656.6 322 663.8 312.933 663.8 294.8V108H742.2ZM1003.39 275.2C1003.39 281.333 1002.99 287.467 1002.19 293.6H853.794C854.594 305.867 857.927 315.067 863.794 321.2C869.927 327.067 877.66 330 886.994 330C900.06 330 909.394 324.133 914.994 312.4H998.594C995.127 327.867 988.327 341.733 978.194 354C968.327 366 955.794 375.467 940.594 382.4C925.394 389.333 908.594 392.8 890.194 392.8C868.06 392.8 848.327 388.133 830.994 378.8C813.927 369.467 800.46 356.133 790.594 338.8C780.994 321.467 776.194 301.067 776.194 277.6C776.194 254.133 780.994 233.867 790.594 216.8C800.194 199.467 813.527 186.133 830.594 176.8C847.927 167.467 867.794 162.8 890.194 162.8C912.327 162.8 931.927 167.333 948.994 176.4C966.06 185.467 979.394 198.533 988.994 215.6C998.594 232.4 1003.39 252.267 1003.39 275.2ZM923.394 255.6C923.394 246 920.194 238.533 913.794 233.2C907.394 227.6 899.394 224.8 889.794 224.8C880.194 224.8 872.327 227.467 866.194 232.8C860.06 237.867 856.06 245.467 854.194 255.6H923.394ZM1249.88 275.2C1249.88 281.333 1249.48 287.467 1248.68 293.6H1100.28C1101.08 305.867 1104.41 315.067 1110.28 321.2C1116.41 327.067 1124.14 330 1133.48 330C1146.54 330 1155.88 324.133 1161.48 312.4H1245.08C1241.61 327.867 1234.81 341.733 1224.68 354C1214.81 366 1202.28 375.467 1187.08 382.4C1171.88 389.333 1155.08 392.8 1136.68 392.8C1114.54 392.8 1094.81 388.133 1077.48 378.8C1060.41 369.467 1046.94 356.133 1037.08 338.8C1027.48 321.467 1022.68 301.067 1022.68 277.6C1022.68 254.133 1027.48 233.867 1037.08 216.8C1046.68 199.467 1060.01 186.133 1077.08 176.8C1094.41 167.467 1114.28 162.8 1136.68 162.8C1158.81 162.8 1178.41 167.333 1195.48 176.4C1212.54 185.467 1225.88 198.533 1235.48 215.6C1245.08 232.4 1249.88 252.267 1249.88 275.2ZM1169.88 255.6C1169.88 246 1166.68 238.533 1160.28 233.2C1153.88 227.6 1145.88 224.8 1136.28 224.8C1126.68 224.8 1118.81 227.467 1112.68 232.8C1106.54 237.867 1102.54 245.467 1100.68 255.6H1169.88ZM1389.56 316L1431.56 165.6H1515.16L1437.96 390H1340.36L1263.16 165.6H1346.76L1389.56 316ZM1581.33 144.8C1567.46 144.8 1556.26 141.067 1547.73 133.6C1539.46 125.867 1535.33 116.267 1535.33 104.8C1535.33 93.0667 1539.46 83.3333 1547.73 75.6C1556.26 67.8666 1567.46 64 1581.33 64C1594.93 64 1605.86 67.8666 1614.13 75.6C1622.66 83.3333 1626.93 93.0667 1626.93 104.8C1626.93 116.267 1622.66 125.867 1614.13 133.6C1605.86 141.067 1594.93 144.8 1581.33 144.8ZM1620.13 165.6V390H1541.73V165.6H1620.13ZM1651.98 277.6C1651.98 254.4 1656.11 234.133 1664.38 216.8C1672.91 199.467 1684.38 186.133 1698.78 176.8C1713.44 167.467 1729.71 162.8 1747.58 162.8C1763.04 162.8 1776.38 165.867 1787.58 172C1798.78 178.133 1807.44 186.4 1813.58 196.8V165.6H1891.98V390H1813.58V358.8C1807.44 369.2 1798.64 377.467 1787.18 383.6C1775.98 389.733 1762.78 392.8 1747.58 392.8C1729.71 392.8 1713.44 388.133 1698.78 378.8C1684.38 369.467 1672.91 356.133 1664.38 338.8C1656.11 321.2 1651.98 300.8 1651.98 277.6ZM1813.58 277.6C1813.58 263.2 1809.58 251.867 1801.58 243.6C1793.84 235.333 1784.24 231.2 1772.78 231.2C1761.04 231.2 1751.31 235.333 1743.58 243.6C1735.84 251.6 1731.98 262.933 1731.98 277.6C1731.98 292 1735.84 303.467 1743.58 312C1751.31 320.267 1761.04 324.4 1772.78 324.4C1784.24 324.4 1793.84 320.267 1801.58 312C1809.58 303.733 1813.58 292.267 1813.58 277.6Z" fill="#144942"/>
<defs>
<filter id="filter0_d_2_15" x="46" y="125" width="308" height="255.676" filterUnits="userSpaceOnUse" color-interpolation-filters="sRGB">
<feFlood flood-opacity="0" result="BackgroundImageFix"/>
<feColorMatrix in="SourceAlpha" type="matrix" values="0 0 0 0 0 0 0 0 0 0 0 0 0 0 0 0 0 0 127 0" result="hardAlpha"/>
<feOffset dy="4"/>
<feGaussianBlur stdDeviation="2"/>
<feComposite in2="hardAlpha" operator="out"/>
<feColorMatrix type="matrix" values="0 0 0 0 0 0 0 0 0 0 0 0 0 0 0 0 0 0 0.25 0"/>
<feBlend mode="normal" in2="BackgroundImageFix" result="effect1_dropShadow_2_15"/>
<feBlend mode="normal" in="SourceGraphic" in2="effect1_dropShadow_2_15" result="shape"/>
</filter>
<linearGradient id="paint0_linear_2_15" x1="355.2" y1="450" x2="88.2055" y2="50" gradientUnits="userSpaceOnUse">
<stop stop-color="#16685E"/>
<stop offset="1" stop-color="#3FFFE8"/>
</linearGradient>
<linearGradient id="paint1_linear_2_15" x1="200.255" y1="175.881" x2="200.255" y2="465.078" gradientUnits="userSpaceOnUse">
<stop offset="0.000100017" stop-color="white"/>
<stop offset="1" stop-color="#999999"/>
</linearGradient>
</defs>
</svg>
