<svg width="671" height="640" viewBox="0 0 671 640" fill="none" xmlns="http://www.w3.org/2000/svg">
<g clip-path="url(#clip0_33_276)">
<rect width="671" height="640" fill="url(#paint0_linear_33_276)" fill-opacity="0.08"/>
<path d="M177.863 790.499C178.177 779.884 175.828 766.211 171.418 756.694C171.362 756.574 171.305 756.458 171.248 756.344C171.198 756.247 171.147 756.149 171.095 756.054C169.535 753.181 167.306 751.735 161.525 748.12C161.486 748.093 161.447 748.066 161.408 748.039C160.962 747.738 160.488 747.443 159.986 747.16C155.309 744.482 147.893 742.703 136.97 742.74C132.567 742.742 128.225 742.997 123.841 743.275C121.646 743.41 119.46 743.559 117.141 743.627C115.935 743.657 114.791 743.678 113.335 743.588C113.158 743.577 112.981 743.564 112.803 743.548C112.604 743.53 112.393 743.509 112.185 743.484C111.761 743.432 111.373 743.377 110.804 743.258C109.816 742.93 108.4 743.073 105.759 740.546C96.7547 730.654 95.3593 719.307 93.8043 711.663C93.2138 708.344 91.095 704.538 89.3457 700.691C89.1848 699.757 86.3587 698.146 84.5784 697.616C70.6437 693.356 51.695 695.637 27.3786 694.882C25.3692 694.79 23.4012 695.009 21.3913 695.607C19.575 696.145 17.7158 697.003 15.7782 698.172C14.2075 699.119 13.0058 700.262 13.1227 700.495C13.2401 700.737 14.6161 699.985 16.1423 699.057C17.9915 697.93 19.7397 697.11 21.4267 696.585C21.4343 696.582 21.442 696.58 21.4497 696.578C23.4377 695.961 25.3574 695.737 27.3357 695.827C51.7039 696.543 69.9974 694.468 83.5274 698.276C85.4366 698.733 88.6578 700.593 88.484 701.091C90.2801 705.016 92.3431 708.78 92.8739 711.839C94.4419 719.515 95.8439 731.048 105.064 741.188C108.134 744.092 109.612 743.834 110.717 744.206C111.844 744.431 112.684 744.494 113.413 744.541C114.931 744.627 116.152 744.601 117.384 744.566C119.795 744.489 122.05 744.333 124.31 744.194C128.814 743.91 133.297 743.661 137.783 743.693C148.7 743.735 155.916 745.698 160.228 748.414C160.442 748.547 160.65 748.681 160.851 748.817C161.275 749.111 161.679 749.375 162.057 749.618C162.073 749.628 162.089 749.639 162.105 749.649C167.58 752.943 169.137 754.316 170.472 756.917C170.498 756.971 170.524 757.025 170.55 757.08C170.55 757.081 170.55 757.082 170.551 757.082C174.995 766.637 177.237 780.232 176.917 790.55C176.878 792.532 176.965 794.128 177.228 794.129C177.488 794.129 177.826 792.511 177.863 790.499ZM57.3106 390.635C48.3429 391.623 36.9512 394.208 26.618 397.86C23.7345 398.852 21.0252 399.113 18.4033 399.27C13.9635 399.495 9.75516 399.209 5.86808 398.786C1.05537 398.319 -1.98725 394.397 -3.42609 391.835C-5.66573 388.011 -6.91542 384.626 -7.71117 382.286C-9.59256 376.683 -10.7105 370.206 -11.02 362.556C-11.09 360.799 -11.1156 358.981 -11.0948 357.104C-11.0252 350.904 -10.4539 344.037 -9.27736 336.615C-8.15725 329.608 -6.677 323.34 -4.90002 317.641C-4.00645 314.798 -3.05446 312.131 -1.91131 309.54C-1.31466 308.2 -0.713426 306.965 0.0549493 305.684C0.258349 305.348 0.46345 305.028 0.673314 304.722C0.898608 304.394 1.18301 304.011 1.45974 303.682C2.11207 303.033 2.57826 302.035 4.99064 301.313C14.1748 299.335 21.4398 298.509 27.6315 297.822C29.9393 297.579 32.101 297.38 34.1486 297.213C34.2621 297.205 34.3324 297.19 34.3077 297.196C34.3073 297.196 34.3069 297.196 34.3065 297.197C34.2731 297.227 34.0468 297.188 33.4114 297.746C33.0998 298.032 32.7301 298.563 32.5747 299.147C32.4119 299.733 32.4559 300.233 32.5204 300.539C32.6665 301.142 32.7889 301.206 32.7934 301.232C32.805 301.245 32.745 301.169 32.6541 301.083C32.2655 300.704 31.5118 300.217 30.8047 299.89C26.3914 297.828 22.552 296.494 18.8334 295.545C12.0446 293.763 5.86695 293.483 -1.38829 291.773C-4.33519 291.047 -7.25385 290.02 -10.1678 288.729C-16.7107 285.888 -23.4141 281.086 -29.7314 276.99C-37.9767 271.637 -44.433 264.814 -49.1288 259.373C-49.609 258.813 -50.095 258.236 -50.5839 257.649C-52.4796 255.372 -54.4449 252.894 -56.5275 250.133C-61.5561 243.673 -66.4987 234.074 -68.4765 221.557C-68.8988 219.11 -69.2248 216.733 -69.4991 214.399C-70.8593 202.381 -70.4063 191.522 -67.8755 181.716C-67.6628 180.936 -67.4314 180.163 -67.1601 179.375C-66.1924 176.614 -64.9041 174.37 -63.6064 172.302C-59.2766 165.634 -54.7951 160.667 -50.6917 155.9C-48.6605 153.575 -46.7078 151.352 -44.843 149.191C-38.7905 142.357 -40.1674 133.279 -42.4257 126C-44.7362 118.538 -48.0106 112.47 -49.9697 105.966C-51.7219 99.9614 -53.8274 95.1296 -55.7761 91.255C-60.4803 82.0595 -64.4566 78.0157 -67.216 75.7702C-67.4538 75.5802 -67.6832 75.4052 -67.9038 75.2438C-68.7352 74.6134 -69.4716 73.9993 -70.1538 73.3834C-78.6487 65.5924 -82.1966 55.4688 -84.6522 44.5803C-85.1961 42.1355 -85.683 39.6141 -86.1591 37.0156C-86.364 35.8985 -86.5554 34.818 -86.7362 33.7894C-86.8549 33.1321 -87.0898 32.3585 -87.4223 31.1425C-87.5823 30.518 -87.7874 29.7911 -87.9002 28.6341C-88.0009 27.5347 -87.993 25.6009 -86.8842 23.6674C-83.6924 18.7063 -79.6686 18.6158 -77.6528 18.151C-75.4207 17.8261 -73.7735 17.7833 -72.6364 17.642C-72.134 17.5862 -71.7471 17.5114 -71.6374 17.4855C-71.1987 17.3634 -71.0997 17.3011 -70.8981 17.129C-70.8928 17.1243 -70.8875 17.1194 -70.8821 17.1145C-70.8426 17.0764 -70.8008 17.0306 -70.7578 16.9781C-70.7252 16.9383 -70.6904 16.8939 -70.6552 16.8429C-70.6385 16.8246 -70.6243 16.8066 -70.6133 16.7929C-70.6046 16.7822 -70.5978 16.7734 -70.5935 16.7678C-70.5925 16.7668 -70.5915 16.7658 -70.5905 16.7648C-70.5132 16.6654 -70.451 16.55 -70.4383 16.5261C-70.4161 16.4847 -70.3973 16.445 -70.3875 16.4246C-70.3344 16.3142 -70.2751 16.1669 -70.2349 16.0542C-70.1343 15.7624 -69.9488 15.2374 -69.8009 14.1238C-69.6693 13.1653 -69.6019 12.1083 -69.6256 10.7303C-69.6272 10.6425 -69.6294 10.5507 -69.6316 10.4656C-69.6697 9.10746 -69.8027 7.4466 -70.1321 5.30526C-70.4307 3.35517 -71.0335 1.57351 -71.3453 1.36991C-71.6619 1.16526 -71.5527 2.59846 -71.2233 4.53009C-70.8855 6.52836 -70.7199 8.07935 -70.6368 9.43362C-70.6316 9.52065 -70.6268 9.60718 -70.6223 9.69319C-70.5494 11.0912 -70.5634 12.3772 -70.689 13.5633C-70.73 13.9492 -70.7889 14.3469 -70.8512 14.6642C-70.969 15.2498 -71.162 15.8265 -71.3681 16.1776C-71.408 16.2464 -71.4462 16.3051 -71.482 16.3527C-71.5823 16.4848 -71.6402 16.511 -71.6663 16.5123C-71.6974 16.5125 -71.7119 16.5212 -71.916 16.5717C-71.9288 16.5711 -72.0264 16.5931 -72.1748 16.6172C-72.9816 16.7691 -74.7502 16.8309 -77.1326 17.1213C-78.3487 17.2897 -79.7628 17.4913 -81.6145 18.1749C-83.3872 18.8263 -86.078 20.3201 -87.704 23.1968C-88.9596 25.3893 -88.9502 27.5509 -88.84 28.7417C-88.7148 29.9975 -88.4972 30.7568 -88.3341 31.3961C-87.9942 32.6379 -87.7775 33.3621 -87.673 33.9407C-87.4369 35.2911 -87.1862 36.713 -86.9083 38.2062C-86.4438 40.7015 -85.9572 43.1605 -85.4023 45.5836C-82.8715 56.5623 -78.8113 67.8382 -68.9191 75.7093C-68.79 75.8112 -68.6605 75.9119 -68.5304 76.0115C-67.7474 76.5907 -66.9809 77.2391 -66.1834 78.0003C-63.6138 80.5352 -60.4269 84.0964 -56.1974 92.5456C-54.441 96.1348 -52.511 100.635 -50.8814 106.22C-48.9111 112.765 -45.6833 118.746 -43.3811 126.11C-41.1316 133.316 -39.7707 142.047 -45.5604 148.575C-47.3432 150.641 -49.2117 152.77 -51.155 154.993C-55.4661 160.002 -60.257 165.283 -64.6953 172.26C-65.9258 174.262 -67.1329 176.431 -68.0535 179.063C-68.3511 179.927 -68.6028 180.776 -68.8281 181.613C-71.3797 191.637 -71.7948 202.495 -70.4414 214.518C-70.2031 216.553 -69.9233 218.635 -69.5758 220.763C-67.6295 233.947 -62.5013 244.049 -57.2856 250.731C-55.6043 252.962 -53.9953 255.013 -52.421 256.942C-52.2091 257.202 -51.9964 257.462 -51.7819 257.722C-51.5151 258.045 -51.2511 258.362 -50.9858 258.679C-46.0172 264.546 -39.2206 271.937 -30.244 277.784C-23.5108 282.147 -16.1626 287.474 -8.63528 290.433C-6.30753 291.368 -3.983 292.128 -1.64205 292.705C6.09059 294.509 12.3627 294.73 19.5316 296.713C22.8182 297.603 26.1746 298.774 30.4047 300.748C30.9608 301.006 31.5547 301.376 31.8951 301.672C32.0533 301.792 32.1576 301.988 31.9343 301.647C31.8443 301.448 31.5346 301.087 31.5156 299.901C31.4356 298.675 32.5397 297.045 33.1753 296.718C33.7354 296.34 33.9699 296.315 34.0736 296.279C34.1747 296.254 34.1469 296.265 34.0692 296.27C32.1379 296.427 30.0655 296.617 27.8177 296.852C21.5018 297.547 14.1473 298.376 4.78158 300.392C1.87918 301.271 1.42518 302.41 0.708469 303.107C0.0649746 303.887 -0.362958 304.55 -0.791623 305.258C-1.59011 306.596 -2.21749 307.895 -2.8236 309.265C-3.99418 311.934 -4.97291 314.695 -5.87681 317.594C-7.67781 323.417 -9.17551 329.825 -10.2937 336.979C-11.4124 344.215 -11.9644 350.828 -12.0399 357.042C-12.0621 358.973 -12.0357 360.871 -11.9588 362.738C-11.6358 370.494 -10.4486 377.81 -8.00045 384.372C-7.27484 386.3 -6.1357 389.115 -4.26221 392.305C-2.82613 394.853 0.404582 399.196 5.74714 399.732C9.82178 400.172 14.2913 400.48 19.0921 400.179C21.5952 399.997 24.1497 399.713 26.93 398.754C36.9305 395.216 47.5233 392.831 55.4347 391.845C56.4333 391.719 57.448 391.601 58.4541 391.496C67.1232 390.566 76.041 390.636 82.4963 392.289C84.1847 392.761 85.882 393.328 87.5141 394.033C97.4966 398.185 111.005 400.519 115.528 407.917C115.916 408.538 116.253 409.334 116.363 409.838C116.422 410.084 116.418 410.254 116.408 410.179C116.403 410.116 116.394 409.721 116.707 409.111C117.177 408.23 117.788 407.625 118.261 407.261C118.691 406.934 118.954 406.804 119.181 406.694C119.409 406.588 119.516 406.554 119.588 406.529C119.66 406.505 119.694 406.496 119.696 406.494C119.697 406.493 119.354 406.545 118.984 406.569C118.21 406.625 117.18 406.64 116.133 406.637C114.021 406.627 111.723 406.56 109.393 406.526C104.711 406.455 99.8524 406.484 94.8512 406.992C85.4582 407.989 72.0589 410.871 66.6932 423.386C64.2687 429.529 63.6258 434.753 62.8756 439.808C62.3317 443.803 61.6802 447.715 61.0287 451.457C60.9406 451.962 60.8517 452.47 60.7624 452.978C58.5684 472.722 49.3408 489.793 62.3211 509.219C77.4052 522.006 83.0997 530.117 83.6982 535.337C83.7858 535.739 83.8567 536.118 83.9124 536.45C83.9571 536.716 83.9936 536.963 84.0242 537.187C84.0287 537.219 84.0331 537.252 84.0375 537.284C84.603 541.508 84.8175 545.319 84.453 548.66C84.432 548.842 84.4102 549.012 84.3852 549.189C84.259 550.094 84.0651 550.932 83.8512 551.502C83.6585 552.081 83.3694 552.271 83.7358 551.917C83.9069 551.94 81.9189 552.698 79.4247 553.37C79.1129 553.46 78.8062 553.549 78.4893 553.641C65.2239 557.308 53.3369 563.235 44.466 569.076C40.1187 571.782 35.6527 573.999 31.2612 576.088C28.8535 577.232 26.4615 578.338 24.1029 579.453C24.096 579.456 24.0891 579.459 24.0821 579.463C18.8351 581.94 13.7439 584.481 9.00364 587.49C4.90477 590.089 0.838857 592.434 -3.22164 594.784C-11.9414 599.763 -19.4346 604.497 -25.0551 609.469C-28.4071 612.364 -31.8611 614.748 -34.9731 616.978C-37.3081 618.64 -39.5226 620.228 -41.6148 621.843C-46.1181 625.349 -50.1977 628.903 -53.5949 633.946C-55.6248 636.983 -57.2089 640.516 -57.9579 644.206C-59.1675 650.08 -60.2908 655.789 -60.9648 661.782C-61.051 662.562 -61.1292 663.363 -61.1956 664.162C-61.5295 670.925 -62.4551 679.124 -56.1541 687.581C-54.3693 689.797 -52.3649 692.034 -50.2079 694.13C-48.4707 695.824 -46.7927 696.958 -46.5912 696.789C-46.3816 696.622 -47.7079 695.236 -49.4182 693.578C-51.5952 691.474 -53.613 689.227 -55.4198 686.984C-61.1887 679.342 -60.6149 671.534 -60.3053 664.94C-60.246 664.14 -60.1744 663.35 -60.0921 662.552C-59.4494 656.448 -58.2912 650.525 -57.0296 644.393C-56.3344 640.974 -54.8978 637.683 -53.0304 634.81C-49.891 630.027 -46.1346 626.626 -41.76 623.158C-39.6626 621.509 -37.3923 619.865 -34.9241 618.107C-31.6641 615.767 -28.0142 613.273 -24.4305 610.181C-18.8792 605.272 -11.5081 600.609 -2.88564 595.683C1.21337 593.31 5.33474 590.936 9.51219 588.288C14.0665 585.397 18.9858 582.921 24.115 580.494C26.4858 579.37 28.9045 578.253 31.352 577.093C35.8533 574.956 40.4615 572.683 44.9687 569.878C53.8364 564.044 65.5447 558.207 78.753 554.549C79.0293 554.469 79.2993 554.391 79.571 554.313C82.0962 553.619 84.2188 552.886 84.3374 552.649C84.1503 553.009 85.0347 551.526 85.2442 549.842C85.2768 549.65 85.3055 549.463 85.3331 549.263C85.7809 545.91 85.5958 541.843 84.9985 537.331C84.9868 537.244 84.9744 537.152 84.9614 537.058C84.8926 536.558 84.7986 535.974 84.6534 535.285C84.0922 529.831 78.016 521.243 62.98 508.541C50.5776 490.132 59.4266 472.733 61.7152 453.018C61.7395 452.878 61.7638 452.739 61.7881 452.6C62.5846 448.065 63.2893 443.845 63.8312 439.945C64.6607 434.25 65.5033 429.036 67.6378 423.786C71.6724 414.453 80.1111 411.293 85.713 409.773C91.6406 408.26 96.587 408.013 100.976 407.903C105.664 407.819 109.756 407.985 113.3 408.073C115.077 408.117 116.725 408.147 118.12 408.103C118.804 408.082 119.44 408.036 119.836 407.976C120.011 407.952 120.138 407.91 119.99 407.96C119.919 407.988 119.719 408.061 119.414 408.258C119.134 408.433 118.462 408.953 118.011 409.81C117.808 410.221 117.887 410.317 117.873 410.124C117.872 409.845 117.72 409.193 117.465 408.593C117.255 408.088 116.983 407.581 116.701 407.146C115.328 405.052 113.578 403.565 111.513 402.223C104.102 397.699 96.3189 396.338 87.8895 392.929C87.2732 392.671 86.6112 392.42 85.9445 392.19C78.9205 389.711 68.921 389.534 60.3574 390.329C60.3445 390.33 60.3316 390.331 60.3187 390.332C59.2978 390.423 58.2922 390.525 57.3106 390.635ZM-78.0421 -23.8348C-78.7571 -25.7983 -79.5833 -27.2962 -79.8162 -27.1789C-80.0537 -27.067 -79.6138 -25.3933 -78.9052 -23.4431C-78.2687 -21.694 -77.6685 -19.9311 -77.1035 -18.1527C-76.0532 -14.9043 -75.0061 -11.9513 -74.0506 -8.94644C-73.4045 -6.93267 -72.7301 -5.38669 -72.4839 -5.47505C-72.2402 -5.57046 -72.5224 -7.27908 -73.173 -9.3049C-74.1263 -12.2989 -75.1697 -15.2431 -76.2018 -18.4355C-76.7784 -20.2508 -77.3916 -22.0503 -78.0421 -23.8348ZM65.7854 384.996C63.6298 385.088 61.5127 385.482 61.0575 385.79C60.6052 386.1 61.9676 386.183 64.0965 386.054C65.2255 385.989 67.079 385.891 69.58 385.879C74.1801 385.931 81.2116 385.898 89.3124 388.742C98.2018 392.483 112.507 393.245 120.602 404.584C121.95 406.783 123.1 409.811 122.005 411.951C108.3 414.58 83.4501 405.736 71.4604 425.406C70.9224 426.65 70.4903 427.918 70.1146 429.186C68.9318 433.259 68.314 436.979 67.7655 440.509C67.7086 440.883 67.6508 441.256 67.5921 441.629C66.2998 449.783 64.62 457.061 62.8341 466.309C61.8815 475.583 56.3158 486.719 63.0115 503.844C63.5749 504.764 64.2517 505.636 65.0509 506.412C74.941 515.741 86.4793 523.824 87.9604 536.644C88.8163 543.151 89.5355 551.721 86.3767 555.131C85.0633 556.263 82.2454 556.887 79.6599 557.674C68.092 560.934 56.7092 566.122 46.7771 572.764C35.799 579.747 23.0217 584.025 11.4845 591.382C0.584063 598.507 -11.6627 604.061 -21.8701 613.097C-32.2481 622.675 -48.6476 628.712 -52.8388 645.239C-54.6712 657.656 -59.9096 671.409 -51.853 684.081C-44.2997 693.448 -34.068 701.014 -22.3283 704.417C-15.7639 706.095 -8.08608 708.885 -0.885954 704.423C8.33032 697.781 16.6771 689.242 27.5963 690.085C40.9332 690.67 54.1367 689.865 67.2118 690.406C76.9186 691.038 89.4946 691.32 93.7596 698.639C95.7197 702.857 97.8982 706.731 98.6381 710.749C100.281 719.758 102.396 729.808 109.318 737.258C126.818 740.851 139.039 736.112 152.958 740.035C156.533 740.943 160.365 742.355 163.755 744.762C168.389 747.841 172.849 750.344 174.888 755.155C181.128 769.341 183.31 786.711 181.136 800.375C179.178 813.089 177.261 823.396 176.931 828.415C176.739 830.637 176.967 832.472 177.228 832.44C177.488 832.416 177.687 830.598 177.879 828.416C178.205 823.51 180.111 813.233 182.07 800.523C184.27 786.657 182.07 769.147 175.752 754.772C173.596 749.662 168.783 746.976 164.305 743.993C160.876 741.559 157.059 740.129 153.506 739.199C139.482 735.206 126.035 739.577 110.013 736.616C103.31 729.408 101.207 719.585 99.5683 710.573C98.7825 706.343 96.5488 702.407 94.6183 698.239C89.7424 690.163 77.4008 690.226 67.8028 689.482C54.488 688.894 41.0825 689.718 27.6406 689.107C16.2191 688.228 7.5763 697.099 -1.48424 703.562C-7.97437 707.637 -15.5255 705.08 -22.0175 703.355C-33.4993 699.988 -43.5032 692.547 -50.9 683.305C-58.3499 671.716 -53.442 657.828 -51.4839 645.512C-47.6184 630.076 -31.559 623.955 -20.8332 614.278C-10.8338 605.486 1.36724 599.994 12.4178 592.846C23.7222 585.684 36.5242 581.448 47.778 574.361C57.7132 567.778 68.7339 562.804 80.215 559.587C82.7858 558.776 85.5906 558.322 87.654 556.685C92.2235 551.31 90.6735 543.172 89.9956 536.364C88.3698 522.489 76.0793 514.01 66.5089 504.913C65.804 504.229 65.2021 503.441 64.7032 502.6C58.8551 487.476 63.5133 475.891 64.2673 466.927C65.7269 457.834 67.1013 450.623 68.4171 442.48C68.5151 441.87 68.6109 441.258 68.7044 440.644C69.2162 437.335 69.8025 433.845 70.8447 430.078C71.2546 428.621 71.729 427.176 72.3344 425.776C83.7803 406.945 107.34 415.98 122.851 412.405C124.215 409.499 122.809 406.436 121.406 404.056C112.715 392.078 98.2835 391.56 89.6248 387.823C82.261 385.217 75.8906 385.05 71.5526 384.918C68.9447 384.874 66.991 384.945 65.7854 384.996ZM-6.05617 360.532C-6.07944 345.153 -3.54027 321.773 6.17259 306.525C15.5555 304.5 25.2891 303.282 34.5884 302.437C35.3372 302.315 36.1725 302.404 37.2149 301.319C37.6291 300.842 37.7625 300.057 37.6512 299.556C37.5536 299.036 37.3544 298.681 37.1603 298.375C36.7624 297.774 36.3205 297.354 35.8688 296.969C34.9649 296.215 34.0029 295.652 33.0002 295.184C21.6656 289.63 9.74398 288.605 0.861777 286.562C0.600995 286.496 0.342713 286.429 0.0867372 286.36C-12.1064 282.775 -19.2847 276.359 -26.56 272.076C-28.4504 270.909 -30.2329 269.657 -31.962 268.334C-32.0513 268.266 -32.1401 268.198 -32.2291 268.129C-38.9726 262.854 -45.1347 256.718 -52.8047 247.194C-54.5158 245.054 -56.2128 242.667 -57.7673 239.936C-61.7841 233.079 -64.1913 223.905 -65.3463 213.878C-66.5529 203.445 -66.5565 191.73 -63.0562 180.809C-62.556 179.409 -61.8785 178.045 -61.1293 176.736C-61.1201 176.72 -61.1109 176.704 -61.1017 176.687C-55.6085 167.631 -47.8557 160.028 -41.1775 152.34C-31.6511 141.742 -36.1714 127.334 -39.4976 118.619C-41.3652 113.69 -43.5693 109.083 -44.9024 104.556C-49.1002 90.6864 -55.0252 78.4971 -64.16 70.6566C-77.235 59.5054 -78.1713 43.5441 -80.4591 32.7758C-80.7695 30.5632 -82.0998 28.4379 -81.4202 26.8035C-78.5259 23.0214 -73.1973 24.415 -69.9035 23.1733C-68.9537 22.8584 -68.145 22.4052 -67.462 21.8351C-59.3345 9.82062 -68.0606 -5.98487 -71.9354 -19.7736C-75.4393 -31.416 -81.3177 -42.2728 -85.4055 -53.7248L-85.3953 -53.698C-87.7782 -59.3781 -90.5783 -64.8229 -93.8997 -69.7977L-93.8881 -69.7799C-95.2557 -71.7307 -96.7117 -73.6004 -98.1931 -75.4483C-100.405 -77.9744 -97.9672 -74.0006 -94.7237 -69.2238L-94.7484 -69.2619C-94.3396 -68.6168 -93.9185 -67.9524 -93.4914 -67.2815C-93.3603 -67.0726 -93.2301 -66.8631 -93.1007 -66.653C-91.8738 -64.6491 -90.8512 -62.8588 -89.5421 -60.2641C-88.214 -57.5793 -87.2357 -55.3241 -86.3973 -53.2879L-86.4265 -53.3647C-86.1186 -52.4954 -85.8214 -51.6785 -85.5266 -50.8866C-84.538 -47.2433 -77.8269 -34.3824 -72.9233 -19.4637C-67.6648 -4.18011 -60.4447 16.8601 -69.172 21.8219C-69.4783 21.9827 -69.8121 22.1263 -70.1849 22.2503C-71.6698 22.7367 -73.6348 22.8265 -75.7613 23.0972C-77.7916 23.4353 -80.676 23.5842 -82.3607 26.2637C-83.0653 27.6354 -82.6009 28.842 -82.3718 29.8674C-82.0929 30.9131 -81.7916 31.9195 -81.6227 32.9637C-79.4561 43.5317 -79.1549 59.7825 -65.2931 72.0449C-56.8391 79.4094 -50.9404 91.4987 -46.8948 105.111C-45.4671 109.989 -43.2485 114.59 -41.3892 119.528C-38.1425 128.139 -33.6383 141.343 -42.2524 151.416C-48.588 159.084 -55.9978 166.67 -61.6649 175.772C-61.6983 175.828 -61.7329 175.887 -61.7671 175.945C-62.613 177.393 -63.3807 178.9 -63.9515 180.496C-67.5155 191.625 -67.5074 203.394 -66.2863 213.996C-65.1307 224.017 -62.7135 233.353 -58.6018 240.382C-57.0209 243.163 -55.291 245.599 -53.5475 247.781C-45.4525 257.836 -38.906 264.272 -31.8548 269.614C-31.7711 269.677 -31.6881 269.738 -31.6035 269.801C-30.1373 270.887 -28.6397 271.914 -27.0777 272.879C-19.7447 277.182 -12.6972 283.56 -0.161629 287.271C0.0924789 287.34 0.348661 287.407 0.607096 287.472C9.77854 289.569 21.4328 290.571 32.6001 296.042C33.6095 296.512 34.5807 297.091 35.4411 297.851C35.8688 298.239 36.2788 298.659 36.5606 299.237C36.6931 299.521 36.8009 299.884 36.7051 300.272C36.6105 300.666 36.3012 300.95 36.0122 301.106C35.5149 301.372 35.0031 301.446 34.509 301.494C25.1528 302.345 15.4256 303.561 5.9634 305.603C-5.13821 322.01 -6.75816 344.577 -7.00606 360.204C-6.98549 362.36 -6.67198 364.184 -6.40695 364.259C-6.1397 364.338 -6.02781 362.667 -6.05617 360.532ZM-0.174842 359.969C-0.124716 351.052 1.05154 341.948 3.00387 333.088C3.9824 328.678 5.18437 324.238 6.60808 320.09C7.33088 317.989 8.10979 315.965 8.94515 314.164C9.37191 313.244 9.80687 312.412 10.1783 311.818C10.2728 311.667 10.3541 311.546 10.4149 311.462C10.4819 311.367 10.5327 311.308 10.5223 311.323C10.5174 311.328 10.4455 311.432 10.1616 311.673C9.95709 311.827 9.2248 312.505 7.61584 312.889C16.2854 311.093 25.8943 309.913 35.1503 309.112C35.8901 309.043 36.7083 308.955 37.9267 308.572C39.075 308.123 41.1053 307.619 43.1197 304.553C44.0512 303.067 44.4694 301.093 44.3903 299.643C44.3308 298.177 43.9725 297.116 43.649 296.337C42.9619 294.771 42.3134 294.017 41.7423 293.342C39.4876 290.913 37.798 290.061 35.8432 289.09C24.9068 283.536 10.9043 281.915 1.8491 279.892C-6.22546 277.843 -13.8369 272.187 -22.8797 266.374C-31.8449 260.651 -39.9986 251.929 -47.3907 242.921C-48.9413 241.025 -50.3391 239.088 -51.5635 237.077C-55.1707 231.11 -57.4996 222.94 -58.7174 213.044C-59.9634 203.391 -59.867 191.978 -57.0232 182.917C-56.6965 181.963 -56.1615 180.84 -55.5096 179.693C-55.3956 179.491 -55.2835 179.298 -55.1642 179.097C-50.4426 171.438 -43.0859 163.7 -36.7294 156.161C-24.7714 141.939 -31.3439 125.114 -34.5775 116.342C-36.4728 111.409 -38.6299 106.751 -39.6811 103.104C-44.2182 88.3428 -49.8724 75.8675 -60.6599 66.368C-71.234 57.549 -72.669 42.7529 -74.7396 31.8522C-75.0047 30.2854 -75.4214 28.9614 -75.6484 28.1305C-75.7634 27.7298 -75.8129 27.4402 -75.8001 27.5784C-75.8013 27.6655 -75.7114 28.5766 -76.3599 29.708C-76.5417 30.0197 -76.8346 30.2834 -76.9718 30.363C-77.1151 30.4505 -77.0998 30.4085 -76.9485 30.3491C-76.642 30.2179 -75.8898 30.0496 -75.0346 29.935C-73.2466 29.652 -71.2597 29.7067 -68.1843 28.8131C-66.291 28.216 -64.5113 27.1832 -63.1178 25.8653C-57.4074 19.6412 -58.5073 14.4837 -58.3587 11.007C-58.5241 7.39361 -59.0206 4.70482 -59.4687 2.37621C-60.4105 -2.24942 -61.2699 -5.32711 -62.3401 -8.98987C-62.3993 -9.18816 -62.4585 -9.38548 -62.5178 -9.58172C-62.521 -9.59491 -62.5241 -9.60809 -62.5273 -9.62128C-62.5898 -9.87165 -62.6482 -10.0883 -62.6779 -10.1963C-62.739 -10.4185 -62.7914 -10.5972 -62.811 -10.664C-62.8563 -10.8185 -62.8957 -10.9468 -62.9096 -10.9924C-62.9667 -11.1798 -63.0316 -11.3882 -63.0766 -11.5306C-63.4678 -12.8075 -64.819 -16.8205 -65.8701 -19.8384C-66.0765 -20.4385 -66.2735 -21.0171 -66.4336 -21.4991C-67.2214 -23.8866 -67.9124 -25.7676 -68.6681 -27.7154C-68.7641 -27.9623 -68.8602 -28.2074 -68.9564 -28.4507C-69.8152 -30.621 -70.795 -32.974 -72.2547 -36.268C-73.1457 -38.2752 -73.98 -39.5843 -74.1107 -39.2388C-74.242 -38.8899 -73.6194 -37.0136 -72.7383 -35.0058C-71.2171 -31.5386 -70.2026 -29.0347 -69.3651 -26.8613C-69.2722 -26.6202 -69.1789 -26.3757 -69.0867 -26.1325C-68.4678 -24.4944 -67.9282 -22.9866 -67.3412 -21.2144C-67.1311 -20.5838 -66.8729 -19.8333 -66.596 -19.0327C-65.219 -15.014 -64.1916 -11.8885 -63.3443 -9.04387C-62.2389 -5.28459 -61.2979 -1.9697 -60.322 2.95489C-59.8617 5.43309 -59.3505 8.30628 -59.287 12.0987C-59.505 15.5723 -58.7785 21.8586 -65.8473 26.7212C-66.687 27.2188 -67.522 27.5919 -68.4638 27.896C-71.2599 28.7228 -73.2466 28.7012 -75.0907 28.9821C-75.9811 29.1013 -76.799 29.2703 -77.2411 29.4446C-77.4599 29.5267 -77.5631 29.6046 -77.5188 29.5871C-77.4804 29.5764 -77.2931 29.4215 -77.1823 29.236C-76.9399 28.8269 -76.8141 28.3792 -76.7745 28.1031C-76.7326 27.8204 -76.7464 27.6897 -76.7438 27.6664C-76.7462 27.6253 -76.6854 27.9458 -76.5671 28.362C-76.3327 29.219 -75.929 30.5006 -75.6741 32.0031C-73.5881 42.6745 -72.3704 57.7241 -61.2575 67.1002C-50.814 76.2653 -45.0876 88.6735 -40.5913 103.357C-39.5018 107.128 -37.3525 111.751 -35.4679 116.659C-32.2175 125.431 -25.8903 141.845 -37.4461 155.545C-43.8036 163.09 -51.1561 170.8 -55.9821 178.624C-56.1078 178.835 -56.2271 179.04 -56.3474 179.252C-57.0112 180.423 -57.5653 181.582 -57.9163 182.605C-60.8421 191.947 -60.9061 203.402 -59.6554 213.162C-58.4326 223.109 -56.0703 231.442 -52.3897 237.535C-51.17 239.619 -49.7721 241.624 -48.224 243.579C-40.8746 252.8 -32.8165 261.674 -23.7105 267.661C-14.7976 273.515 -7.1154 279.4 1.36979 281.651C10.8841 283.854 24.2697 285.425 35.0082 290.88C36.777 291.754 38.3352 292.572 40.2549 294.646C40.7389 295.217 41.2761 295.851 41.8261 297.106C42.3366 298.202 42.9878 301.001 41.427 303.528C39.8664 305.908 38.2601 306.326 37.3181 306.689C36.3223 307.003 35.6249 307.081 34.9844 307.141C25.6514 307.955 16.0514 309.162 7.20314 311.069C8.36227 310.793 8.85315 310.328 8.96803 310.248C9.13883 310.105 9.13868 310.087 9.10832 310.127C9.07753 310.164 8.99841 310.266 8.90739 310.398C8.82772 310.514 8.73187 310.661 8.62541 310.836C8.20675 311.524 7.76265 312.401 7.33142 313.352C6.48562 315.223 5.71851 317.281 5.01016 319.414C3.62074 323.614 2.47397 328.071 1.55357 332.531C-0.273736 341.454 -1.28709 350.636 -1.12301 359.65C-1.06861 370.318 0.750048 380.074 4.76665 387.235C5.16085 387.943 5.51952 388.478 5.82694 388.843C6.14103 389.218 6.37727 389.4 6.53265 389.492C6.69236 389.583 6.79297 389.623 7.03544 389.659C13.2698 390.476 20.0065 390.643 23.6799 389.444C43.0224 383.153 60.1626 379.806 77.782 381.102C80.3087 381.379 84.7966 381.653 91.0097 383.749C96.6357 385.934 105.204 387.01 115.683 392.518C119.102 394.45 122.794 397.253 125.471 401.386C127.123 404.292 129.015 407.062 128.044 412.657C127.874 413.337 127.612 414.055 127.234 414.755C126.385 416.319 125.15 417.046 124.526 417.375C123.748 417.769 123.267 417.902 122.788 418.036C122.284 418.169 121.921 418.235 121.553 418.296C121.186 418.355 120.805 418.401 120.512 418.43C119.183 418.559 118.117 418.575 117.011 418.585C114.822 418.596 112.743 418.531 110.636 418.486C106.43 418.39 102.185 418.335 97.9052 418.618C89.558 419.143 79.9813 421.237 77.2669 427.866C77.078 428.301 76.8969 428.764 76.7245 429.246C75.433 432.941 74.7365 436.863 74.1397 440.554C74.0949 440.838 74.0511 441.121 74.0079 441.404C72.5276 457.168 64.4866 472.312 68.2051 498.89C68.64 499.959 69.1971 500.844 69.8523 501.475C77.3918 509.197 92.3164 518.012 94.7988 535.703C95.3037 539.353 95.6592 543.098 95.5533 547.069C95.1573 551.005 95.7967 555.424 90.7646 560.47C86.8816 563.359 84.1067 563.425 81.5869 564.314C69.8882 567.638 59.7178 572.473 50.4565 578.636C40.7182 584.719 31.3879 588.449 24.2944 592.134C20.8078 593.907 17.8074 595.6 15.2346 597.266C5.69601 603.343 -0.535189 606.672 -4.93706 609.504C-6.53694 610.512 -7.90906 611.417 -9.14314 612.266C-12.1842 614.37 -14.4562 616.115 -17.1405 618.485C-17.3191 618.643 -17.5007 618.803 -17.6856 618.963C-30.5761 629.711 -43.6507 636.042 -45.8893 646.642C-47.8025 657.316 -51.7623 671.797 -46.5701 679.781C-45.9027 680.614 -45.2094 681.444 -44.4966 682.252C-43.1733 683.758 -41.7887 684.829 -41.501 684.747C-41.2074 684.665 -42.1207 683.485 -43.4311 682.023C-44.2682 681.09 -45.0583 680.15 -45.8343 679.182C-50.5709 672.178 -46.9561 657.487 -44.9612 646.829C-42.9804 636.914 -30.0496 630.471 -16.9096 619.541C-16.7771 619.426 -16.646 619.31 -16.5164 619.195C-13.6774 616.688 -11.2329 614.84 -8.0884 612.692C-6.87499 611.868 -5.55131 611.005 -4.03647 610.057C0.250393 607.317 6.34639 604.052 15.743 598.064C18.3145 596.398 21.3346 594.695 24.8757 592.899C31.8961 589.26 41.1817 585.543 50.9585 579.438C60.2113 573.286 70.1964 568.539 81.8505 565.222C84.3622 564.319 87.1305 564.33 91.365 561.201C96.8734 555.639 96.0583 551.129 96.4985 547.099C96.6064 543.045 96.245 539.26 95.7357 535.574C93.1482 517.342 77.9021 508.42 70.5117 500.797C69.9856 500.291 69.5011 499.548 69.1056 498.593C65.4812 472.849 73.3881 457.516 74.9468 441.539C74.9548 441.486 74.9629 441.434 74.971 441.381C75.5485 437.693 76.2254 433.768 77.4429 430.069C77.6625 429.416 77.8963 428.797 78.1403 428.237C80.5036 422.25 89.6998 420.053 97.9915 419.563C102.222 419.284 106.439 419.338 110.637 419.435C112.741 419.48 114.821 419.545 117.035 419.534C118.153 419.523 119.238 419.507 120.619 419.372C120.924 419.342 121.326 419.293 121.714 419.23C122.104 419.166 122.494 419.095 123.042 418.95C123.563 418.803 124.095 418.658 124.971 418.213C125.671 417.842 127.088 417.012 128.07 415.203C128.242 414.884 128.393 414.562 128.523 414.241C130.578 407.141 128.007 404.153 126.264 400.866C123.642 396.818 120.08 394.003 116.776 392.055C105.339 385.881 96.6775 385.007 91.3156 382.849C85.7279 380.958 81.8649 380.625 79.7667 380.337C61.178 378.516 43.3036 382.098 23.3679 388.55C20.0206 389.661 13.2645 389.533 7.15555 388.72C7.01976 388.696 7.06586 388.704 7.00008 388.668C6.94095 388.631 6.74707 388.489 6.44871 388.107C6.20961 387.802 5.91987 387.36 5.59202 386.772C1.6987 379.836 -0.0900484 370.316 -0.174842 359.969ZM65.9562 683.094C63.7374 683.018 61.8182 683.204 61.6587 683.463C61.5045 683.723 63.1474 683.955 65.3646 684.023C77.0234 684.455 85.7736 685.384 92.8154 689.189C95.6322 690.754 98.1348 693.127 99.4274 696.003C101.53 700.561 103.782 704.522 104.756 709.591C105.087 711.356 105.423 713.135 105.832 715.012C107.332 722.046 109.674 728.442 113.94 732.989C113.553 732.574 113.227 732.432 113.147 732.394C113.033 732.344 113.041 732.355 113.09 732.366C113.208 732.396 113.468 732.44 113.806 732.472C114.421 732.531 115.251 732.55 116.041 732.545C117.67 732.534 119.404 732.45 121.145 732.362C124.593 732.183 128.133 731.984 131.624 731.905C138.63 731.747 145.599 731.994 152.369 733.409C157.688 734.529 162.941 736.426 167.427 739.635C171.576 742.316 178.176 746.462 180.599 752.621C187.914 769.894 188.447 785.055 187.859 794.501C187.711 796.788 187.688 798.645 187.952 798.656C188.212 798.664 188.66 796.798 188.808 794.482C189.386 784.947 188.861 769.717 181.463 752.238C178.95 745.819 171.977 741.449 167.977 738.867C163.454 735.632 158.206 733.709 152.923 732.561C145.998 731.069 138.902 730.805 131.799 730.955C128.255 731.031 124.677 731.231 121.195 731.413C119.441 731.502 117.699 731.587 116.083 731.599C115.306 731.605 114.483 731.586 113.914 731.532C113.601 731.504 113.371 731.462 113.322 731.449C113.304 731.446 113.347 731.449 113.531 731.529C113.668 731.594 114.124 731.798 114.635 732.348C110.561 728.008 108.264 721.85 106.778 714.906C106.36 713.002 106.021 711.207 105.686 709.416C104.691 704.229 102.409 700.2 100.287 695.604C99.0797 692.923 96.8537 690.597 94.3535 689.01C87.0051 684.529 78.0036 683.599 65.9562 683.094Z" fill="#16685E"/>
<path d="M-17.7635 422.542C-10.537 414.759 -3.30197 402.922 -0.354856 392.856C-0.317913 392.729 -0.283927 392.603 -0.252668 392.48C-0.22592 392.374 -0.200164 392.267 -0.176614 392.161C0.541122 388.972 -0.184121 386.415 -2.15488 379.888C-2.16658 379.842 -2.17824 379.797 -2.18984 379.751C-2.32669 379.23 -2.49016 378.696 -2.68062 378.153C-4.43835 373.058 -8.84716 366.835 -17.093 359.671C-20.4081 356.773 -23.8442 354.106 -27.3265 351.428C-29.0678 350.085 -30.8108 348.757 -32.6011 347.282C-33.5289 346.511 -34.403 345.773 -35.4396 344.747C-35.5654 344.622 -35.69 344.495 -35.8135 344.367C-35.9517 344.222 -36.0965 344.067 -36.2364 343.911C-36.5215 343.592 -36.7776 343.296 -37.1276 342.832C-37.6552 341.934 -38.8152 341.11 -39.139 337.469C-39.4017 324.095 -32.9809 314.636 -29.1176 307.859C-27.3765 304.972 -26.4655 300.713 -25.2488 296.666C-24.7551 295.857 -25.8211 292.783 -26.8123 291.213C-34.4945 278.831 -50.2582 268.071 -68.0616 251.491C-69.5134 250.099 -71.139 248.968 -73.045 248.094C-74.7663 247.303 -76.731 246.725 -78.9591 246.329C-80.7643 246.007 -82.4217 246.077 -82.4871 246.329C-82.558 246.588 -81.0274 246.929 -79.2672 247.235C-77.1339 247.605 -75.2777 248.138 -73.6625 248.854C-73.6551 248.857 -73.6478 248.86 -73.6404 248.864C-71.7381 249.708 -70.1459 250.804 -68.7162 252.174C-50.848 268.759 -35.7136 279.242 -28.0374 291.017C-26.9015 292.618 -25.7018 296.139 -26.1611 296.4C-27.3937 300.536 -28.3189 304.727 -29.9337 307.379C-33.8081 314.189 -40.3468 323.792 -40.084 337.494C-39.6856 341.701 -38.403 342.48 -37.8171 343.488C-37.1168 344.4 -36.526 345 -36.0082 345.515C-34.9222 346.579 -33.9862 347.364 -33.0365 348.149C-31.1704 349.678 -29.3711 351.046 -27.5786 352.43C-24.0019 355.181 -20.4639 357.946 -17.1085 360.924C-8.9204 368.144 -4.78125 374.373 -3.32483 379.255C-3.25112 379.497 -3.18332 379.735 -3.12118 379.969C-2.99507 380.47 -2.86579 380.935 -2.74108 381.366C-2.73566 381.384 -2.73025 381.403 -2.72483 381.421C-0.773327 387.505 -0.505626 389.563 -1.21359 392.401C-1.22926 392.458 -1.24553 392.516 -1.26243 392.574C-1.26269 392.575 -1.26295 392.576 -1.26321 392.577C-4.21023 402.694 -11.4734 414.402 -18.5089 421.957C-19.8431 423.424 -20.8282 424.681 -20.631 424.856C-20.4352 425.027 -19.116 424.031 -17.7635 422.542ZM154.798 42.217C147.398 37.0559 137.123 31.5002 126.941 27.4455C124.117 26.2934 121.907 24.7054 119.83 23.0976C116.34 20.3432 113.361 17.3574 110.714 14.4793C107.399 10.9592 107.692 6.00348 108.296 3.1281C109.128 -1.22453 110.417 -4.59548 111.359 -6.88024C113.632 -12.3359 117.055 -17.9469 121.86 -23.9084C122.964 -25.2769 124.142 -26.6619 125.393 -28.0611C129.528 -32.6813 134.479 -37.4733 140.252 -42.2846C145.709 -46.8203 150.95 -50.5633 156.04 -53.6829C158.584 -55.2337 161.057 -56.614 163.624 -57.8118C164.955 -58.427 166.221 -58.9611 167.642 -59.4188C168.017 -59.5382 168.382 -59.644 168.741 -59.7356C169.127 -59.8345 169.593 -59.9355 170.018 -60.0008C170.936 -60.0594 171.944 -60.5036 174.235 -59.4585C182.45 -54.9003 188.461 -50.7382 193.574 -47.1782C195.471 -45.8419 197.229 -44.568 198.88 -43.3452C198.97 -43.2766 199.033 -43.2416 199.011 -43.2532C199.01 -43.2534 199.01 -43.2536 199.009 -43.2538C198.964 -43.2531 198.82 -43.4315 197.974 -43.4298C197.551 -43.4199 196.923 -43.2637 196.421 -42.9258C195.913 -42.5922 195.617 -42.1873 195.464 -41.9145C195.177 -41.3643 195.227 -41.2358 195.213 -41.2128C195.214 -41.1956 195.219 -41.2923 195.207 -41.417C195.164 -41.9581 194.917 -42.8209 194.6 -43.5321C192.637 -47.9905 190.625 -51.5223 188.451 -54.685C184.516 -60.4967 180.051 -64.7752 175.716 -70.8389C173.976 -73.3261 172.456 -76.0207 171.112 -78.9108C168.059 -85.357 166.176 -93.3855 164.118 -100.628C161.437 -110.086 161.07 -119.472 161.119 -126.659C161.127 -127.397 161.141 -128.151 161.159 -128.915C161.232 -131.876 161.384 -135.036 161.635 -138.485C162.104 -146.658 164.704 -157.137 171.457 -167.859C172.751 -169.979 174.071 -171.983 175.401 -173.92C182.291 -183.861 189.782 -191.735 198.143 -197.449C198.817 -197.896 199.5 -198.325 200.223 -198.74C202.769 -200.18 205.217 -201.021 207.555 -201.724C215.204 -203.891 221.848 -204.678 228.075 -205.564C231.134 -205.976 234.068 -206.364 236.894 -206.762C245.95 -207.921 250.891 -215.66 253.984 -222.625C257.158 -229.762 258.69 -236.485 261.498 -242.67C264.133 -248.343 265.729 -253.366 266.814 -257.565C269.328 -267.583 268.998 -273.245 268.4 -276.752C268.346 -277.052 268.289 -277.334 268.229 -277.601C268.018 -278.623 267.869 -279.57 267.761 -280.483C266.497 -291.94 270.493 -301.895 275.814 -311.707C277.015 -313.905 278.308 -316.124 279.661 -318.393C280.242 -319.368 280.81 -320.308 281.351 -321.201C281.695 -321.774 282.027 -322.511 282.578 -323.645C282.868 -324.22 283.193 -324.902 283.87 -325.847C284.518 -326.741 285.797 -328.191 287.905 -328.916C293.573 -330.548 296.661 -327.967 298.485 -326.99C300.379 -325.764 301.646 -324.712 302.595 -324.07C303.01 -323.781 303.351 -323.582 303.45 -323.53C303.861 -323.333 303.976 -323.314 304.241 -323.311C304.248 -323.311 304.256 -323.311 304.263 -323.312C304.318 -323.314 304.379 -323.321 304.446 -323.332C304.497 -323.341 304.552 -323.351 304.612 -323.366C304.637 -323.369 304.66 -323.374 304.677 -323.377C304.691 -323.379 304.701 -323.381 304.708 -323.382C304.71 -323.383 304.711 -323.383 304.713 -323.383C304.836 -323.407 304.959 -323.452 304.984 -323.462C305.028 -323.479 305.069 -323.496 305.089 -323.505C305.202 -323.553 305.344 -323.625 305.448 -323.683C305.716 -323.837 306.201 -324.11 307.046 -324.85C307.776 -325.485 308.523 -326.236 309.412 -327.289C309.469 -327.356 309.528 -327.427 309.582 -327.492C310.448 -328.539 311.441 -329.877 312.603 -331.706C313.663 -333.37 314.382 -335.108 314.281 -335.466C314.178 -335.829 313.316 -334.678 312.292 -333.007C311.231 -331.281 310.334 -330.005 309.505 -328.931C309.452 -328.862 309.398 -328.794 309.345 -328.726C308.479 -327.626 307.622 -326.667 306.746 -325.857C306.462 -325.594 306.155 -325.333 305.9 -325.135C305.425 -324.772 304.9 -324.465 304.514 -324.337C304.439 -324.311 304.371 -324.292 304.313 -324.28C304.151 -324.246 304.09 -324.265 304.069 -324.281C304.046 -324.301 304.029 -324.304 303.842 -324.401C303.833 -324.41 303.745 -324.457 303.617 -324.537C302.91 -324.954 301.538 -326.072 299.554 -327.422C298.528 -328.096 297.331 -328.875 295.487 -329.58C293.724 -330.257 290.715 -330.905 287.597 -329.81C285.209 -328.987 283.793 -327.354 283.091 -326.385C282.359 -325.357 282.023 -324.643 281.724 -324.054C281.163 -322.896 280.849 -322.208 280.546 -321.704C279.835 -320.532 279.087 -319.297 278.313 -317.99C277.02 -315.806 275.767 -313.635 274.589 -311.446C269.265 -301.517 264.896 -290.357 267.158 -277.919C267.188 -277.758 267.22 -277.596 267.252 -277.436C267.46 -276.484 267.61 -275.492 267.709 -274.394C267.974 -270.794 268.027 -266.015 265.647 -256.871C264.606 -253.013 263.095 -248.356 260.644 -243.08C257.817 -236.856 256.308 -230.229 253.192 -223.171C250.141 -216.267 245.416 -208.799 236.76 -207.698C234.058 -207.317 231.25 -206.946 228.324 -206.552C221.781 -205.621 214.698 -204.8 206.764 -202.472C204.519 -201.775 202.182 -200.938 199.757 -199.563C198.964 -199.109 198.215 -198.636 197.494 -198.154C188.973 -192.29 181.512 -184.391 174.614 -174.451C173.453 -172.763 172.293 -171.012 171.153 -169.181C163.937 -157.977 161.145 -146.997 160.671 -138.534C160.467 -135.748 160.327 -133.144 160.242 -130.656C160.23 -130.321 160.219 -129.986 160.21 -129.648C160.198 -129.23 160.187 -128.817 160.179 -128.404C160.055 -120.717 160.303 -110.679 163.209 -100.367C165.404 -92.6505 167.427 -83.8026 171.144 -76.6191C172.28 -74.3829 173.529 -72.2803 174.912 -70.3051C179.543 -63.8553 184.118 -59.5593 188.208 -53.3462C190.095 -50.5122 191.85 -47.4207 193.734 -43.1501C193.983 -42.5899 194.187 -41.9206 194.248 -41.4732C194.288 -41.2788 194.237 -41.0624 194.294 -41.4661C194.357 -41.6754 194.361 -42.1508 195.128 -43.0564C195.876 -44.0318 197.779 -44.5309 198.473 -44.3591C199.144 -44.2746 199.336 -44.1387 199.438 -44.098C199.531 -44.0502 199.503 -44.0601 199.441 -44.1076C197.884 -45.2607 196.199 -46.4824 194.353 -47.7857C189.142 -51.4214 183.06 -55.6399 174.684 -60.2899C171.921 -61.5389 170.829 -60.9806 169.831 -60.9284C168.833 -60.765 168.075 -60.5479 167.286 -60.2974C165.803 -59.8156 164.476 -59.251 163.118 -58.6194C160.48 -57.3816 157.925 -55.9476 155.335 -54.3607C150.146 -51.1643 144.799 -47.3275 139.247 -42.6799C133.641 -37.9704 128.871 -33.3569 124.722 -28.7295C123.434 -27.2908 122.204 -25.8451 121.033 -24.3896C116.169 -18.3395 112.246 -12.0515 109.767 -5.50052C109.044 -3.57214 108.048 -0.703608 107.358 2.93087C106.76 5.79453 106.333 11.1901 110 15.1114C112.777 18.1254 115.938 21.3004 119.75 24.2351C121.753 25.7461 123.863 27.2149 126.587 28.3234C136.443 32.2452 145.986 37.4251 152.59 41.8924C153.424 42.4552 154.265 43.0346 155.091 43.6182C162.228 48.6265 168.894 54.5508 172.664 60.0458C173.624 61.5127 174.529 63.0566 175.292 64.6622C180.071 74.3602 188.702 85.0118 187.235 93.5569C187.117 94.2805 186.847 95.1011 186.598 95.5531C186.48 95.7773 186.366 95.902 186.407 95.8387C186.445 95.7885 186.698 95.4852 187.336 95.2325C188.27 94.879 189.128 94.8259 189.723 94.8635C190.262 94.9004 190.546 94.9756 190.789 95.0419C191.03 95.1122 191.133 95.1574 191.204 95.1858C191.274 95.2153 191.305 95.2308 191.308 95.2309C191.31 95.2308 191.018 95.0436 190.723 94.8184C190.103 94.3511 189.318 93.6839 188.533 92.9923C186.949 91.5945 185.264 90.031 183.533 88.4707C180.056 85.3343 176.38 82.1571 172.281 79.2467C164.556 73.812 152.574 67.158 140.294 73.0443C134.425 76.071 130.502 79.5793 126.608 82.8899C123.569 85.5383 120.502 88.0536 117.548 90.4411C117.149 90.7637 116.748 91.0868 116.346 91.4103C101.694 104.826 83.5091 111.598 80.4874 134.765C83.4199 154.321 82.3652 164.175 79.3786 168.498C79.1794 168.859 78.9834 169.19 78.8069 169.477C78.6655 169.706 78.5304 169.916 78.406 170.105C78.3877 170.132 78.3697 170.16 78.352 170.187C75.9962 173.738 73.6483 176.747 71.1738 179.022C71.0381 179.146 70.9098 179.259 70.7745 179.376C70.084 179.973 69.3864 180.476 68.8501 180.765C68.3232 181.074 67.981 181.026 68.4895 181.001C68.6036 181.131 66.608 180.393 64.2881 179.256C63.9942 179.119 63.7051 178.983 63.406 178.844C51.0073 172.87 38.1584 169.503 27.6362 168.058C22.5825 167.232 17.7614 165.96 13.0807 164.641C10.5154 163.916 7.98671 163.174 5.47758 162.46C5.4702 162.458 5.46281 162.456 5.45542 162.454C-0.125001 160.863 -5.62999 159.424 -11.1784 158.566C-15.9746 157.824 -20.5789 156.911 -25.1825 156.007C-35.0237 154.013 -43.7799 152.641 -51.2844 152.683C-55.7128 152.654 -59.8828 152.175 -63.6927 151.803C-66.5445 151.517 -69.257 151.254 -71.8951 151.092C-77.5927 150.765 -83.0035 150.754 -88.8808 152.312C-92.4085 153.262 -95.9268 154.878 -98.9199 157.161C-103.698 160.786 -108.303 164.343 -112.756 168.41C-113.334 168.94 -113.921 169.491 -114.497 170.049C-119.202 174.919 -125.297 180.48 -126.123 190.994C-126.239 193.837 -126.203 196.841 -125.96 199.838C-125.768 202.257 -125.252 204.216 -124.989 204.221C-124.721 204.233 -124.807 202.317 -125.002 199.943C-125.255 196.926 -125.294 193.906 -125.177 191.028C-124.487 181.479 -118.914 175.98 -114.339 171.221C-113.768 170.658 -113.194 170.11 -112.606 169.564C-108.104 165.393 -103.332 161.698 -98.3446 157.913C-95.57 155.798 -92.3218 154.267 -89.0247 153.334C-83.5127 151.802 -78.4459 151.715 -72.8701 151.986C-70.2059 152.126 -67.4149 152.384 -64.3992 152.685C-60.405 153.071 -56.0158 153.597 -51.2828 153.63C-43.8723 153.59 -35.2544 154.934 -25.5213 156.904C-20.8738 157.817 -16.2092 158.745 -11.321 159.502C-5.99015 160.325 -0.657566 161.701 4.80124 163.251C7.32528 163.967 9.88124 164.719 12.4872 165.457C17.2819 166.813 22.2468 168.136 27.4863 168.993C38.0015 170.441 50.6572 173.757 63.0062 179.701C63.2671 179.823 63.5217 179.942 63.7777 180.062C66.1351 181.202 68.2151 182.049 68.4603 181.948C68.0823 182.096 69.7244 181.563 70.991 180.433C71.1424 180.309 71.2872 180.188 71.4394 180.055C73.9844 177.827 76.5225 174.644 79.044 170.855C79.0928 170.781 79.1436 170.705 79.1963 170.625C79.4732 170.204 79.7871 169.702 80.1318 169.088C83.3008 164.613 84.3823 154.149 81.4293 134.689C84.2162 112.668 102.333 105.399 117.037 92.0678C117.147 91.9791 117.257 91.8904 117.367 91.8018C120.953 88.9127 124.261 86.2011 127.237 83.6223C131.611 79.8826 135.679 76.5129 140.742 73.9675C149.924 69.5999 158.356 72.7778 163.573 75.3222C169.03 78.0865 172.916 81.1579 176.292 83.965C179.875 86.9886 182.845 89.8077 185.455 92.2072C186.763 93.4109 187.984 94.5186 189.062 95.4041C189.591 95.8391 190.1 96.2228 190.438 96.4382C190.585 96.5356 190.709 96.5875 190.564 96.5282C190.492 96.5022 190.294 96.4252 189.934 96.3725C189.608 96.3204 188.761 96.2688 187.857 96.6168C187.433 96.7926 187.429 96.9164 187.546 96.7626C187.728 96.5518 188.044 95.9609 188.247 95.3416C188.422 94.8229 188.551 94.2631 188.624 93.7495C188.97 91.2689 188.632 88.9974 187.962 86.6285C185.363 78.3433 180.401 72.1945 176.302 64.0782C176.008 63.4783 175.675 62.854 175.324 62.2417C171.671 55.7507 164.261 49.0337 157.293 43.9928C157.282 43.9852 157.272 43.9776 157.261 43.97C156.433 43.366 155.609 42.7809 154.798 42.217ZM325.837 -358.845C326.592 -360.794 326.956 -362.465 326.704 -362.53C326.452 -362.603 325.681 -361.053 324.93 -359.119C324.257 -357.383 323.548 -355.661 322.802 -353.951C321.454 -350.814 320.298 -347.903 319.038 -345.012C318.198 -343.071 317.688 -341.463 317.932 -341.368C318.178 -341.279 319.09 -342.751 319.935 -344.704C321.189 -347.585 322.342 -350.488 323.667 -353.57C324.428 -355.316 325.152 -357.074 325.837 -358.845ZM164.889 43.5533C163.206 42.2032 161.354 41.1057 160.808 41.0379C160.263 40.9736 161.234 41.9331 162.921 43.2379C163.814 43.9317 165.274 45.0785 167.164 46.7163C170.592 49.7847 175.906 54.3893 180.129 61.8644C184.357 70.5327 194.621 80.5256 193.248 94.39C192.814 96.9324 191.687 99.9687 189.453 100.859C177.407 93.8132 164.528 70.794 142.552 77.7036C141.328 78.2858 140.168 78.9553 139.051 79.6622C135.478 81.949 132.564 84.3418 129.827 86.6374C129.538 86.8813 129.249 87.1242 128.959 87.3661C122.617 92.6524 116.561 97.0238 109.127 102.808C102.304 109.161 90.7826 113.877 84.5459 131.174C84.3642 132.238 84.2992 133.34 84.3899 134.45C85.6903 147.984 89.0522 161.665 81.7254 172.289C78.0853 177.749 72.9836 184.673 68.3611 185.159C66.6272 185.146 64.0954 183.76 61.6312 182.65C50.7782 177.487 38.7954 173.897 26.9469 172.356C14.0869 170.382 1.65351 165.189 -11.8742 163.129C-24.7694 161.314 -37.6439 157.431 -51.2761 157.51C-65.3933 157.886 -81.7112 151.631 -95.7476 161.309C-105.303 169.448 -118.301 176.35 -120.581 191.192C-121.064 203.215 -118.346 215.647 -111.751 225.938C-107.915 231.523 -103.974 238.678 -95.6164 240.061C-84.3068 241.131 -72.4024 240.2 -64.7395 248.025C-55.087 257.247 -44.6195 265.334 -35.1349 274.351C-28.2458 281.218 -18.9667 289.711 -20.5755 298.027C-21.8778 302.493 -22.7889 306.843 -24.8776 310.354C-29.5732 318.217 -34.5986 327.173 -34.2952 337.338C-23.4903 351.565 -11.1719 356.045 -3.27893 368.163C-1.18634 371.2 0.768296 374.786 1.73475 378.829C3.19518 384.198 4.90304 389.019 3.27056 393.982C-1.37445 408.767 -11.1691 423.277 -21.8021 432.13C-31.6479 440.41 -39.8777 446.904 -43.4306 450.464C-45.0382 452.01 -46.0751 453.542 -45.8568 453.689C-45.6455 453.842 -44.2986 452.605 -42.7173 451.089C-39.2424 447.612 -31.0409 441.132 -21.1977 432.856C-10.4111 423.869 -0.538126 409.242 4.17272 394.262C5.91418 388.997 4.0614 383.807 2.65477 378.613C1.67687 374.523 -0.254818 370.934 -2.31663 367.894C-10.2421 355.655 -23.2404 350.09 -33.3494 337.313C-33.648 327.474 -28.7629 318.696 -24.0617 310.834C-21.868 307.133 -20.9578 302.7 -19.6663 298.292C-18.0181 289.003 -27.3483 280.924 -34.0821 274.045C-43.7156 264.835 -54.3479 256.628 -64.0621 247.318C-72.0795 239.136 -84.4252 240.121 -95.4997 239.019C-103.068 237.813 -107.068 230.917 -110.817 225.343C-117.242 215.249 -119.872 203.062 -119.353 191.235C-117.329 177.608 -104.491 170.387 -94.9079 162.407C-81.8343 153.335 -65.7176 159.303 -51.2734 159.082C-37.9584 159.049 -25.1593 162.949 -12.136 164.846C1.08821 166.899 13.512 172.141 26.6484 174.217C38.4608 175.804 50.0304 179.317 60.7894 184.456C63.258 185.538 65.6681 187.043 68.299 187.17C75.2776 186.133 79.4693 178.988 83.4417 173.418C91.3543 161.904 87.6874 147.43 86.4742 134.282C86.3939 133.303 86.4599 132.314 86.6383 131.352C92.1951 116.119 103.329 110.467 109.799 104.217C116.885 98.3345 122.667 93.8123 129.02 88.5499C129.495 88.1553 129.97 87.7579 130.445 87.357C133.009 85.2039 135.748 82.9636 139.013 80.8141C140.28 79.9878 141.589 79.2123 142.966 78.5578C163.98 71.9215 175.763 94.2345 189.791 101.757C192.73 100.468 193.689 97.2365 194.201 94.5219C195.546 79.7847 185.026 69.8922 180.97 61.3784C177.144 54.5679 172.459 50.2481 169.281 47.2921C167.348 45.5417 165.83 44.3085 164.889 43.5533ZM126.928 -22.1628C137.037 -33.7529 154.343 -49.6774 171.693 -54.7577C180.088 -50.1035 188.216 -44.6112 195.771 -39.1241C196.415 -38.7232 196.985 -38.1057 198.484 -38.2358C199.11 -38.3224 199.727 -38.8254 199.973 -39.2756C200.242 -39.7312 200.326 -40.1299 200.381 -40.4878C200.478 -41.2024 200.421 -41.8092 200.335 -42.3964C200.151 -43.5589 199.798 -44.6164 199.351 -45.6284C194.478 -57.2718 186.18 -65.893 180.841 -73.2794C180.688 -73.5006 180.537 -73.7213 180.39 -73.9419C173.574 -84.6687 172.396 -94.2235 169.74 -102.238C169.086 -104.361 168.569 -106.477 168.139 -108.611C168.116 -108.721 168.095 -108.831 168.073 -108.941C166.471 -117.352 165.873 -126.027 166.372 -138.245C166.493 -140.983 166.787 -143.896 167.416 -146.976C168.908 -154.781 173.137 -163.271 178.87 -171.578C184.831 -180.224 192.542 -189.044 202.368 -194.959C203.666 -195.683 205.074 -196.263 206.5 -196.755C206.517 -196.761 206.535 -196.767 206.553 -196.773C216.65 -199.973 227.491 -200.59 237.58 -201.979C251.728 -203.682 257.813 -217.503 261.047 -226.251C262.887 -231.191 264.262 -236.11 266.239 -240.394C272.213 -253.597 275.78 -266.673 274.067 -278.588C271.569 -295.59 281.374 -308.22 286.743 -317.83C287.966 -319.7 288.364 -322.176 289.952 -322.958C294.621 -323.899 297.713 -319.341 301.01 -318.107C301.932 -317.719 302.839 -317.527 303.729 -317.507C317.757 -321.197 321.596 -338.839 327.759 -351.768C332.788 -362.837 335.513 -374.879 339.977 -386.19L339.967 -386.163C341.913 -392.007 343.391 -397.948 344.167 -403.88L344.164 -403.859C344.419 -406.227 344.554 -408.593 344.656 -410.959C344.655 -414.317 343.873 -409.721 343.169 -403.99L343.175 -404.035C343.058 -403.28 342.938 -402.503 342.817 -401.717C342.779 -401.473 342.739 -401.23 342.698 -400.987C342.302 -398.671 341.892 -396.65 341.169 -393.835C340.401 -390.94 339.652 -388.598 338.942 -386.514L338.971 -386.591C338.63 -385.734 338.316 -384.923 338.017 -384.133C336.362 -380.74 332.944 -366.642 326.812 -352.185C320.706 -337.22 312.286 -316.63 302.45 -318.643C302.114 -318.723 301.768 -318.835 301.406 -318.987C299.968 -319.599 298.43 -320.825 296.651 -322.022C294.901 -323.104 292.632 -324.891 289.6 -323.984C288.166 -323.415 287.721 -322.201 287.218 -321.279C286.74 -320.308 286.304 -319.352 285.743 -318.455C280.415 -309.075 269.942 -296.646 272.3 -278.29C273.814 -267.18 270.293 -254.198 264.375 -241.289C262.237 -236.677 260.877 -231.754 259.025 -226.813C255.799 -218.194 250.495 -205.291 237.379 -203.382C227.562 -201.783 216.99 -200.952 206.732 -197.834C206.669 -197.813 206.605 -197.792 206.54 -197.77C204.951 -197.238 203.38 -196.609 201.9 -195.784C191.89 -189.754 184.147 -180.891 178.085 -172.108C172.356 -163.805 168.028 -155.187 166.495 -147.19C165.853 -144.055 165.551 -141.083 165.427 -138.293C164.898 -125.395 165.587 -116.241 167.376 -107.577C167.398 -107.475 167.42 -107.374 167.443 -107.271C167.831 -105.488 168.282 -103.729 168.822 -101.975C171.508 -93.9073 172.613 -84.467 179.603 -73.4194C179.749 -73.2004 179.898 -72.9814 180.05 -72.7622C185.572 -65.1451 193.683 -56.717 198.485 -45.2463C198.935 -44.2276 199.285 -43.1529 199.433 -42.0144C199.499 -41.4403 199.531 -40.8547 199.363 -40.2342C199.275 -39.9326 199.117 -39.5889 198.79 -39.3597C198.459 -39.1256 198.039 -39.1153 197.719 -39.1883C197.169 -39.3155 196.736 -39.597 196.332 -39.8862C188.73 -45.4062 180.608 -50.8959 172.143 -55.5897C152.984 -50.5508 136.906 -34.6336 126.429 -23.0354C125.025 -21.3994 124.06 -19.8203 124.21 -19.5891C124.359 -19.3539 125.544 -20.5375 126.928 -22.1628ZM131.725 -18.7144C137.634 -25.3923 144.514 -31.4697 151.817 -36.8523C155.458 -39.527 159.286 -42.0773 163.089 -44.2619C165.016 -45.3669 166.935 -46.3773 168.75 -47.1829C169.676 -47.5941 170.552 -47.9342 171.222 -48.1364C171.393 -48.188 171.534 -48.2253 171.635 -48.249C171.748 -48.2759 171.825 -48.2874 171.807 -48.2826C171.8 -48.282 171.678 -48.2512 171.305 -48.2567C171.05 -48.2752 170.053 -48.2478 168.588 -49.0177C176.296 -44.6611 184.305 -39.2224 191.798 -33.73C192.401 -33.2953 193.075 -32.8226 194.244 -32.3087C195.403 -31.8902 197.263 -30.9327 200.799 -31.9144C202.478 -32.4192 204.093 -33.6295 204.988 -34.7725C205.908 -35.9152 206.337 -36.9498 206.607 -37.7491C207.121 -39.3804 207.129 -40.3745 207.144 -41.259C207.046 -44.5716 206.336 -46.3251 205.504 -48.343C200.93 -59.7246 191.459 -70.1642 185.975 -77.6493C181.247 -84.5079 179.243 -93.7767 176.265 -104.106C173.286 -114.316 172.892 -126.25 173.26 -137.896C173.341 -140.344 173.565 -142.722 173.968 -145.043C175.182 -151.909 178.809 -159.591 184.408 -167.84C189.826 -175.926 197.414 -184.453 205.521 -189.4C206.394 -189.902 207.537 -190.395 208.782 -190.829C209.001 -190.906 209.213 -190.978 209.435 -191.05C218.031 -193.706 228.664 -194.686 238.412 -196.174C256.776 -199.004 262.907 -215.994 266.25 -224.725C268.072 -229.687 269.515 -234.612 271.125 -238.049C277.43 -252.147 281.389 -265.259 279.525 -279.511C277.374 -293.111 286.036 -305.192 291.656 -314.76C292.488 -316.113 293.046 -317.384 293.422 -318.159C293.599 -318.536 293.753 -318.787 293.672 -318.674C293.613 -318.61 293.081 -317.865 291.848 -317.44C291.506 -317.325 291.112 -317.32 290.956 -317.35C290.791 -317.379 290.83 -317.4 290.983 -317.345C291.3 -317.242 291.977 -316.874 292.696 -316.397C294.228 -315.432 295.687 -314.083 298.59 -312.731C300.408 -311.933 302.428 -311.539 304.344 -311.613C312.741 -312.537 315.309 -317.143 317.71 -319.662C319.965 -322.49 321.361 -324.841 322.557 -326.889C324.894 -330.99 326.274 -333.872 327.88 -337.334C327.966 -337.522 328.052 -337.709 328.136 -337.896C328.143 -337.908 328.149 -337.92 328.155 -337.932C328.273 -338.162 328.372 -338.363 328.42 -338.464C328.521 -338.672 328.599 -338.841 328.628 -338.904C328.696 -339.05 328.751 -339.172 328.77 -339.216C328.851 -339.395 328.939 -339.594 328.999 -339.731C329.545 -340.95 331.171 -344.859 332.367 -347.823C332.607 -348.411 332.839 -348.976 333.036 -349.444C334.015 -351.759 334.734 -353.63 335.448 -355.594C335.538 -355.843 335.627 -356.09 335.715 -356.337C336.497 -358.536 337.309 -360.952 338.38 -364.392C339.031 -366.49 339.265 -368.024 338.939 -367.85C338.61 -367.674 337.844 -365.852 337.185 -363.761C336.047 -360.149 335.161 -357.597 334.361 -355.41C334.272 -355.167 334.181 -354.922 334.09 -354.678C333.477 -353.038 332.891 -351.547 332.166 -349.827C331.909 -349.214 331.609 -348.479 331.29 -347.694C329.68 -343.763 328.395 -340.734 327.16 -338.036C325.517 -334.478 324.042 -331.364 321.534 -327.015C320.249 -324.847 318.742 -322.348 316.292 -319.452C313.841 -316.981 310.249 -311.771 301.727 -312.766C300.767 -312.945 299.893 -313.214 298.984 -313.605C296.335 -314.824 294.854 -316.148 293.281 -317.151C292.533 -317.647 291.806 -318.059 291.358 -318.219C291.139 -318.301 291.01 -318.31 291.055 -318.294C291.091 -318.277 291.334 -318.27 291.54 -318.337C291.992 -318.485 292.381 -318.739 292.593 -318.921C292.81 -319.106 292.886 -319.214 292.903 -319.23C292.929 -319.262 292.763 -318.981 292.578 -318.59C292.19 -317.79 291.65 -316.56 290.853 -315.261C285.396 -305.856 276.403 -293.728 278.593 -279.354C280.419 -265.579 276.558 -252.47 270.274 -238.458C268.611 -234.903 267.184 -230.008 265.371 -225.073C262.041 -216.331 255.996 -199.812 238.278 -197.11C228.525 -195.617 217.914 -194.655 209.131 -191.945C208.897 -191.869 208.672 -191.793 208.442 -191.712C207.171 -191.268 205.991 -190.761 205.054 -190.223C196.7 -185.118 189.11 -176.539 183.624 -168.369C177.995 -160.078 174.286 -152.251 173.044 -145.241C172.59 -142.87 172.322 -140.441 172.2 -137.95C171.66 -126.171 171.881 -114.187 174.792 -103.684C177.646 -93.4097 179.552 -83.9222 184.456 -76.641C190.166 -68.7181 199.206 -58.7219 203.697 -47.5457C204.453 -45.7237 205.087 -44.082 205.166 -41.2567C205.154 -40.5083 205.141 -39.6775 204.728 -38.3704C204.391 -37.2097 203.038 -34.6745 200.199 -33.8002C197.458 -33.0364 195.974 -33.7795 195.025 -34.1264C194.069 -34.546 193.493 -34.9462 192.972 -35.323C185.412 -40.856 177.391 -46.2682 169.476 -50.6591C170.531 -50.1041 171.206 -50.1308 171.346 -50.1155C171.568 -50.1107 171.58 -50.1241 171.531 -50.114C171.483 -50.1064 171.357 -50.0819 171.201 -50.042C171.065 -50.0074 170.895 -49.9597 170.7 -49.8982C169.932 -49.6561 169.02 -49.2885 168.07 -48.8565C166.201 -48.0054 164.269 -46.9615 162.331 -45.8228C158.52 -43.5767 154.722 -40.9771 151.093 -38.2268C143.842 -32.7142 137.033 -26.4707 131.222 -19.5789C124.239 -11.5141 119.183 -2.97376 117.491 5.06064C117.322 5.85262 117.239 6.49143 117.23 6.96907C117.219 7.45822 117.278 7.7502 117.334 7.92208C117.394 8.09552 117.443 8.19223 117.602 8.37909C121.757 13.0983 126.717 17.6604 130.271 19.1765C148.971 27.1777 164.075 35.9447 176.482 48.5218C178.201 50.3943 181.399 53.5554 184.695 59.2237C187.49 64.5727 193.231 71.0249 197.49 82.0701C198.792 85.7748 199.724 90.3155 199.018 95.1892C198.348 98.464 197.948 101.794 193.533 105.366C192.957 105.766 192.288 106.134 191.542 106.412C189.873 107.029 188.465 106.764 187.779 106.6C186.934 106.385 186.484 106.168 186.035 105.954C185.568 105.722 185.252 105.533 184.935 105.336C184.62 105.139 184.303 104.922 184.063 104.751C182.978 103.973 182.165 103.283 181.326 102.563C179.671 101.13 178.149 99.7121 176.593 98.2904C173.491 95.449 170.332 92.612 166.925 90.0073C160.297 84.9063 151.711 80.1764 145.302 83.3786C144.874 83.5811 144.433 83.8102 143.986 84.0595C140.581 85.9904 137.474 88.4832 134.595 90.8686C134.374 91.0528 134.155 91.2368 133.936 91.4216C122.442 102.311 106.418 108.414 91.7165 130.866C91.3401 131.957 91.1766 132.99 91.2541 133.896C91.844 144.672 97.2725 161.133 87.4923 176.082C85.4686 179.162 83.2704 182.215 80.5757 185.134C77.6863 187.835 75.2575 191.582 68.1477 192.067C63.3231 191.684 61.1916 189.906 58.7093 188.917C47.7163 183.715 36.8782 180.657 25.8495 179.198C14.5149 177.364 5.0367 174.028 -2.72828 172.13C-6.51979 171.169 -9.89301 170.468 -12.926 170.027C-24.1063 168.32 -30.9884 166.723 -36.1659 165.956C-38.0335 165.661 -39.6622 165.438 -41.1501 165.265C-44.8244 164.846 -47.683 164.663 -51.2637 164.679C-51.5025 164.681 -51.7442 164.681 -51.989 164.68C-68.7674 164.281 -82.7763 160.437 -91.4409 166.941C-99.909 173.715 -112.425 182.007 -113.774 191.434C-113.82 192.5 -113.845 193.582 -113.841 194.66C-113.836 196.664 -113.499 198.382 -113.229 198.51C-112.954 198.641 -112.864 197.151 -112.888 195.188C-112.904 193.935 -112.879 192.708 -112.826 191.468C-111.779 183.078 -99.3847 174.401 -90.8658 167.693C-82.8465 161.536 -68.8717 165.2 -51.7858 165.627C-51.6099 165.627 -51.4354 165.626 -51.2621 165.625C-47.4744 165.607 -44.4175 165.826 -40.637 166.28C-39.1812 166.459 -37.6168 166.681 -35.8523 166.965C-30.8217 167.725 -24.0837 169.282 -13.0686 170.962C-10.0368 171.402 -6.64251 172.109 -2.79472 173.089C4.88528 174.972 14.3214 178.289 25.6997 180.132C36.7144 181.594 47.3545 184.597 58.3097 189.774C60.7952 190.747 62.8713 192.579 68.1185 193.012C75.9267 192.453 78.2826 188.522 81.2673 185.779C84.0184 182.798 86.2386 179.712 88.2823 176.602C98.3393 161.177 92.7394 144.424 92.1968 133.82C92.1339 133.093 92.2589 132.214 92.59 131.235C106.814 109.473 122.861 103.139 134.554 92.1412C134.594 92.1069 134.635 92.0725 134.676 92.0383C137.539 89.6425 140.632 87.1347 143.984 85.1524C144.58 84.805 145.164 84.493 145.716 84.2322C151.436 81.2829 159.804 85.6845 166.368 90.7752C169.736 93.3512 172.873 96.1688 175.969 99.0051C177.523 100.425 179.045 101.843 180.719 103.293C181.568 104.02 182.395 104.723 183.523 105.531C183.772 105.709 184.107 105.937 184.441 106.145C184.777 106.354 185.117 106.557 185.625 106.809C186.114 107.042 186.61 107.282 187.562 107.524C188.332 107.706 189.946 108.014 191.876 107.299C192.215 107.173 192.541 107.029 192.85 106.873C199.072 102.883 199.105 98.9416 199.957 95.3193C200.649 90.5465 199.822 86.0827 198.618 82.4407C194.076 70.2631 188.132 63.9026 185.518 58.7478C182.558 53.6451 179.869 50.851 178.48 49.2526C165.688 35.6429 149.877 26.569 130.625 18.2985C127.374 16.9305 122.373 12.3855 118.311 7.75146C118.225 7.64333 118.254 7.67988 118.228 7.60986C118.208 7.54258 118.156 7.30818 118.183 6.82423C118.203 6.43755 118.277 5.91371 118.417 5.25534C120.054 -2.52805 124.976 -10.8707 131.725 -18.7144ZM-31.2655 268.021C-32.8856 266.503 -34.4525 265.379 -34.7428 265.469C-35.0303 265.563 -33.9461 266.819 -32.3228 268.331C-23.8325 276.333 -17.8585 282.793 -15.0637 290.293C-13.9743 293.326 -13.6537 296.76 -14.5747 299.776C-15.9933 304.591 -16.906 309.055 -19.511 313.511C-20.4244 315.058 -21.3427 316.617 -22.2701 318.299C-25.773 324.581 -28.2225 330.937 -28.0055 337.169C-28.0234 336.601 -28.1755 336.279 -28.2101 336.198C-28.263 336.085 -28.2646 336.098 -28.2349 336.139C-28.1654 336.24 -27.9995 336.444 -27.7653 336.691C-27.3415 337.14 -26.7295 337.701 -26.1315 338.217C-24.8985 339.282 -23.5382 340.36 -22.1698 341.44C-19.4567 343.576 -16.6616 345.757 -13.9822 347.996C-8.60492 352.491 -3.52321 357.265 0.640874 362.788C3.90634 367.133 6.61072 372.02 7.87375 377.388C9.23086 382.138 11.4688 389.605 9.2373 395.835C3.36873 413.652 -6.21255 425.414 -12.8747 432.136C-14.4922 433.759 -15.7323 435.142 -15.5408 435.324C-15.3505 435.501 -13.7849 434.392 -12.1483 432.746C-5.43453 425.951 4.19819 414.142 10.1395 396.116C12.4745 389.63 10.104 381.751 8.79341 377.172C7.52002 371.76 4.83574 366.857 1.61573 362.515C-2.61381 356.832 -7.78012 351.96 -13.2252 347.397C-15.9429 345.12 -18.7671 342.915 -21.5069 340.759C-22.8858 339.671 -24.2532 338.588 -25.4773 337.533C-26.0663 337.026 -26.6728 336.47 -27.0653 336.055C-27.2829 335.827 -27.4284 335.644 -27.4568 335.602C-27.4684 335.588 -27.4376 335.618 -27.3523 335.8C-27.2912 335.939 -27.0832 336.393 -27.0603 337.143C-27.2685 331.194 -24.9421 325.047 -21.4891 318.842C-20.5496 317.134 -19.6224 315.56 -18.6955 313.991C-16.029 309.433 -15.0938 304.897 -13.6647 300.041C-12.8078 297.229 -12.9516 294.012 -13.7885 291.172C-16.3686 282.961 -22.5311 276.334 -31.2655 268.021Z" fill="#16685E"/>
<path d="M737.613 435.068C736.463 424.51 732.255 411.291 726.578 402.472C726.506 402.36 726.433 402.252 726.36 402.148C726.298 402.059 726.233 401.969 726.169 401.882C724.229 399.251 721.822 398.125 715.598 395.34C715.556 395.319 715.514 395.298 715.471 395.276C714.989 395.039 714.478 394.813 713.942 394.601C708.941 392.593 701.351 391.85 690.537 393.39C686.176 393.998 681.91 394.848 677.606 395.726C675.451 396.163 673.306 396.61 671.019 396.998C669.828 397.194 668.698 397.371 667.244 397.483C667.067 397.496 666.889 397.507 666.711 397.516C666.512 397.526 666.299 397.534 666.09 397.538C665.663 397.544 665.271 397.544 664.691 397.504C663.667 397.315 662.284 397.652 659.32 395.512C649.041 386.953 646.097 375.906 643.505 368.549C642.464 365.342 639.841 361.864 637.579 358.294C637.291 357.392 634.27 356.185 632.434 355.905C618.046 353.603 599.591 358.47 575.402 361.068C573.399 361.253 571.48 361.741 569.572 362.61C567.847 363.393 566.123 364.499 564.365 365.923C562.94 367.077 561.907 368.375 562.054 368.589C562.204 368.813 563.463 367.879 564.847 366.749C566.524 365.379 568.143 364.325 569.741 363.574C569.749 363.57 569.756 363.567 569.763 363.563C571.647 362.679 573.518 362.193 575.49 362.01C599.725 359.366 617.559 354.794 631.484 356.703C633.438 356.893 636.884 358.292 636.781 358.81C639.1 362.45 641.661 365.894 642.608 368.851C645.217 376.238 648.193 387.469 658.721 396.243C662.161 398.697 663.59 398.238 664.735 398.455C665.883 398.523 666.723 398.469 667.452 398.415C668.967 398.292 670.173 398.098 671.389 397.894C673.766 397.485 675.978 397.021 678.197 396.573C682.619 395.671 687.025 394.808 691.474 394.222C702.292 392.762 709.71 393.713 714.354 395.81C714.585 395.912 714.809 396.016 715.027 396.123C715.487 396.356 715.924 396.562 716.331 396.751C716.349 396.759 716.366 396.767 716.384 396.775C722.26 399.284 723.99 400.429 725.671 402.822C725.704 402.872 725.737 402.922 725.77 402.973C725.771 402.974 725.771 402.974 725.772 402.975C731.488 411.828 735.58 424.984 736.682 435.248C736.917 437.217 737.223 438.785 737.484 438.751C737.741 438.715 737.853 437.066 737.613 435.068ZM563.183 55.5963C554.437 57.8092 543.509 61.9366 533.777 66.9766C531.057 68.356 528.409 68.9866 525.834 69.5035C521.468 70.3369 517.26 70.6333 513.352 70.7489C508.52 70.949 504.967 67.4823 503.189 65.1429C500.445 61.6636 498.741 58.4822 497.631 56.2744C494.997 50.9837 492.998 44.7219 491.639 37.1871C491.328 35.4564 491.052 33.6593 490.814 31.797C490.03 25.6467 489.651 18.7667 489.795 11.2533C489.94 4.15926 490.544 -2.25301 491.52 -8.14295C492.014 -11.0812 492.59 -13.8537 493.365 -16.578C493.772 -17.9868 494.197 -19.2934 494.782 -20.6673C494.937 -21.0287 495.097 -21.3738 495.262 -21.7051C495.44 -22.0616 495.669 -22.48 495.898 -22.8439C496.455 -23.5761 496.779 -24.6288 499.07 -25.6758C507.894 -28.8993 514.976 -30.7171 521.015 -32.2494C523.267 -32.8082 525.381 -33.3024 527.386 -33.7492C527.497 -33.773 527.565 -33.7974 527.541 -33.788C527.541 -33.7878 527.54 -33.7877 527.54 -33.7875C527.511 -33.7531 527.282 -33.7605 526.729 -33.1203C526.46 -32.7944 526.167 -32.2176 526.093 -31.6169C526.013 -31.0143 526.125 -30.5256 526.231 -30.2314C526.459 -29.654 526.589 -29.6078 526.597 -29.582C526.61 -29.5711 526.54 -29.6381 526.438 -29.711C526.001 -30.0328 525.188 -30.4115 524.442 -30.6374C519.787 -32.0731 515.801 -32.8658 511.987 -33.2941C505.017 -34.1255 498.86 -33.5528 491.439 -34.2474C488.42 -34.5616 485.388 -35.1769 482.324 -36.0545C475.452 -37.9677 468.152 -41.8024 461.331 -44.9897C452.427 -49.1575 445.094 -55.0266 439.694 -59.7696C439.141 -60.259 438.58 -60.7632 438.015 -61.2774C435.824 -63.2718 433.537 -65.4561 431.094 -67.9043C425.224 -73.6106 419.008 -82.438 415.326 -94.5635C414.571 -96.9291 413.921 -99.2388 413.329 -101.513C410.327 -113.23 409.282 -124.048 410.439 -134.108C410.543 -134.91 410.665 -135.708 410.826 -136.526C411.404 -139.393 412.372 -141.793 413.372 -144.021C416.743 -151.221 420.499 -156.757 423.907 -162.043C425.599 -164.626 427.227 -167.096 428.777 -169.493C433.831 -177.096 431.218 -185.898 427.98 -192.796C424.665 -199.87 420.586 -205.43 417.751 -211.602C415.189 -217.308 412.439 -221.804 409.975 -225.374C404.051 -233.835 399.556 -237.293 396.514 -239.137C396.252 -239.293 396.001 -239.435 395.76 -239.564C394.85 -240.074 394.036 -240.581 393.275 -241.097C383.789 -247.645 378.882 -257.184 374.951 -267.631C374.076 -269.978 373.247 -272.408 372.418 -274.916C372.061 -275.995 371.723 -277.039 371.402 -278.033C371.194 -278.667 370.855 -279.401 370.358 -280.56C370.114 -281.156 369.811 -281.848 369.54 -282.979C369.289 -284.054 369.031 -285.97 369.863 -288.038C372.341 -293.391 376.315 -294.034 378.247 -294.772C380.413 -295.401 382.039 -295.67 383.146 -295.967C383.636 -296.091 384.009 -296.218 384.114 -296.259C384.532 -296.44 384.621 -296.516 384.797 -296.714C384.802 -296.719 384.806 -296.725 384.811 -296.731C384.845 -296.774 384.88 -296.825 384.915 -296.883C384.942 -296.927 384.97 -296.975 384.998 -297.031C385.012 -297.051 385.024 -297.071 385.033 -297.086C385.04 -297.098 385.045 -297.107 385.049 -297.114C385.05 -297.115 385.051 -297.116 385.052 -297.117C385.114 -297.226 385.16 -297.349 385.169 -297.374C385.186 -297.418 385.199 -297.46 385.206 -297.482C385.243 -297.598 385.282 -297.753 385.306 -297.87C385.366 -298.173 385.477 -298.718 385.47 -299.842C385.469 -300.809 385.39 -301.865 385.177 -303.227C385.163 -303.314 385.148 -303.404 385.135 -303.488C384.91 -304.828 384.55 -306.455 383.929 -308.531C383.365 -310.421 382.522 -312.103 382.186 -312.262C381.844 -312.421 382.149 -311.016 382.741 -309.148C383.351 -307.215 383.728 -305.702 383.997 -304.372C384.014 -304.287 384.031 -304.202 384.047 -304.117C384.312 -302.742 384.475 -301.467 384.513 -300.274C384.526 -299.887 384.522 -299.485 384.504 -299.162C384.468 -298.565 384.356 -297.968 384.201 -297.592C384.171 -297.518 384.141 -297.455 384.112 -297.402C384.031 -297.258 383.977 -297.224 383.951 -297.219C383.92 -297.215 383.907 -297.204 383.712 -297.126C383.699 -297.125 383.606 -297.089 383.462 -297.045C382.684 -296.784 380.941 -296.479 378.621 -295.864C377.439 -295.53 376.067 -295.135 374.326 -294.203C372.66 -293.314 370.201 -291.464 368.986 -288.391C368.044 -286.047 368.351 -283.907 368.624 -282.743C368.921 -281.516 369.241 -280.794 369.49 -280.183C369.998 -279 370.312 -278.313 370.495 -277.754C370.915 -276.449 371.359 -275.075 371.84 -273.634C372.643 -271.226 373.463 -268.858 374.346 -266.534C378.364 -256.008 383.937 -245.398 394.818 -238.963C394.96 -238.88 395.102 -238.798 395.245 -238.717C396.1 -238.251 396.949 -237.715 397.843 -237.07C400.737 -234.913 404.384 -231.824 409.736 -224.038C411.969 -220.724 414.5 -216.533 416.883 -211.225C419.735 -205.013 423.755 -199.533 427.049 -192.556C430.268 -185.729 432.818 -177.268 427.982 -170.005C426.5 -167.714 424.942 -165.348 423.323 -162.879C419.743 -157.324 415.724 -151.433 412.288 -143.913C411.345 -141.76 410.447 -139.446 409.898 -136.712C409.722 -135.815 409.589 -134.94 409.482 -134.079C408.334 -123.8 409.416 -112.988 412.411 -101.266C412.928 -99.2831 413.491 -97.2594 414.128 -95.1994C417.87 -82.4079 424.34 -73.1081 430.425 -67.2074C432.398 -65.2292 434.274 -63.4184 436.098 -61.7247C436.344 -61.4963 436.59 -61.2685 436.839 -61.0403C437.147 -60.7571 437.452 -60.479 437.759 -60.202C443.487 -55.0747 451.237 -48.6888 460.932 -44.1324C468.202 -40.7379 476.213 -36.4726 484.076 -34.5773C486.51 -33.9719 488.917 -33.5389 491.315 -33.2901C499.223 -32.5667 505.466 -33.2111 512.839 -32.2332C516.217 -31.8038 519.703 -31.1056 524.164 -29.733C524.75 -29.5542 525.389 -29.2696 525.767 -29.0227C525.941 -28.9257 526.071 -28.7458 525.803 -29.0528C525.686 -29.2377 525.33 -29.5524 525.148 -30.7252C524.9 -31.9286 525.769 -33.6942 526.354 -34.1063C526.856 -34.5574 527.085 -34.614 527.183 -34.6646C527.28 -34.7033 527.254 -34.6883 527.177 -34.6729C525.286 -34.251 523.26 -33.7779 521.066 -33.2359C514.905 -31.6785 507.735 -29.8451 498.736 -26.56C495.982 -25.2893 495.689 -24.0986 495.075 -23.3102C494.545 -22.4491 494.212 -21.7337 493.885 -20.9735C493.278 -19.5376 492.836 -18.1646 492.424 -16.7247C491.632 -13.9203 491.042 -11.0502 490.546 -8.05418C489.563 -2.03906 488.962 4.51431 488.838 11.7536C488.726 19.0749 489.089 25.7008 489.87 31.8666C490.113 33.7822 490.401 35.6583 490.734 37.4966C492.121 45.1344 494.304 52.2176 497.632 58.3807C498.616 60.1899 500.131 62.8211 502.426 65.723C504.199 68.0496 507.996 71.9063 513.362 71.7021C517.458 71.5771 521.928 71.2675 526.641 70.3089C529.096 69.7839 531.587 69.1518 534.209 67.8187C543.627 62.938 553.791 59.118 561.492 57.0528C562.463 56.7908 563.452 56.5343 564.434 56.2922C572.893 54.178 581.735 53.0199 588.357 53.7693C590.094 54.0045 591.853 54.3318 593.567 54.8061C604.026 57.5451 617.727 57.998 623.225 64.7025C623.695 65.265 624.138 66.0069 624.316 66.4911C624.409 66.7267 624.428 66.8948 624.407 66.8222C624.394 66.7608 624.331 66.3707 624.557 65.7233C624.902 64.786 625.424 64.1025 625.842 63.6772C626.223 63.294 626.465 63.1286 626.675 62.9885C626.886 62.8525 626.987 62.8041 627.055 62.7693C627.123 62.7354 627.155 62.7223 627.157 62.7201C627.159 62.7185 626.826 62.8171 626.463 62.8918C625.704 63.0544 624.685 63.2111 623.648 63.3514C621.555 63.633 619.27 63.8826 616.957 64.1693C612.31 64.743 607.501 65.4405 602.617 66.6324C593.451 68.9121 580.576 73.6102 576.983 86.7449C575.427 93.1627 575.509 98.4253 575.462 103.536C575.473 107.567 575.366 111.532 575.235 115.328C575.218 115.841 575.199 116.355 575.181 116.871C575.725 136.729 568.934 154.908 584.464 172.362C601.164 182.953 607.921 190.203 609.232 195.291C609.374 195.677 609.496 196.043 609.597 196.364C609.678 196.621 609.748 196.86 609.809 197.078C609.818 197.11 609.827 197.141 609.836 197.172C610.977 201.279 611.714 205.024 611.813 208.383C611.817 208.567 611.819 208.738 611.818 208.917C611.818 209.83 611.741 210.686 611.608 211.281C611.496 211.881 611.236 212.109 611.55 211.708C611.723 211.707 609.858 212.731 607.48 213.741C607.184 213.873 606.892 214.002 606.591 214.137C593.957 219.595 582.998 227.101 575.015 234.107C571.082 237.386 566.963 240.196 562.901 242.87C560.674 244.334 558.457 245.759 556.274 247.188C556.268 247.192 556.261 247.196 556.255 247.2C551.399 250.376 546.705 253.594 542.424 257.226C538.722 260.364 535.018 263.246 531.319 266.133C523.367 272.265 516.597 277.984 511.714 283.683C508.792 287.011 505.699 289.849 502.924 292.485C500.84 294.452 498.865 296.33 497.015 298.218C493.037 302.31 489.485 306.392 486.814 311.854C485.221 315.142 484.138 318.859 483.904 322.617C483.514 328.601 483.188 334.411 483.345 340.44C483.367 341.224 483.399 342.028 483.444 342.829C484.043 349.574 484.255 357.822 491.66 365.331C493.732 367.281 496.026 369.221 498.45 370.999C500.404 372.438 502.222 373.331 502.399 373.136C502.583 372.941 501.079 371.751 499.157 370.344C496.711 368.559 494.403 366.612 492.305 364.638C485.539 357.864 485.033 350.051 484.432 343.477C484.381 342.676 484.343 341.884 484.315 341.082C484.112 334.948 484.444 328.922 484.849 322.674C485.068 319.192 486.038 315.735 487.492 312.632C489.943 307.463 493.196 303.577 497.052 299.54C498.902 297.618 500.925 295.678 503.128 293.596C506.035 290.83 509.307 287.858 512.431 284.302C517.254 278.676 523.913 273.043 531.776 266.977C535.509 264.063 539.265 261.145 543.038 257.946C547.151 254.457 551.683 251.327 556.429 248.217C558.623 246.778 560.865 245.339 563.129 243.853C567.294 241.117 571.545 238.232 575.624 234.832C583.604 227.834 594.398 220.441 606.977 215.001C607.24 214.883 607.497 214.769 607.755 214.654C610.161 213.619 612.162 212.601 612.247 212.35C612.111 212.733 612.783 211.142 612.759 209.445C612.765 209.25 612.768 209.061 612.767 208.859C612.749 205.476 612.007 201.474 610.794 197.087C610.77 197.002 610.746 196.913 610.72 196.821C610.583 196.336 610.409 195.771 610.171 195.107C608.864 189.782 601.664 182.113 585.023 171.601C570.206 155.074 576.576 136.622 576.13 116.779C576.135 116.638 576.14 116.497 576.145 116.356C576.31 111.754 576.427 107.478 576.427 103.54C576.465 97.7854 576.582 92.5046 577.974 87.0113C580.686 77.212 588.609 72.9204 593.949 70.6437C599.612 68.3295 604.477 67.4045 608.809 66.6914C613.441 65.9632 617.517 65.5646 621.039 65.1638C622.806 64.963 624.442 64.7662 625.817 64.531C626.493 64.4158 627.116 64.283 627.5 64.1681C627.67 64.1211 627.79 64.0612 627.65 64.132C627.584 64.1691 627.396 64.2686 627.12 64.506C626.868 64.7181 626.273 65.325 625.945 66.2362C625.8 66.6714 625.891 66.7553 625.851 66.5664C625.811 66.2905 625.572 65.6647 625.236 65.1063C624.959 64.6342 624.62 64.1703 624.28 63.7782C622.632 61.8925 620.694 60.6603 618.465 59.6155C610.501 56.1542 602.605 55.8775 593.787 53.6606C593.141 53.4898 592.451 53.333 591.759 53.1967C584.46 51.7074 574.532 52.9087 566.159 54.8739C566.146 54.8768 566.134 54.8798 566.121 54.8827C565.122 55.113 564.14 55.3527 563.183 55.5963ZM372.084 -336.305C371.106 -338.151 370.081 -339.521 369.867 -339.373C369.647 -339.23 370.313 -337.632 371.283 -335.798C372.154 -334.153 372.991 -332.49 373.796 -330.806C375.283 -327.733 376.726 -324.952 378.086 -322.107C379.003 -320.202 379.884 -318.763 380.116 -318.885C380.344 -319.013 379.829 -320.666 378.906 -322.583C377.55 -325.418 376.111 -328.19 374.65 -331.21C373.829 -332.929 372.974 -334.627 372.084 -336.305ZM570.801 48.8449C568.679 49.2326 566.636 49.9142 566.228 50.2821C565.822 50.6517 567.183 50.5464 569.274 50.1257C570.383 49.9051 572.206 49.5531 574.681 49.1972C579.245 48.616 586.205 47.6152 594.62 49.3183C603.94 51.7997 618.213 50.5863 627.792 60.7032C629.43 62.6961 630.986 65.5366 630.195 67.8077C616.983 72.2977 591.152 66.9568 581.983 88.0897C581.621 89.3962 581.368 90.7111 581.17 92.0187C580.559 96.2159 580.459 99.9853 580.402 103.557C580.397 103.935 580.391 104.313 580.384 104.69C580.226 112.945 579.564 120.385 579.067 129.791C579.4 139.108 575.42 150.903 584.408 166.944C585.093 167.778 585.883 168.549 586.781 169.207C597.861 177.087 610.402 183.505 613.633 195.999C615.376 202.326 617.268 210.716 614.608 214.528C613.463 215.83 610.758 216.836 608.305 217.971C597.296 222.792 586.736 229.497 577.812 237.442C567.899 245.869 555.832 251.865 545.417 260.74C535.601 269.297 524.235 276.483 515.368 286.838C506.407 297.753 490.994 305.99 489.117 322.936C489.01 335.487 485.714 349.83 495.438 361.272C504.209 369.511 515.384 375.597 527.48 377.353C534.213 378.111 542.202 379.818 548.72 374.407C556.934 366.561 564.027 356.955 574.958 356.287C588.248 355.031 601.215 352.417 614.241 351.153C623.942 350.444 636.437 348.993 641.669 355.654C644.191 359.563 646.882 363.1 648.167 366.978C651.035 375.675 654.513 385.339 662.394 391.766C680.221 392.917 691.674 386.541 706.001 388.511C709.667 388.918 713.657 389.789 717.345 391.707C722.359 394.119 727.121 395.985 729.803 400.469C737.935 413.661 742.487 430.566 742.214 444.399C742.024 457.262 741.543 467.735 741.907 472.751C742.023 474.979 742.501 476.765 742.755 476.697C743.009 476.637 742.957 474.809 742.846 472.621C742.494 467.718 742.968 457.277 743.159 444.418C743.43 430.38 738.841 413.34 730.605 399.971C727.767 395.207 722.63 393.208 717.785 390.87C714.053 388.931 710.075 388.04 706.428 387.608C691.988 385.583 679.27 391.762 662.994 391.034C655.363 384.817 651.928 375.377 649.064 366.676C647.704 362.594 644.95 359.003 642.464 355.141C636.524 347.812 624.308 349.573 614.699 350.157C601.43 351.406 588.265 354.068 574.867 355.312C563.433 356.013 556.094 365.989 548.008 373.637C542.141 378.567 534.31 377.073 527.642 376.257C515.806 374.502 504.874 368.509 496.275 360.373C487.302 349.919 490.252 335.488 490.496 323.02C492.201 307.198 507.265 298.926 516.558 287.866C525.252 277.781 536.581 270.662 546.543 262.062C556.754 253.412 568.852 247.455 579.023 238.887C587.958 230.999 598.189 224.555 609.119 219.79C611.553 218.633 614.269 217.797 616.087 215.891C619.874 209.938 617.219 202.091 615.61 195.442C612.091 181.922 598.75 175.215 588.019 167.521C587.227 166.941 586.522 166.243 585.913 165.479C578.039 151.304 581.059 139.188 580.572 130.206C580.766 120.998 581.136 113.667 581.318 105.42C581.331 104.802 581.342 104.183 581.35 103.562C581.402 100.214 581.502 96.6769 582.016 92.8014C582.222 91.3025 582.493 89.8056 582.9 88.3362C591.645 68.109 616.224 73.816 631.096 68.1405C632.047 65.075 630.232 62.2339 628.516 60.0696C618.259 49.4019 603.893 50.8748 594.803 48.3649C587.151 46.7964 580.818 47.5083 576.503 47.9742C573.914 48.2892 571.988 48.6282 570.801 48.8449ZM496.277 34.4999C494.137 19.2702 493.435 -4.23696 500.957 -20.6762C509.973 -23.973 519.446 -26.5189 528.54 -28.6356C529.265 -28.8601 530.105 -28.8861 530.988 -30.1041C531.333 -30.6339 531.357 -31.4299 531.178 -31.9107C531.009 -32.4122 530.763 -32.7369 530.529 -33.0131C530.052 -33.554 529.557 -33.9087 529.056 -34.2279C528.057 -34.8501 527.027 -35.2759 525.969 -35.6009C513.978 -39.5424 502.029 -38.917 492.95 -39.7187C492.683 -39.7479 492.418 -39.7791 492.155 -39.8123C479.584 -41.6853 471.591 -47.0519 463.796 -50.2932C461.763 -51.1894 459.825 -52.1843 457.93 -53.2561C457.832 -53.3116 457.735 -53.3671 457.637 -53.423C450.232 -57.7201 443.285 -62.9489 434.377 -71.327C432.388 -73.2115 430.378 -75.3418 428.463 -77.8338C423.541 -84.0722 419.894 -92.8279 417.37 -102.601C414.739 -112.768 413.124 -124.371 415.088 -135.67C415.391 -137.126 415.874 -138.57 416.436 -139.969C416.443 -139.987 416.45 -140.004 416.457 -140.021C420.651 -149.748 427.284 -158.345 432.841 -166.879C440.818 -178.687 434.358 -192.336 429.865 -200.51C427.336 -205.135 424.519 -209.395 422.576 -213.695C416.51 -226.856 408.964 -238.114 398.837 -244.623C384.352 -253.869 381.228 -269.549 377.48 -279.9C376.868 -282.049 375.258 -283.971 375.706 -285.683C378.053 -289.828 383.522 -289.181 386.614 -290.864C387.511 -291.307 388.25 -291.867 388.848 -292.525C395.245 -305.544 384.427 -319.998 378.692 -333.123C373.619 -344.172 366.302 -354.117 360.678 -364.897L360.691 -364.872C357.55 -370.17 354.027 -375.178 350.053 -379.649L350.066 -379.632C348.443 -381.376 346.744 -383.028 345.022 -384.655C342.484 -386.852 345.445 -383.252 349.315 -378.967L349.286 -379.001C349.779 -378.418 350.288 -377.818 350.803 -377.212C350.962 -377.024 351.12 -376.834 351.277 -376.644C352.768 -374.828 354.027 -373.195 355.681 -370.805C357.365 -368.329 358.645 -366.23 359.755 -364.328L359.716 -364.4C360.14 -363.582 360.547 -362.813 360.948 -362.07C362.429 -358.597 370.846 -346.782 377.756 -332.68C385.067 -318.265 395.114 -298.419 387.152 -292.303C386.871 -292.102 386.56 -291.914 386.208 -291.739C384.804 -291.053 382.87 -290.694 380.801 -290.133C378.837 -289.519 376 -288.975 374.7 -286.089C374.191 -284.633 374.817 -283.502 375.185 -282.518C375.606 -281.52 376.042 -280.565 376.353 -279.554C379.954 -269.385 382.488 -253.33 397.906 -243.092C407.292 -236.961 414.799 -225.798 420.679 -212.872C422.764 -208.236 425.595 -203.985 428.116 -199.349C432.517 -191.267 438.795 -178.809 431.649 -167.646C426.429 -159.18 420.133 -150.646 415.773 -140.851C415.747 -140.79 415.721 -140.728 415.695 -140.665C415.057 -139.115 414.504 -137.516 414.158 -135.857C412.159 -124.343 413.787 -112.688 416.455 -102.355C418.979 -92.5877 422.658 -83.6729 427.697 -77.2772C429.646 -74.7395 431.695 -72.565 433.722 -70.644C443.123 -61.7982 450.493 -56.3244 458.213 -52.003C458.304 -51.9527 458.395 -51.9031 458.487 -51.8528C460.089 -50.9789 461.714 -50.1673 463.393 -49.4273C471.249 -46.1737 479.107 -40.8268 492.034 -38.8753C492.295 -38.8423 492.558 -38.8113 492.823 -38.7823C502.196 -37.9674 513.877 -38.5784 525.691 -34.6963C526.756 -34.3692 527.797 -33.9301 528.754 -33.2958C529.231 -32.9696 529.695 -32.6107 530.053 -32.0771C530.224 -31.8132 530.381 -31.469 530.339 -31.0713C530.3 -30.6682 530.032 -30.344 529.768 -30.1499C529.312 -29.818 528.815 -29.6745 528.332 -29.5589C519.182 -27.4284 509.715 -24.8854 500.623 -21.561C491.885 -3.78179 493.386 18.7927 495.291 34.3054C495.608 36.4378 496.169 38.2011 496.442 38.2393C496.718 38.2805 496.599 36.6104 496.277 34.4999ZM502.025 33.1324C500.847 24.2936 500.76 15.1143 501.474 6.07005C501.837 1.56748 502.416 -2.99579 503.255 -7.3005C503.682 -9.48049 504.175 -11.5924 504.755 -13.4915C505.051 -14.4612 505.367 -15.3456 505.653 -15.9845C505.726 -16.1474 505.79 -16.2782 505.839 -16.3705C505.892 -16.4731 505.934 -16.5393 505.926 -16.5225C505.922 -16.5167 505.865 -16.4039 505.617 -16.1261C505.436 -15.9452 504.803 -15.1737 503.263 -14.5713C511.603 -17.5435 520.958 -20.0348 530.016 -22.1011C530.739 -22.2718 531.537 -22.4714 532.691 -23.0185C533.767 -23.6208 535.708 -24.3995 537.282 -27.7142C538 -29.3139 538.142 -31.3267 537.865 -32.7515C537.604 -34.1955 537.103 -35.1974 536.675 -35.9244C535.779 -37.3814 535.033 -38.0384 534.375 -38.629C531.807 -40.7244 530.017 -41.3356 527.947 -42.0282C516.35 -46.025 502.258 -45.7033 493.01 -46.4611C484.731 -47.3793 476.413 -51.9343 466.656 -56.4475C456.989 -60.8825 447.713 -68.4 439.151 -76.3044C437.355 -77.969 435.704 -79.6951 434.214 -81.519C429.82 -86.9331 426.389 -94.7045 423.821 -104.338C421.259 -113.729 419.784 -125.047 421.353 -134.413C421.546 -135.402 421.921 -136.588 422.409 -137.814C422.494 -138.029 422.579 -138.236 422.669 -138.452C426.292 -146.688 432.514 -155.365 437.772 -163.707C447.66 -179.439 438.834 -195.199 434.425 -203.442C431.868 -208.068 429.091 -212.384 427.548 -215.852C421.023 -229.849 413.706 -241.427 401.713 -249.352C390.026 -256.632 386.569 -271.09 383.018 -281.602C382.54 -283.118 381.945 -284.372 381.606 -285.163C381.437 -285.544 381.348 -285.825 381.38 -285.689C381.39 -285.603 381.605 -284.713 381.118 -283.503C380.981 -283.169 380.727 -282.868 380.602 -282.77C380.472 -282.664 380.482 -282.707 380.623 -282.787C380.909 -282.959 381.631 -283.229 382.462 -283.46C384.194 -283.987 386.17 -284.206 389.093 -285.514C390.886 -286.366 392.507 -287.634 393.705 -289.131C398.505 -296.082 396.706 -301.039 396.375 -304.503C395.714 -308.059 394.852 -310.654 394.088 -312.899C392.518 -317.351 391.243 -320.281 389.679 -323.762C389.594 -323.95 389.508 -324.137 389.422 -324.324C389.417 -324.336 389.412 -324.349 389.407 -324.362C389.311 -324.601 389.223 -324.807 389.179 -324.91C389.088 -325.122 389.011 -325.292 388.983 -325.355C388.917 -325.502 388.86 -325.624 388.84 -325.667C388.757 -325.845 388.665 -326.042 388.6 -326.177C388.037 -327.388 386.147 -331.177 384.69 -334.021C384.403 -334.588 384.128 -335.133 383.904 -335.589C382.795 -337.845 381.851 -339.613 380.835 -341.439C380.706 -341.67 380.577 -341.899 380.448 -342.127C379.299 -344.159 378.005 -346.354 376.106 -349.416C374.947 -351.282 373.94 -352.464 373.858 -352.103C373.776 -351.74 374.651 -349.967 375.8 -348.1C377.784 -344.875 379.133 -342.534 380.262 -340.497C380.387 -340.271 380.513 -340.041 380.638 -339.813C381.476 -338.276 382.218 -336.857 383.044 -335.182C383.339 -334.586 383.698 -333.878 384.082 -333.124C385.999 -329.333 387.447 -326.378 388.677 -323.677C390.29 -320.106 391.678 -316.952 393.322 -312.209C394.119 -309.817 395.021 -307.042 395.605 -303.294C395.868 -299.824 397.452 -293.697 391.12 -287.908C390.356 -287.3 389.581 -286.815 388.69 -286.384C386.034 -285.181 384.063 -284.929 382.275 -284.397C381.41 -284.156 380.623 -283.876 380.209 -283.643C380.004 -283.531 379.912 -283.44 379.954 -283.463C379.99 -283.479 380.154 -283.658 380.239 -283.857C380.422 -284.296 380.485 -284.757 380.487 -285.036C380.489 -285.321 380.458 -285.449 380.457 -285.472C380.449 -285.513 380.553 -285.204 380.728 -284.808C381.078 -283.991 381.654 -282.777 382.113 -281.324C385.648 -271.041 388.925 -256.302 401.222 -248.545C412.828 -240.904 420.207 -229.402 426.681 -215.476C428.279 -211.892 431.044 -207.608 433.586 -203.006C438.013 -194.765 446.538 -179.378 436.978 -164.218C431.719 -155.87 425.497 -147.221 421.794 -138.808C421.699 -138.581 421.609 -138.362 421.519 -138.135C421.022 -136.884 420.633 -135.66 420.426 -134.599C418.814 -124.942 420.326 -113.588 422.908 -104.093C425.488 -94.4083 428.975 -86.4805 433.459 -80.9511C434.954 -79.0548 436.614 -77.2616 438.417 -75.5384C446.965 -67.4167 456.167 -59.736 466.011 -55.0582C475.644 -50.4867 484.063 -45.7148 492.778 -44.6528C502.505 -43.7799 515.979 -44.0657 527.366 -40.1404C529.238 -39.5188 530.894 -38.923 533.081 -37.1323C533.639 -36.6335 534.258 -36.0796 534.976 -34.9115C535.632 -33.8967 536.662 -31.2142 535.464 -28.4962C534.246 -25.924 532.712 -25.289 531.829 -24.7995C530.886 -24.3518 530.206 -24.1781 529.58 -24.0308C520.448 -21.9408 511.105 -19.4235 502.604 -16.317C503.714 -16.7506 504.136 -17.2787 504.239 -17.3738C504.388 -17.5391 504.385 -17.5566 504.361 -17.5128C504.335 -17.4718 504.271 -17.3601 504.199 -17.2163C504.136 -17.0907 504.062 -16.9317 503.98 -16.7439C503.66 -16.0049 503.341 -15.0751 503.045 -14.0736C502.464 -12.1041 501.988 -9.96 501.58 -7.75019C500.781 -3.39898 500.259 1.17376 499.961 5.71754C499.379 14.8072 499.639 24.0415 501.042 32.9468C502.563 43.5058 505.707 52.9191 510.671 59.4594C511.159 60.1059 511.588 60.5864 511.943 60.9063C512.305 61.2347 512.564 61.3817 512.731 61.4519C512.902 61.5198 513.007 61.546 513.252 61.5484C519.539 61.4989 526.235 60.7379 529.708 59.0446C548.001 50.1515 564.518 44.4778 582.148 43.3372C584.689 43.2642 589.172 42.9178 595.614 44.1386C601.487 45.5286 610.123 45.4157 621.259 49.4296C624.912 50.8718 628.954 53.1407 632.174 56.8662C634.211 59.5172 636.466 61.9999 636.274 67.6753C636.199 68.373 636.039 69.1195 635.76 69.865C635.135 71.5307 634.012 72.4209 633.439 72.8325C632.723 73.3301 632.264 73.528 631.808 73.7269C631.327 73.9283 630.977 74.0432 630.62 74.1537C630.266 74.2628 629.894 74.3608 629.608 74.4301C628.309 74.7407 627.256 74.9032 626.162 75.0658C623.995 75.3776 621.927 75.5996 619.833 75.8444C615.655 76.3281 611.442 76.8577 607.242 77.727C599.047 79.3958 589.849 82.7876 588.073 89.7276C587.946 90.1838 587.83 90.6672 587.725 91.1683C586.955 95.0064 586.804 98.9864 586.721 102.725C586.716 103.012 586.712 103.299 586.708 103.585C587.411 119.402 581.53 135.509 588.871 161.323C589.448 162.321 590.122 163.121 590.858 163.656C599.388 170.267 615.384 176.945 620.277 194.125C621.279 197.672 622.147 201.332 622.588 205.28C622.738 209.233 623.979 213.522 619.689 219.213C616.241 222.608 613.501 223.055 611.128 224.283C599.998 229.185 590.59 235.373 582.264 242.752C573.456 250.118 564.728 255.096 558.209 259.722C554.999 261.958 552.26 264.048 549.941 266.052C541.33 273.383 535.616 277.539 531.646 280.949C530.2 282.167 528.965 283.253 527.86 284.264C525.137 286.766 523.127 288.807 520.794 291.524C520.639 291.705 520.481 291.888 520.32 292.072C509.031 304.492 496.952 312.561 496.193 323.369C495.767 334.204 493.838 349.093 500.079 356.286C500.855 357.019 501.656 357.747 502.473 358.449C503.991 359.759 505.51 360.628 505.783 360.508C506.063 360.387 504.996 359.343 503.497 358.075C502.539 357.267 501.627 356.444 500.726 355.592C495.07 349.307 496.629 334.258 497.138 323.427C497.736 313.334 509.657 305.172 521.168 292.539C521.283 292.406 521.397 292.273 521.51 292.142C523.977 289.268 526.144 287.1 528.963 284.541C530.051 283.558 531.244 282.521 532.614 281.373C536.483 278.069 542.071 273.996 550.555 266.772C552.872 264.769 555.63 262.666 558.89 260.4C565.343 255.829 574.028 250.87 582.872 243.477C591.19 236.11 600.427 230.035 611.514 225.146C613.877 223.905 616.621 223.536 620.385 219.854C625.075 213.586 623.647 209.232 623.529 205.18C623.078 201.149 622.199 197.45 621.187 193.869C616.116 176.167 599.787 169.428 591.418 162.894C590.827 162.466 590.245 161.796 589.722 160.904C582.589 135.904 588.311 119.628 587.656 103.589C587.657 103.536 587.658 103.483 587.658 103.43C587.723 99.6968 587.853 95.7166 588.55 91.8852C588.678 91.2075 588.824 90.5622 588.989 89.974C590.506 83.7194 599.312 80.2777 607.458 78.651C611.61 77.7926 615.794 77.2665 619.965 76.784C622.056 76.5395 624.124 76.3178 626.316 76.0019C627.422 75.8371 628.495 75.6723 629.844 75.3488C630.141 75.2767 630.533 75.1731 630.909 75.0574C631.287 74.9401 631.663 74.8165 632.186 74.5972C632.682 74.3801 633.188 74.1624 633.994 73.6015C634.637 73.1383 635.926 72.1202 636.65 70.1939C636.777 69.8545 636.881 69.5143 636.966 69.1786C638.025 61.8638 635.067 59.2577 632.888 56.2412C629.734 52.5927 625.819 50.2947 622.278 48.8196C610.1 44.2783 601.401 44.6049 595.793 43.2051C589.998 42.1008 586.126 42.3026 584.008 42.3059C565.346 43.0609 548.135 49.0681 529.276 58.2024C526.114 59.7632 519.404 60.5661 513.242 60.6018C513.104 60.5959 513.151 60.5977 513.081 60.5716C513.017 60.5424 512.805 60.4286 512.457 60.0913C512.178 59.8225 511.831 59.4241 511.425 58.8868C506.614 52.5531 503.533 43.3699 502.025 33.1324ZM611.991 344.084C609.783 344.314 607.907 344.762 607.785 345.04C607.668 345.319 609.327 345.322 611.533 345.086C623.14 343.909 631.935 343.625 639.433 346.424C642.439 347.587 645.244 349.594 646.92 352.264C649.63 356.489 652.406 360.103 654.068 364.99C654.638 366.693 655.216 368.408 655.88 370.21C658.333 376.971 661.533 382.984 666.384 386.901C665.944 386.543 665.601 386.448 665.517 386.42C665.397 386.387 665.406 386.396 665.456 386.401C665.578 386.414 665.841 386.422 666.18 386.407C666.798 386.381 667.622 386.285 668.404 386.172C670.016 385.937 671.721 385.615 673.434 385.288C676.825 384.637 680.303 383.952 683.75 383.394C690.669 382.273 697.605 381.559 704.506 382.029C709.928 382.406 715.392 383.562 720.276 386.124C724.755 388.209 731.863 391.407 735.111 397.173C744.732 413.276 747.347 428.219 748.065 437.656C748.232 439.942 748.465 441.784 748.728 441.758C748.987 441.731 749.174 439.821 749.001 437.506C748.263 427.983 745.646 412.97 735.913 396.675C732.541 390.663 725.034 387.295 720.715 385.287C715.791 382.705 710.328 381.523 704.938 381.113C697.873 380.588 690.808 381.303 683.793 382.429C680.293 382.992 676.777 383.683 673.354 384.341C671.628 384.671 669.915 384.995 668.316 385.23C667.546 385.342 666.729 385.437 666.158 385.461C665.844 385.477 665.61 385.467 665.56 385.461C665.541 385.46 665.584 385.457 665.778 385.512C665.923 385.557 666.402 385.696 666.984 386.17C662.352 382.432 659.23 376.649 656.801 369.975C656.126 368.147 655.543 366.416 654.965 364.688C653.266 359.687 650.451 356.01 647.716 351.75C646.152 349.261 643.627 347.263 640.932 346.036C633.037 342.609 623.993 342.926 611.991 344.084Z" fill="#16685E"/>
</g>
<defs>
<linearGradient id="paint0_linear_33_276" x1="468.151" y1="603" x2="21.9536" y2="31.3506" gradientUnits="userSpaceOnUse">
<stop stop-color="#144942"/>
<stop offset="1" stop-color="#2AC1AF"/>
</linearGradient>
<clipPath id="clip0_33_276">
<rect width="671" height="640" fill="white"/>
</clipPath>
</defs>
</svg>
