<svg width="1920" height="1080" viewBox="0 0 1920 1080" fill="none" xmlns="http://www.w3.org/2000/svg">
<g clip-path="url(#clip0_52_186)">
<rect width="1920" height="1080" fill="url(#paint0_linear_52_186)"/>
<path d="M555.284 1095.23C541.441 1062.56 506.379 1010.55 476.867 1063.87C447.354 1117.19 425.536 1057.86 418.316 1021.53C408.516 1002.08 377.999 977.421 334.326 1034.34C279.735 1105.5 295.036 1005.31 231.582 985.388C180.819 969.447 148.905 917.364 139.294 893.315C118.414 873.272 66.9531 837.049 28.1509 852.501C-10.6513 867.952 -81.2267 832.057 -110 822.357" stroke="black" stroke-width="3" stroke-linecap="round"/>
<path d="M-53.8439 396.466C-18.448 393.994 42.1362 377.741 1.3057 332.501C-39.5248 287.261 23.6735 285.911 60.3764 290.891C81.9523 287.944 115.195 267.101 75.5583 207.297C26.0124 132.543 115.782 179.576 155.251 126.044C186.827 83.2184 246.581 81.9264 272.322 68.6946C298.063 55.4628 349.046 18.5697 347.046 -23.1479C345.045 -64.8656 401.931 -119.942 420.456 -144" stroke="black" stroke-width="3" stroke-linecap="round"/>
<path d="M-10.8439 421.466C24.552 418.994 85.1362 402.741 44.3057 357.501C3.47518 312.261 66.6735 310.911 103.376 315.891C124.952 312.944 158.195 292.101 118.558 232.297C69.0124 157.543 194.5 216 188 155C182.362 102.092 241.5 117.838 291.5 105C350.678 89.8054 392.046 43.5697 390.046 1.85206C388.045 -39.8656 444.931 -94.9417 463.456 -119" stroke="#081715" stroke-width="3" stroke-linecap="round"/>
<path d="M530.753 -25.1211C557.225 -1.4948 668.346 98.7115 672.253 37.8957C676.16 -22.9201 745.964 21.9796 768.011 51.7422C785.179 65.1389 823.307 74.4013 838.477 4.27716C857.44 -83.3781 885.6 72.1053 924.753 24.879C958.712 -16.0825 1006.25 12.4503 1050.34 39.3014C1102.52 71.0813 1164.51 68.4426 1192.99 37.8957C1221.47 7.34874 1286.59 -21.5993 1316.75 -25.121" stroke="#081715" stroke-width="3" stroke-linecap="round"/>
<path d="M522.753 -53.1211C549.225 -29.4948 660.346 70.7115 664.253 9.89569C668.16 -50.9201 737.964 -6.02044 760.011 23.7422C777.179 37.1389 815.307 46.4013 830.477 -23.7228C849.44 -111.378 877.6 44.1053 916.753 -3.12097C950.712 -44.0825 998.253 -15.5497 1042.34 11.3014C1094.52 43.0813 1156.51 40.4426 1184.99 9.89568C1213.47 -20.6513 1278.59 -49.5993 1308.75 -53.121" stroke="#024023" stroke-width="3" stroke-linecap="round"/>
<path d="M527.753 -38.1211C554.225 -14.4948 665.346 85.7115 669.253 24.8957C673.16 -35.9201 742.964 8.97956 765.011 38.7422C782.179 52.1389 820.307 61.4013 835.477 -8.72284C854.44 -96.3781 882.6 59.1053 921.753 11.879C955.712 -29.0825 1003.25 -0.54973 1047.34 26.3014C1099.52 58.0813 1161.51 55.4426 1189.99 24.8957C1218.47 -5.65126 1283.59 -34.5993 1313.75 -38.121" stroke="white" stroke-width="3" stroke-linecap="round"/>
<path d="M-84.8439 359.466C-49.448 356.994 11.1362 340.741 -29.6943 295.501C-70.5248 250.261 -7.32653 248.911 29.3764 253.891C50.9523 250.944 64.1367 209.804 24.5 150C-25.0459 75.2455 93.5304 167.032 133 113.5C164.576 70.6744 218.5 47 241.322 31.6946C267.063 18.4628 318.046 -18.4303 316.046 -60.1479C314.045 -101.866 370.931 -156.942 389.456 -181" stroke="#16685E" stroke-width="3" stroke-linecap="round"/>
<path d="M-133.844 326.466C-98.448 323.994 -37.8638 307.741 -78.6943 262.501C-119.525 217.261 -56.3265 215.911 -19.6236 220.891C1.95234 217.944 35.195 197.101 -4.44173 137.297C-53.9876 62.5429 54.0305 125.532 93.5 72C125.076 29.1744 166.455 -0.0329208 192.322 -1.3054C218.063 -14.5372 269.046 -51.4303 267.046 -93.1479C265.045 -134.866 321.931 -189.942 340.456 -214" stroke="white" stroke-width="3" stroke-linecap="round"/>
<path d="M-161.844 318.466C-126.448 315.994 -65.8638 299.741 -106.694 254.501C-147.525 209.261 -84.3265 207.911 -47.6236 212.891C-26.0477 209.944 7.19499 189.101 -32.4417 129.297C-81.9876 54.5429 7.78181 101.576 47.2514 48.044C78.827 5.21841 138.455 -8.03292 164.322 -9.3054C190.063 -22.5372 241.046 -59.4303 239.046 -101.148C237.045 -142.866 293.931 -197.942 312.456 -222" stroke="#16685E" stroke-width="3" stroke-linecap="round"/>
<path d="M1596.16 1178.47C1631.55 1175.99 1692.14 1159.74 1651.31 1114.5C1610.48 1069.26 1673.67 1067.91 1710.38 1072.89C1731.95 1069.94 1765.19 1049.1 1725.56 989.297C1676.01 914.543 1765.78 961.576 1805.25 908.044C1836.83 865.218 1896.58 863.926 1922.32 850.695C1948.06 837.463 1999.05 800.57 1997.05 758.852C1995.04 717.134 2051.93 662.058 2070.46 638" stroke="black" stroke-width="3" stroke-linecap="round"/>
<path d="M1639.16 1203.47C1674.55 1200.99 1735.14 1184.74 1694.31 1139.5C1653.48 1094.26 1716.67 1092.91 1753.38 1097.89C1774.95 1094.94 1808.19 1074.1 1768.56 1014.3C1719.01 939.543 1844.5 998 1838 937C1832.36 884.092 1891.5 899.838 1941.5 887C2000.68 871.805 2042.05 825.57 2040.05 783.852C2038.04 742.134 2094.93 687.058 2113.46 663" stroke="#081715" stroke-width="3" stroke-linecap="round"/>
<path d="M1565.16 1141.47C1600.55 1138.99 1661.14 1122.74 1620.31 1077.5C1579.48 1032.26 1642.67 1030.91 1679.38 1035.89C1700.95 1032.94 1714.14 991.804 1674.5 932C1624.95 857.246 1743.53 949.032 1783 895.5C1814.58 852.674 1868.5 829 1891.32 813.695C1917.06 800.463 1968.05 763.57 1966.05 721.852C1964.04 680.134 2020.93 625.058 2039.46 601" stroke="#16685E" stroke-width="3" stroke-linecap="round"/>
<path d="M1754.16 1265.47C1789.55 1262.99 1850.14 1246.74 1809.31 1201.5C1768.48 1156.26 1831.67 1154.91 1868.38 1159.89C1889.95 1156.94 1903.14 1115.8 1863.5 1056C1813.95 981.246 1932.53 1073.03 1972 1019.5C2003.58 976.674 2057.5 953 2080.32 937.695C2106.06 924.463 2157.05 887.57 2155.05 845.852C2153.04 804.134 2209.93 749.058 2228.46 725" stroke="#0F1615" stroke-width="3" stroke-linecap="round"/>
<path d="M1516.16 1108.47C1551.55 1105.99 1612.14 1089.74 1571.31 1044.5C1530.48 999.261 1593.67 997.911 1630.38 1002.89C1651.95 999.944 1685.19 979.101 1645.56 919.297C1596.01 844.543 1704.03 907.532 1743.5 854C1775.08 811.174 1816.45 781.967 1842.32 780.695C1868.06 767.463 1919.05 730.57 1917.05 688.852C1915.04 647.134 1971.93 592.058 1990.46 568" stroke="white" stroke-width="3" stroke-linecap="round"/>
<path d="M1682.16 1224.47C1717.55 1221.99 1778.14 1205.74 1737.31 1160.5C1696.48 1115.26 1759.67 1113.91 1796.38 1118.89C1817.95 1115.94 1851.19 1095.1 1811.56 1035.3C1762.01 960.543 1870.03 1023.53 1909.5 970C1941.08 927.174 1982.45 897.967 2008.32 896.695C2034.06 883.463 2085.05 846.57 2083.05 804.852C2081.04 763.134 2137.93 708.058 2156.46 684" stroke="white" stroke-width="3" stroke-linecap="round"/>
<path d="M1488.16 1100.47C1523.55 1097.99 1584.14 1081.74 1543.31 1036.5C1502.48 991.261 1565.67 989.911 1602.38 994.891C1623.95 991.944 1657.19 971.101 1617.56 911.297C1568.01 836.543 1657.78 883.576 1697.25 830.044C1728.83 787.218 1788.45 773.967 1814.32 772.695C1840.06 759.463 1891.05 722.57 1889.05 680.852C1887.04 639.134 1943.93 584.058 1962.46 560" stroke="#16685E" stroke-width="3" stroke-linecap="round"/>
<path d="M1931.03 672.853C1954.49 646.237 1986.21 592.122 1925.37 588.585C1864.53 585.048 1908.58 539.708 1938.21 517.48C1951.5 500.231 1960.53 462.048 1890.32 447.304C1802.55 428.874 1899.49 399.322 1890 333.493C1882.4 280.83 1915.55 229.523 1933.07 210.453C1942.11 182.956 1952.5 120.888 1921.78 92.5921C1891.06 64.2958 1892.88 -14.8624 1889.18 -45" stroke="#16685E" stroke-width="3" stroke-linecap="round"/>
<path d="M1956.03 667.853C1979.49 641.237 2011.21 587.122 1950.37 583.585C1889.53 580.048 1933.58 534.708 1963.21 512.48C1976.5 495.231 1985.53 457.048 1915.32 442.304C1827.55 423.874 1924.49 394.322 1915 328.493C1907.4 275.83 1940.55 224.523 1958.07 205.453C1967.11 177.956 1977.5 115.888 1946.78 87.5921C1916.06 59.2958 1917.88 -19.8624 1914.18 -50" stroke="white" stroke-width="3" stroke-linecap="round"/>
<path d="M555.284 1131.23C541.441 1098.56 506.379 1046.55 476.867 1099.87C447.354 1153.19 425.536 1093.86 418.316 1057.53C408.516 1038.08 377.999 1013.42 334.326 1070.34C279.735 1141.5 295.036 1041.31 231.582 1021.39C180.819 1005.45 148.905 953.364 139.294 929.315C118.414 909.272 66.9531 873.049 28.1509 888.501C-10.6513 903.952 -81.2267 868.057 -110 858.357" stroke="black" stroke-width="3" stroke-linecap="round"/>
<path d="M537.284 1163.23C523.441 1130.56 488.379 1078.55 458.867 1131.87C429.354 1185.19 407.536 1125.86 400.316 1089.53C390.516 1070.08 359.999 1045.42 316.326 1102.34C261.735 1173.5 277.036 1073.31 213.582 1053.39C162.819 1037.45 130.905 985.364 121.294 961.315C100.414 941.272 48.9531 905.049 10.1509 920.501C-28.6513 935.952 -99.2267 900.057 -128 890.357" stroke="#717171" stroke-width="3" stroke-linecap="round"/>
<path d="M517.284 1181.23C503.441 1148.56 468.379 1096.55 438.867 1149.87C409.354 1203.19 387.536 1143.86 380.316 1107.53C370.516 1088.08 339.999 1063.42 296.326 1120.34C241.735 1191.5 257.036 1091.31 193.582 1071.39C142.819 1055.45 110.905 1003.36 101.294 979.315C80.4142 959.272 28.9531 923.049 -9.8491 938.501C-48.6513 953.952 -119.227 918.057 -148 908.357" stroke="#16685E" stroke-width="3" stroke-linecap="round"/>
<path d="M445.284 1250.23C431.441 1217.56 396.379 1165.55 366.867 1218.87C337.354 1272.19 315.536 1212.86 308.316 1176.53C298.516 1157.08 267.999 1132.42 224.326 1189.34C169.735 1260.5 185.036 1160.31 121.582 1140.39C70.8185 1124.45 38.9055 1072.36 29.2944 1048.31C8.41415 1028.27 -43.0469 992.049 -81.8491 1007.5C-120.651 1022.95 -191.227 987.057 -220 977.357" stroke="#16685E" stroke-width="3" stroke-linecap="round"/>
<path d="M482.284 1217.23C468.441 1184.56 433.379 1132.55 403.867 1185.87C374.354 1239.19 352.536 1179.86 345.316 1143.53C335.516 1124.08 304.999 1099.42 261.326 1156.34C206.735 1227.5 222.036 1127.31 158.582 1107.39C107.819 1091.45 75.9055 1039.36 66.2944 1015.31C45.4142 995.272 -6.0469 959.049 -44.8491 974.501C-83.6513 989.952 -154.227 954.057 -183 944.357" stroke="white" stroke-width="3" stroke-linecap="round"/>
<path d="M2011.28 106.233C1997.44 73.5624 1962.38 21.5505 1932.87 74.8688C1903.35 128.187 1886.23 71.5 1874.32 32.5303C1868.5 13.5 1834 -11.5792 1790.33 45.3436C1735.74 116.497 1751.04 16.3146 1687.58 -3.61203C1636.82 -19.5533 1604.91 -71.6365 1595.29 -95.6854C1574.41 -115.728 1522.95 -151.951 1484.15 -136.499C1445.35 -121.048 1374.77 -156.943 1346 -166.643" stroke="black" stroke-width="3" stroke-linecap="round"/>
<path d="M1998.28 139.233C1984.44 106.562 1949.38 54.5505 1919.87 107.869C1890.35 161.187 1878 98.6401 1861.32 65.5303C1851.52 46.0836 1821 21.4208 1777.33 78.3436C1722.74 149.497 1738.04 49.3146 1674.58 29.388C1623.82 13.4467 1591.91 -38.6365 1582.29 -62.6854C1561.41 -82.7283 1509.95 -118.951 1471.15 -103.499C1432.35 -88.0477 1361.77 -123.943 1333 -133.643" stroke="#717171" stroke-width="3" stroke-linecap="round"/>
<path d="M2001.28 176.233C1987.44 143.562 1952.38 91.5505 1922.87 144.869C1893.35 198.187 1869.62 136 1853.5 104C1843.7 84.5533 1824 58.4208 1780.33 115.344C1725.74 186.497 1741.04 86.3146 1677.58 66.388C1626.82 50.4467 1594.91 -1.63647 1585.29 -25.6854C1564.41 -45.7283 1512.95 -81.9512 1474.15 -66.4995C1435.35 -51.0477 1364.77 -86.9429 1336 -96.6427" stroke="#16685E" stroke-width="3" stroke-linecap="round"/>
<path d="M1998.28 256.233C1984.44 223.562 1949.38 171.551 1919.87 224.869C1890.35 278.187 1868.54 218.859 1861.32 182.53C1851.52 163.084 1831.67 181.577 1788 238.5C1733.41 309.654 1738.04 166.315 1674.58 146.388C1623.82 130.447 1591.91 78.3635 1582.29 54.3146C1561.41 34.2717 1509.95 -1.95124 1471.15 13.5005C1432.35 28.9523 1361.77 -6.94289 1333 -16.6427" stroke="#16685E" stroke-width="3" stroke-linecap="round"/>
<path d="M-26.721 444.598C31.4201 462.858 21.2789 474.598 15.7789 528.598C15.7789 589.247 15.0702 561.346 66.2788 611.598C119.779 664.098 35.8935 678.524 29.0515 744.681C23.5778 797.606 -21.0761 839.285 -42.7188 853.509" stroke="#16685E" stroke-width="3" stroke-linecap="round"/>
<path d="M-45.721 438.598C12.4201 456.858 2.27888 468.598 -3.22106 522.598C-3.22106 583.247 -3.92982 555.346 47.2788 605.598C100.779 658.098 16.8935 672.524 10.0515 738.681C4.57778 791.606 -40.0761 833.285 -61.7188 847.509" stroke="white" stroke-width="3" stroke-linecap="round"/>
<path d="M-69.721 444.598C-11.5799 462.858 -21.7211 474.598 -27.2211 528.598C-27.2211 589.247 -27.9298 561.346 23.2788 611.598C76.7788 664.098 -7.10646 678.524 -13.9485 744.681C-19.4222 797.606 -64.0761 839.285 -85.7188 853.509" stroke="#717171" stroke-width="3" stroke-linecap="round"/>
<path d="M2001.28 218.233C1987.44 185.562 1952.38 133.551 1922.87 186.869C1893.35 240.187 1880.93 177.5 1864.32 144.53C1854.52 125.084 1824 100.421 1780.33 157.344C1725.74 228.497 1741.04 128.315 1677.58 108.388C1626.82 92.4467 1594.91 40.3635 1585.29 16.3146C1564.41 -3.7283 1512.95 -39.9512 1474.15 -24.4995C1435.35 -9.04775 1364.77 -44.9429 1336 -54.6427" stroke="white" stroke-width="3" stroke-linecap="round"/>
<path d="M2023.28 67.2331C2009.44 34.5624 1974.38 -17.4495 1944.87 35.8688C1915.35 89.187 1893.54 29.859 1886.32 -6.46973C1876.52 -25.9164 1846 -50.5792 1802.33 6.34364C1747.74 77.4972 1763.04 -22.6854 1699.58 -42.612C1648.82 -58.5533 1616.91 -110.636 1607.29 -134.685C1586.41 -154.728 1534.95 -190.951 1496.15 -175.499C1457.35 -160.048 1386.77 -195.943 1358 -205.643" stroke="black" stroke-width="3" stroke-linecap="round"/>
<path d="M602 1079.9C631.969 1075.02 711.138 1073.73 738.206 1041.92C765.274 1010.12 827.701 1018.06 855.532 1026.01C875.276 1042.77 927.845 1073.88 980.169 1064.22C1045.57 1052.15 1078.91 1147.86 1093.88 1059.43C1105.85 988.692 1144.36 996.216 1162.12 1008.82C1185.5 1037.55 1255.36 1086.94 1256.5 1026.01C1257.65 965.08 1328 1034.21 1372 1041.92C1404 1041.92 1435.1 1011.54 1457.5 1041.92C1479.9 1072.31 1508.17 1079.9 1519.5 1079.9" stroke="white" stroke-width="3" stroke-linecap="round"/>
<path d="M613 1101.9C642.969 1097.02 722.138 1095.73 749.206 1063.92C776.274 1032.12 838.701 1040.06 866.532 1048.01C886.276 1064.77 938.845 1095.88 991.169 1086.22C1056.57 1074.15 1089.91 1169.86 1104.88 1081.43C1116.85 1010.69 1155.36 1018.22 1173.12 1030.82C1196.5 1059.55 1266.36 1108.94 1267.5 1048.01C1268.65 987.08 1339 1056.21 1383 1063.92C1415 1063.92 1446.1 1033.54 1468.5 1063.92C1490.9 1094.31 1519.17 1101.9 1530.5 1101.9" stroke="#024023" stroke-width="3" stroke-linecap="round"/>
<path d="M626 1127.9C655.969 1123.02 735.138 1121.73 762.206 1089.92C789.274 1058.12 851.701 1066.06 879.532 1074.01C899.276 1090.77 951.845 1121.88 1004.17 1112.22C1069.57 1100.15 1102.91 1195.86 1117.88 1107.43C1129.85 1036.69 1168.36 1044.22 1186.12 1056.82C1209.5 1085.55 1279.36 1134.94 1280.5 1074.01C1281.65 1013.08 1352 1082.21 1396 1089.92C1428 1089.92 1459.1 1059.54 1481.5 1089.92C1503.9 1120.31 1532.17 1127.9 1543.5 1127.9" stroke="black" stroke-width="3" stroke-linecap="round"/>
</g>
<defs>
<linearGradient id="paint0_linear_52_186" x1="960" y1="2.57492e-05" x2="1446" y2="1324.5" gradientUnits="userSpaceOnUse">
<stop stop-color="#3FFFE8"/>
<stop offset="1" stop-color="#16685E"/>
</linearGradient>
<clipPath id="clip0_52_186">
<rect width="1920" height="1080" fill="white"/>
</clipPath>
</defs>
</svg>
