<svg width="1920" height="1080" viewBox="0 0 1920 1080" fill="none" xmlns="http://www.w3.org/2000/svg">
<g clip-path="url(#clip0_27_130)">
<rect width="1920" height="1080" fill="white"/>
<path d="M1013 39.5C1008.67 17.3333 980.5 0 890 0H1919.5V331.817C1901.67 293.65 1885.5 233 1799.5 279.817C1741.5 204 1649.5 244.5 1640.5 295.5C1620.83 254.333 1532.5 171 1458.5 238.5C1447.5 121.183 1337.5 138 1295 164.5C1319 126 1188.5 50.5 1150 103.5C1128 53.5 1037.67 28.5 1013 39.5Z" fill="url(#paint0_linear_27_130)"/>
<path d="M-16.4649 510.856C14.5148 493.558 62.4241 453.069 6.22362 429.504C-49.9769 405.938 6.6397 377.824 41.973 366.713C60.2443 354.865 81.4575 321.857 20.1403 284.605C-56.5062 238.04 44.7441 242.402 57.6824 177.163C68.0331 124.972 116.354 87.6071 139.221 75.4484C156.885 52.5206 187.323 -2.56024 167.76 -39.4611C148.198 -76.362 177.561 -141.937 198.37 -166.002" stroke="#16685E" stroke-width="3" stroke-linecap="round"/>
<path d="M478.707 1141.29C478.624 1137.98 479.787 1134.08 478.996 1127.59C478.789 1124.19 474.806 1119.83 471.677 1119.25C468.578 1118.36 466.347 1118.58 464.358 1118.74C464.237 1118.75 464.116 1118.77 463.994 1118.78C460.446 1119.2 457.354 1119.99 453.705 1121.1C453.23 1121.24 452.78 1121.39 452.3 1121.54C448.055 1122.91 443.065 1124.82 436.508 1127.57C430.934 1129.91 425.711 1132.28 421.244 1134C406.168 1140.09 396.592 1146.04 392.738 1147.93C388.238 1150.31 383.593 1152.69 378.592 1154.73C377.706 1155.1 376.753 1155.14 375.635 1154.7C372.731 1153.54 370.246 1151.01 368.589 1146.53C368.17 1145.4 367.814 1144.16 367.527 1142.85C367.292 1141.78 367.364 1140.82 367.617 1140.76C367.873 1140.7 368.208 1141.52 368.432 1142.56C368.702 1143.82 369.035 1144.99 369.422 1146.06C369.424 1146.06 369.426 1146.07 369.427 1146.07C371.042 1150.48 373.349 1152.76 375.994 1153.83C376.903 1154.17 377.575 1154.13 378.242 1153.85C383.019 1151.9 387.455 1149.64 391.765 1147.36C395.688 1145.45 405.404 1139.4 420.898 1133.12C425.451 1131.36 430.857 1128.9 436.623 1126.5C443.268 1123.71 448.36 1121.78 452.687 1120.41C453.148 1120.27 453.635 1120.12 454.086 1119.98C454.097 1119.98 454.108 1119.98 454.119 1119.97C457.826 1118.88 460.937 1118.12 464.47 1117.78C464.545 1117.77 464.619 1117.76 464.693 1117.76C466.749 1117.63 469.075 1117.42 472.358 1118.48C475.751 1119.26 479.699 1123.98 479.922 1127.44C480.742 1134.34 479.549 1138.15 479.652 1141.33C479.637 1142.35 479.494 1143.03 479.233 1143.05C478.974 1143.07 478.69 1142.36 478.707 1141.29ZM210.274 1030.28C207.025 1024.01 202.088 1015.91 196.61 1009.65C191.141 1003.29 185.681 998.278 183.321 995.794C180.974 993.391 178.305 990.832 175.323 987.672C174.644 986.951 173.934 986.181 173.229 985.393C170.879 982.768 168.4 979.74 165.952 976.203C164.039 973.439 162.4 970.805 160.929 968.27C155.643 959.105 153.544 951.916 152.36 946.423C152.057 944.985 151.821 943.633 151.634 942.359C151.633 942.357 151.633 942.355 151.633 942.352C150.943 937.552 150.871 933.888 151.044 930.529C151.378 924.509 152.245 919.672 153.236 913.379C153.466 911.857 153.679 910.19 153.786 908.336C154.242 901.31 156.343 892.123 157.387 885.638C157.459 885.205 157.531 884.763 157.604 884.315C158.134 878.764 160.7 872.902 158.527 861.077C158.268 860.206 157.934 859.393 157.548 858.617C155.636 854.95 153.17 852.293 149.788 850.291C144.243 847.267 138.931 846.908 134.408 846.643C132.353 846.55 130.426 846.543 128.603 846.56C124.003 846.613 120.023 846.794 116.396 846.786C114.391 846.785 112.5 846.712 110.76 846.525C92.2257 844.935 85.5387 833.226 80.5099 828.114C77.2827 824.172 75.4272 821.433 74.0461 819.378C73.5698 818.691 73.0917 818.091 72.6136 817.554C71.8839 816.736 71.1564 816.064 70.4293 815.491C63.5111 810.304 55.9851 811.037 49.3379 811.725C48.575 811.813 47.8125 811.908 47.0546 812.003C46.0448 812.136 45.0534 812.338 44.0866 812.589C37.6482 814.447 34.4153 816.838 31.7781 818.231C30.654 818.871 29.7108 819.399 28.8524 819.844C28.8365 819.852 28.8207 819.86 28.8049 819.869C28.6848 819.931 28.5666 819.99 28.4505 820.049C28.3632 820.093 28.276 820.137 28.1887 820.18C28.1557 820.2 28.1258 820.216 28.1037 820.229C28.0862 820.239 28.0725 820.247 28.0637 820.252C28.0621 820.253 28.0605 820.254 28.059 820.255C27.8997 820.345 27.7609 820.412 27.7321 820.425C27.6822 820.45 27.6378 820.469 27.6153 820.48C27.4957 820.535 27.3438 820.599 27.2416 820.641C26.9937 820.742 26.5689 820.914 25.9681 821.106C25.9444 821.114 25.9204 821.121 25.8959 821.129C25.4247 821.283 24.9585 821.411 24.3581 821.508C24.3203 821.514 24.2824 821.52 24.2445 821.525C23.6592 821.609 22.9514 821.657 22.1 821.561C21.3153 821.474 20.7404 821.061 20.7571 820.79C20.7729 820.514 21.2533 820.471 21.9169 820.575C22.6117 820.682 23.203 820.673 23.7291 820.623C23.7624 820.62 23.7958 820.616 23.8292 820.613C24.3787 820.552 24.8914 820.442 25.4197 820.283C25.5088 820.257 25.5983 820.228 25.6867 820.198C25.7954 820.163 25.9057 820.125 26.0146 820.087C26.4052 819.942 26.8695 819.747 27.456 819.468C27.5731 819.412 27.6957 819.353 27.8226 819.291C28.6355 818.89 29.6272 818.351 30.8243 817.676C33.7197 816.193 37.2081 813.431 44.6376 811.474C45.3767 811.305 46.1367 811.164 46.9095 811.061C47.8275 810.947 48.761 810.83 49.706 810.724C56.3725 810.056 65.1992 809.268 72.4154 815.92C73.3239 816.792 74.0964 817.712 74.8065 818.73C74.8162 818.744 74.8259 818.758 74.8356 818.772C76.2699 820.91 77.9138 823.459 81.6138 827.954C86.4426 832.78 92.8091 844.036 110.865 845.586C112.497 845.76 114.279 845.834 116.185 845.84C119.943 845.858 124.183 845.657 128.897 845.612C130.698 845.598 132.576 845.61 134.533 845.701C139.129 845.978 144.523 846.343 150.259 849.468C153.65 851.468 156.063 854.04 158.051 857.523C158.61 858.544 159.089 859.623 159.445 860.82C161.66 872.535 159.228 878.014 158.719 883.482C158.687 883.68 158.656 883.878 158.624 884.076C158.584 884.322 158.544 884.568 158.505 884.808C157.438 891.556 155.217 901.02 154.738 908.364C154.607 910.703 154.318 912.781 154.02 914.666C153.047 920.637 152.262 925.249 151.966 931.149C151.843 934.045 151.879 937.131 152.508 941.782C152.689 943.079 152.927 944.508 153.253 946.076C154.42 951.556 156.499 958.696 161.741 967.785C163.244 970.375 164.926 973.071 166.893 975.896C169.25 979.28 171.597 982.149 173.912 984.738C174.625 985.535 175.354 986.327 176.063 987.078C179.039 990.234 181.996 993.061 184.725 995.84C186.924 998.146 192.215 1003.03 197.564 1009.31C202.989 1015.58 207.59 1023.21 210.538 1028.7C210.859 1029.29 211.16 1029.85 211.462 1030.43C211.784 1031.05 212.104 1031.68 212.423 1032.32C214.946 1037.61 215.35 1042.83 216.068 1046.72C217.925 1057.12 219.825 1067.63 231.414 1072.86C237.861 1076.39 246.462 1075.88 254.975 1074.56C258.957 1073.93 262.939 1072.69 266.599 1071.34C266.873 1071.23 267.148 1071.13 267.425 1071.02C291.811 1060.97 308.738 1049.25 314.656 1046.06C314.929 1045.9 315.175 1045.75 315.402 1045.61C315.603 1045.49 315.784 1045.38 315.944 1045.29C318.346 1043.86 320.442 1042.57 322.663 1041.21C322.784 1041.14 322.904 1041.07 323.025 1040.99C325.357 1039.57 327.815 1038.08 330.803 1036.36C341.877 1030.04 350.99 1024.94 360.488 1021.75C362.272 1021.18 364.005 1020.7 366.039 1020.34C366.044 1020.34 366.05 1020.34 366.056 1020.34C368.527 1019.93 371.591 1019.62 374.978 1020.58C378.594 1021.49 382.098 1024.8 383.305 1028.04C384.422 1030.68 385.204 1033.38 385.685 1036.03C387.606 1048.56 384.944 1056.24 383.504 1061.95C383.455 1062.12 383.406 1062.29 383.357 1062.45C382.88 1064.07 382.4 1065.53 381.928 1066.9C380.801 1070.15 379.733 1072.87 378.605 1075.64C376.48 1080.82 374.522 1085.46 372.849 1089.94C372.701 1090.34 372.552 1090.74 372.409 1091.14C370.929 1095.23 369.615 1099.4 369.278 1102.81C369.198 1103.64 369.113 1104.46 369.026 1105.29C368.886 1106.62 368.557 1107.68 368.295 1107.68C368.032 1107.68 367.935 1106.61 368.075 1105.29C368.166 1104.43 368.253 1103.57 368.336 1102.72C368.68 1099.27 369.933 1095.23 371.393 1091.15C371.537 1090.75 371.683 1090.35 371.834 1089.94C373.498 1085.45 375.493 1080.73 377.654 1075.47C378.738 1072.81 379.745 1070.25 380.854 1067.1C381.37 1065.62 381.906 1064.02 382.45 1062.18C382.461 1062.14 382.472 1062.1 382.483 1062.07C383.96 1056.33 386.632 1048.67 384.774 1036.31C384.306 1033.69 383.539 1031.02 382.433 1028.4C381.317 1025.45 378.241 1022.46 374.937 1021.56C371.822 1020.61 368.898 1020.84 366.517 1021.22C364.494 1021.55 362.821 1022.01 360.999 1022.58C351.594 1025.69 342.458 1030.79 331.34 1037.14C328.51 1038.77 326.201 1040.17 323.866 1041.59C323.736 1041.67 323.606 1041.75 323.475 1041.83C321.28 1043.17 319.06 1044.53 316.526 1046.04C316.188 1046.24 315.751 1046.51 315.236 1046.81C309.298 1050.01 292.349 1061.78 267.698 1071.93C267.622 1071.96 267.546 1071.99 267.469 1072.02C262.778 1073.79 258.645 1074.97 255.143 1075.54C245.38 1077.17 239.284 1076.88 234.946 1075.71C233.409 1075.31 232.036 1074.77 230.753 1074.15C227.874 1072.75 225.803 1071.28 224.225 1069.86C223.781 1069.47 223.392 1069.09 223.023 1068.7C221.462 1067.05 220.497 1065.57 219.629 1064.01C217.081 1059.2 216.402 1054.74 215.379 1049.04C214.526 1044.42 214.184 1038.2 211.525 1032.71C211.406 1032.47 211.288 1032.24 211.17 1032.01C211.167 1032 211.163 1031.99 211.159 1031.98C210.86 1031.39 210.565 1030.82 210.274 1030.28ZM10.7003 811.56C9.73001 810.591 9.06433 809.671 9.25171 809.488C9.43995 809.308 10.4206 809.944 11.3997 810.923C13.7331 813.253 15.9159 815.621 18.0424 817.937C18.9337 818.908 19.4856 819.82 19.2874 819.99C19.0871 820.158 18.2091 819.516 17.3173 818.545C15.1914 816.229 13.0167 813.871 10.7003 811.56ZM207.965 1037.09C207.602 1035.98 207.318 1034.88 207.422 1034.51C207.424 1034.51 207.426 1034.5 207.428 1034.49C207.462 1034.38 207.536 1034.36 207.637 1034.42C207.868 1034.53 208.246 1035.06 208.555 1035.87C208.788 1036.47 209.152 1037.49 209.504 1038.91C212.346 1044.88 207.433 1068.99 228.738 1078.07C236.406 1081.99 245.878 1081.36 255.065 1079.72C255.321 1079.67 255.577 1079.63 255.832 1079.58C258.086 1079.16 260.224 1078.58 262.206 1077.97C271.546 1074.86 278.679 1071.02 295.389 1061.8C308.68 1054.39 321.686 1046.34 335.033 1038.78C341.691 1035.04 348.551 1031.3 355.666 1028.28C359.318 1026.77 363.012 1025.38 367.113 1024.73C369.055 1024.44 371.402 1024.3 373.643 1024.96C376.026 1025.59 378.15 1027.53 379.031 1029.83C383.282 1039.99 381.686 1051.21 378.621 1061C374.157 1075.32 365.929 1088.29 363.744 1102.26C362.461 1114.23 360.961 1126.07 361.921 1137.86C362.521 1146.56 365.886 1156.03 373.834 1159.09C375.936 1159.93 378.288 1159.96 380.331 1159.11C381.656 1158.57 382.975 1157.99 384.289 1157.39C397.178 1151.47 409.47 1143.97 423.024 1138.52C431.149 1135.21 439.242 1131.13 447.646 1127.69C451.201 1126.24 455.37 1124.6 460.124 1123.39C462.501 1122.81 465.06 1122.28 467.91 1122.41C469.345 1122.51 470.934 1122.76 472.457 1123.77C474.008 1124.76 474.97 1126.63 475.186 1128.23C475.834 1134.56 474.099 1139.68 474.763 1144.2C475.906 1153.42 475.919 1161.02 476.174 1164.27C476.252 1165.56 476.152 1166.57 475.893 1166.59C475.631 1166.62 475.306 1165.59 475.228 1164.29C474.975 1161.02 474.958 1153.46 473.827 1144.33C473.148 1139.57 474.882 1134.31 474.254 1128.38C474.056 1126.96 473.263 1125.43 471.961 1124.58C470.679 1123.71 469.253 1123.45 467.919 1123.36C465.272 1123.22 462.786 1123.72 460.465 1124.28C455.835 1125.45 451.702 1127.06 448.195 1128.49C439.756 1131.93 431.635 1136.03 423.371 1139.4C410.028 1144.76 397.833 1152.18 384.981 1158.12C383.557 1158.77 382.125 1159.4 380.682 1159.99C378.412 1160.94 375.782 1160.9 373.471 1159.97C364.986 1156.69 361.541 1146.78 360.894 1137.94C359.877 1126.03 361.331 1114.08 362.536 1102.14C364.738 1087.63 372.893 1074.71 377.176 1060.56C380.131 1050.9 381.529 1040.07 377.441 1030.49C375.945 1026.41 370.998 1025.83 367.373 1026.51C363.551 1027.14 359.939 1028.5 356.369 1030.01C349.395 1033.02 342.578 1036.78 335.962 1040.54C322.682 1048.13 309.675 1056.23 296.317 1063.68C279.665 1072.85 272.252 1075.57 262.897 1078.74C260.756 1079.42 258.475 1080.06 255.992 1080.52C255.862 1080.54 255.733 1080.56 255.603 1080.59C246.231 1082.29 236.335 1083.03 228.301 1078.92C218.671 1074.75 212.707 1065.81 211.361 1057.89C209.789 1050.01 209.702 1043.76 208.805 1040.2C208.495 1038.76 208.174 1037.72 207.965 1037.09ZM170.91 990.307C166.086 985.258 160.857 978.592 156.385 970.982C151.233 962.391 147.524 952.213 146.36 942.421C145.204 933.402 146.022 924.962 146.787 918.385C147.24 914.449 147.698 911.113 147.845 908.16C148.125 903.205 148.979 899.287 149.82 895.421C149.835 895.354 149.85 895.287 149.865 895.219C151.212 888.938 153.182 882.792 154.647 872.489C154.991 869.408 155.372 865.809 154.426 862.226C153.415 858.95 150.967 855.828 147.717 853.914C142.625 851.091 136.262 850.858 130.149 850.953C130.137 850.953 130.126 850.953 130.114 850.954C123.443 851.073 116.716 851.873 110.226 851.342C102.678 850.934 95.4927 848.454 90.6798 844.989C81.0628 838.171 74.8537 829.951 69.4534 822.906C63.8017 815.556 54.2251 817.647 48.023 818.283C40.8313 819.521 35.9375 823.226 32.0083 824.763C30.581 825.389 29.1195 825.972 27.6064 826.392C24.3616 827.288 20.7213 827.079 17.6745 825.531L17.7957 825.621C9.22942 816.472 0.376091 805.594 -12.2747 801.593C-12.2843 801.59 -12.3136 801.583 -12.3234 801.581C-15.5091 800.885 -17.6675 798.08 -19.7342 795.508C-21.0082 793.557 -18.0534 796.326 -15.3277 798.869C-15.2271 798.955 -15.1264 799.039 -15.0242 799.121C-14.1357 799.822 -13.3627 800.28 -12.1149 800.584C-12.0905 800.589 -12.0177 800.606 -11.9938 800.614C-11.8367 800.662 -11.6764 800.713 -11.5124 800.766C-8.90793 801.597 -7.06645 802.461 -5.43545 803.307C-2.11388 804.264 10.0017 814.898 18.4779 824.972L18.0959 824.689C21.0798 826.242 24.6318 826.27 27.3293 825.498C29.315 824.935 31.0427 824.146 32.427 823.518C36.0532 822.051 40.4896 818.482 47.8264 817.008C53.8481 816.335 63.9513 813.389 70.9074 821.789C76.3511 828.655 82.6379 836.759 91.9396 843.316C96.5245 846.574 102.925 849.168 110.385 849.907C116.497 850.667 123.133 850.153 129.796 850.012C129.836 850.011 129.876 850.01 129.916 850.009C136.113 849.913 142.701 850.065 148.187 853.091C151.693 855.179 154.209 858.368 155.337 861.971C156.343 865.817 155.932 869.445 155.588 872.588C154.044 883.385 151.975 889.768 150.645 896.116C150.632 896.177 150.618 896.238 150.605 896.3C149.809 900.009 149.046 903.685 148.792 908.188C148.641 911.193 148.182 914.529 147.727 918.476C146.944 925.181 146.15 933.639 147.335 942.579C148.519 952.184 152.162 962.093 157.196 970.498C161.598 977.985 166.709 984.52 171.454 989.505C172.364 990.469 172.989 991.403 172.848 991.632C172.699 991.853 171.827 991.273 170.91 990.307ZM166.397 994.102C160.524 988.138 155.305 981.39 150.929 974.239C137.484 954.859 138.075 926.559 141.155 907.962C142.034 894.177 146.161 882.9 147.848 872.04C148.233 869.214 148.407 865.715 147.929 864.047C147.76 863.01 145.791 860.36 144.432 859.659C141.431 857.828 135.914 857.239 130.071 857.301C129.913 857.301 129.754 857.302 129.595 857.303C123.36 857.331 116.681 857.925 109.582 857.151C101.538 856.542 92.663 853.21 87.4393 849.326C76.9109 841.768 70.6746 833.428 65.0774 826.268C62.5856 822.347 55.3295 822.99 48.8987 823.962C44.0442 824.703 38.6454 828.395 34.3068 830.193C32.6214 830.931 30.9707 831.557 29.3459 832.005C22.4638 833.707 18.3849 832.246 15.082 830.709C14.7295 830.541 13.8737 829.89 13.5994 829.612C12.7937 828.75 12.0426 827.946 11.2315 827.074C11.1481 826.984 11.0652 826.894 10.9824 826.805C10.9763 826.799 10.9703 826.794 10.9642 826.788C10.8508 826.684 10.758 826.595 10.7106 826.548C10.614 826.453 10.5374 826.374 10.5087 826.345C10.4424 826.276 10.3879 826.218 10.3684 826.197C10.2887 826.112 10.1989 826.015 10.1413 825.953C9.60217 825.366 7.94482 823.534 6.6494 822.119C5.32037 820.666 4.38686 819.645 3.39402 818.59C3.29359 818.483 3.19305 818.377 3.09242 818.271C2.19444 817.329 1.21399 816.314 -0.251343 814.963C-1.14425 814.143 -1.66098 813.428 -1.38335 813.319C-1.10578 813.211 -0.128968 813.772 0.773357 814.615C2.33046 816.073 3.37852 817.176 4.28543 818.14C4.38585 818.247 4.4862 818.355 4.58632 818.463C5.54112 819.491 6.37173 820.406 7.5549 821.703C9.28364 823.57 10.5831 824.986 11.7878 826.282C12.6295 827.187 13.4227 828.038 14.2849 828.96C14.5107 829.189 15.2153 829.724 15.5055 829.863C18.6843 831.365 22.7063 832.682 29.062 831.089C30.9332 830.573 32.8389 829.814 34.8217 828.907C38.7177 827.235 43.7437 823.822 48.7545 823.027C55.0502 822.125 62.7456 821.155 65.8269 825.692C71.3563 832.767 77.5612 841.067 87.9605 848.537C93.1148 852.359 101.701 855.597 109.686 856.212C116.656 856.975 123.319 856.388 129.593 856.358C129.757 856.357 129.921 856.356 130.085 856.355C135.968 856.302 141.606 856.855 144.901 858.839C146.526 859.719 148.556 862.44 148.839 863.792C149.382 865.749 149.169 869.272 148.787 872.145C147.335 883.267 143.48 894.702 142.838 908.012C140.095 927.27 139.592 953.965 152.37 973.379C156.496 980.429 161.382 987.166 166.933 993.291C172.464 999.177 177.902 1003.84 182.48 1008.15C192.954 1017.7 198.812 1026.73 203.29 1036.33C204.274 1038.35 204.849 1041.03 205.26 1043.97C206.131 1046.66 204.504 1054.79 209.844 1067.85C211.575 1071.54 214.358 1075.3 218.006 1078.33C220.382 1080.32 223.077 1082.03 225.966 1083.48C234.282 1087.96 245.125 1087.85 254.82 1086.16C255.538 1086.04 256.211 1085.92 256.893 1085.8C258.949 1085.42 260.989 1084.91 262.738 1084.39C272.985 1081.18 280.455 1077.81 297.549 1068.48C318.206 1057.67 352.99 1032.99 370.316 1031.45C371.346 1031.47 371.949 1031.7 372.127 1031.84C372.311 1031.98 372.39 1032.05 372.589 1032.53C374.33 1036.93 374.495 1040.22 374.545 1042.77C374.553 1043.8 374.514 1044.71 374.456 1045.55C374.294 1047.74 374.042 1049.47 373.603 1051.73C373.11 1054.22 372.475 1056.59 371.755 1058.9C367.847 1072 360.795 1081.39 357.031 1101.23C357.019 1101.35 357.006 1101.47 356.993 1101.59C356.861 1102.74 356.57 1103.69 356.322 1103.75C356.052 1103.82 355.934 1102.83 356.048 1101.55C356.049 1101.53 356.051 1101.51 356.052 1101.49C359.763 1081.1 366.946 1071.79 370.851 1058.62C371.573 1056.31 372.207 1053.94 372.693 1051.46C373.141 1049.13 373.392 1047.33 373.533 1045.15C373.582 1044.35 373.609 1043.49 373.596 1042.55C373.531 1040.13 373.355 1037.04 371.716 1032.89C371.57 1032.55 371.627 1032.68 371.635 1032.65C371.645 1032.62 371.19 1032.4 370.243 1032.39C353.712 1033.85 318.614 1058.47 298.06 1069.28C281.102 1078.54 273.723 1081.88 263.447 1085.17C261.53 1085.75 259.344 1086.31 257.053 1086.73C256.496 1086.83 255.955 1086.93 255.375 1087.03C245.487 1088.79 234.202 1089 225.533 1084.32C222.709 1082.91 220.063 1081.24 217.702 1079.31C213.949 1076.26 211.009 1072.42 209.183 1068.66C203.45 1054.96 205.242 1047.36 204.425 1045.03C204.011 1041.74 203.433 1038.77 202.417 1036.71C197.909 1027.01 191.991 1018.07 181.658 1008.68C177.139 1004.44 171.796 999.829 166.397 994.102ZM386.386 1164.41C385.141 1164.97 383.953 1165.23 383.762 1165.03C383.576 1164.82 384.447 1164.23 385.689 1163.68C392.228 1160.74 396.631 1158.36 400.112 1156.56C406.52 1153.2 409.566 1151.57 414.203 1149.32C417.947 1147.51 421.661 1145.81 425.329 1144.37C433.988 1140.86 441.623 1137.02 448.937 1134C453.895 1131.93 458.67 1130.13 462.911 1129.18C464.986 1128.71 467.057 1128.5 468.254 1128.7C468.857 1128.8 469.074 1128.97 469.03 1128.94C468.984 1128.91 469.022 1128.85 469.096 1129.25C469.554 1133.5 468.162 1139.48 468.624 1143.76C468.659 1144.22 468.69 1144.66 468.712 1145.05C468.736 1145.81 468.636 1146.34 468.451 1146.35C468.268 1146.37 468.051 1145.88 467.877 1145.17C467.785 1144.75 467.715 1144.27 467.678 1143.78C467.226 1139.39 468.599 1133.21 468.164 1129.4C468.113 1129.15 468.155 1129.44 468.39 1129.64C468.62 1129.84 468.605 1129.71 468.126 1129.64C467.183 1129.46 465.193 1129.63 463.199 1130.08C459.104 1130.99 454.386 1132.76 449.484 1134.79C442.153 1137.82 434.494 1141.67 425.675 1145.25C422.062 1146.67 418.386 1148.35 414.671 1150.14C410.188 1152.32 407.317 1153.84 401.053 1157.13C397.572 1158.94 393.129 1161.35 386.386 1164.41Z" fill="#16685E"/>
<path d="M-4.49273 345.312C-1.19075 345.251 2.70261 346.442 9.20107 345.695C12.6015 345.512 16.9887 341.559 17.5899 338.434C18.5028 335.342 18.2933 333.109 18.1503 331.119C18.1394 330.997 18.1276 330.876 18.1151 330.755C17.7236 327.203 16.9509 324.106 15.8677 320.45C15.7242 319.974 15.5861 319.523 15.4339 319.041C14.0904 314.787 12.2216 309.785 9.50956 303.208C7.2151 297.619 4.8816 292.38 3.18844 287.901C-2.79908 272.783 -8.67641 263.166 -10.5387 259.299C-12.895 254.783 -15.2396 250.122 -17.2477 245.107C-17.6093 244.218 -17.6391 243.265 -17.197 242.149C-16.0148 239.253 -13.464 236.786 -8.98001 235.16C-7.84709 234.749 -6.60672 234.402 -5.28719 234.123C-4.21445 233.896 -3.26163 233.975 -3.19982 234.228C-3.1388 234.484 -3.96932 234.814 -5.00858 235.03C-6.26632 235.292 -7.44013 235.617 -8.51036 235.997C-8.51522 235.998 -8.5201 236 -8.52496 236.002C-12.9481 237.585 -15.2395 239.877 -16.324 242.515C-16.6742 243.421 -16.6378 244.094 -16.3653 244.763C-14.4467 249.553 -12.2199 254.005 -9.96897 258.33C-8.08528 262.266 -2.09748 272.024 4.07029 287.56C5.7962 292.125 8.21972 297.549 10.5876 303.331C13.3293 309.995 15.221 315.1 16.5586 319.436C16.701 319.898 16.8481 320.386 16.9803 320.839C16.9834 320.849 16.9865 320.86 16.9896 320.871C18.0583 324.586 18.7935 327.702 19.1142 331.238C19.1206 331.312 19.1268 331.386 19.1326 331.46C19.247 333.517 19.435 335.844 18.3539 339.12C17.5486 342.508 12.802 346.423 9.34956 346.622C2.43656 347.395 -1.36169 346.175 -4.54238 346.256C-5.56337 346.234 -6.23912 346.087 -6.2602 345.826C-6.27745 345.566 -5.56443 345.288 -4.49273 345.312ZM108.365 77.6508C114.653 74.4449 122.786 69.5635 129.088 64.1295C135.482 58.7045 140.533 53.2791 143.033 50.9367C145.452 48.6062 148.03 45.9546 151.21 42.9947C151.935 42.3206 152.711 41.6153 153.503 40.916C156.144 38.5842 159.19 36.1267 162.743 33.7028C165.52 31.8093 168.165 30.1881 170.711 28.7341C179.912 23.5114 187.115 21.4626 192.616 20.3165C194.057 20.0232 195.41 19.7963 196.685 19.618C196.687 19.6177 196.69 19.6174 196.692 19.6172C201.497 18.9605 205.161 18.9134 208.519 19.11C214.536 19.4857 219.368 20.3863 225.654 21.4203C227.174 21.6606 228.84 21.885 230.693 22.0046C237.715 22.5091 246.887 24.6736 253.365 25.7626C253.798 25.8374 254.239 25.9126 254.686 25.9886C260.234 26.557 266.078 29.1628 277.918 27.0716C278.791 26.8187 279.606 26.4903 280.384 26.1103C284.064 24.2236 286.738 21.7753 288.764 18.4078C291.826 12.8834 292.222 7.57428 292.518 3.05298C292.625 0.998286 292.645 -0.927819 292.641 -2.75175C292.619 -7.35114 292.466 -11.3325 292.498 -14.9596C292.514 -16.9645 292.6 -18.8545 292.798 -20.5932C294.516 -39.1165 306.272 -45.7226 311.418 -50.716C315.382 -53.916 318.134 -55.7526 320.198 -57.1194C320.889 -57.591 321.492 -58.0649 322.032 -58.5393C322.855 -59.2634 323.532 -59.9862 324.11 -60.7094C329.345 -67.5916 328.664 -75.1225 328.022 -81.7743C327.939 -82.5377 327.849 -83.3009 327.76 -84.0594C327.633 -85.0701 327.438 -86.0629 327.194 -87.0314C325.381 -93.4825 323.011 -96.7318 321.637 -99.3786C321.005 -100.507 320.483 -101.454 320.044 -102.315C320.036 -102.331 320.028 -102.347 320.02 -102.363C319.959 -102.483 319.9 -102.602 319.842 -102.719C319.799 -102.806 319.755 -102.894 319.713 -102.981C319.693 -103.014 319.677 -103.044 319.664 -103.067C319.654 -103.084 319.647 -103.098 319.642 -103.107C319.641 -103.108 319.64 -103.11 319.638 -103.112C319.55 -103.271 319.484 -103.411 319.47 -103.44C319.447 -103.49 319.427 -103.534 319.417 -103.557C319.363 -103.677 319.299 -103.829 319.258 -103.932C319.159 -104.18 318.989 -104.606 318.802 -105.208C318.794 -105.232 318.787 -105.256 318.78 -105.281C318.629 -105.753 318.504 -106.22 318.411 -106.821C318.406 -106.859 318.4 -106.897 318.395 -106.935C318.315 -107.521 318.271 -108.229 318.374 -109.079C318.466 -109.863 318.883 -110.435 319.154 -110.417C319.43 -110.399 319.469 -109.919 319.361 -109.256C319.249 -108.562 319.254 -107.97 319.3 -107.444C319.303 -107.41 319.307 -107.377 319.31 -107.344C319.367 -106.794 319.473 -106.28 319.628 -105.751C319.655 -105.662 319.682 -105.572 319.711 -105.483C319.747 -105.374 319.783 -105.264 319.821 -105.155C319.963 -104.763 320.154 -104.297 320.43 -103.709C320.485 -103.592 320.543 -103.469 320.604 -103.341C321 -102.526 321.531 -101.53 322.199 -100.328C323.662 -97.4229 326.399 -93.9155 328.305 -86.4727C328.469 -85.7325 328.605 -84.9715 328.702 -84.1981C328.81 -83.2793 328.92 -82.345 329.02 -81.3993C329.642 -74.7283 330.369 -65.8964 323.667 -58.7262C322.789 -57.8238 321.864 -57.0577 320.841 -56.3546C320.827 -56.345 320.813 -56.3354 320.799 -56.3258C318.651 -54.9063 316.09 -53.2799 311.57 -49.6111C306.711 -44.8156 295.411 -38.5269 293.738 -20.4824C293.552 -18.8514 293.466 -17.0695 293.446 -15.1641C293.403 -11.4063 293.574 -7.1646 293.586 -2.45055C293.588 -0.649293 293.563 1.22778 293.459 3.18431C293.15 7.77866 292.748 13.1699 289.583 18.8837C287.56 22.2617 284.971 24.656 281.475 26.62C280.45 27.1722 279.367 27.6443 278.169 27.9917C266.439 30.1253 260.976 27.6556 255.512 27.1092C255.314 27.0763 255.116 27.0433 254.918 27.0101C254.672 26.9685 254.427 26.9267 254.188 26.8858C247.447 25.7722 237.998 23.4869 230.658 22.9566C228.32 22.8098 226.244 22.5063 224.361 22.1954C218.396 21.1812 213.791 20.3644 207.893 20.0281C204.997 19.8847 201.911 19.8998 197.256 20.4961C195.958 20.6684 194.527 20.8965 192.957 21.212C187.469 22.341 180.315 24.3704 171.19 29.55C168.59 31.0354 165.882 32.6983 163.043 34.6458C159.644 36.9799 156.758 39.3068 154.153 41.6036C153.351 42.3108 152.555 43.0347 151.798 43.7384C148.622 46.693 145.775 49.6304 142.978 52.3398C140.656 54.5232 135.731 59.78 129.423 65.0857C123.108 70.4673 115.454 75.0152 109.938 77.9256C109.348 78.2422 108.782 78.5398 108.201 78.8379C107.583 79.1552 106.952 79.4713 106.308 79.7853C100.998 82.2718 95.7766 82.6398 91.8776 83.3316C81.4654 85.1164 70.9431 86.9444 65.6402 98.497C62.0647 104.919 62.5182 113.524 63.7796 122.045C64.3782 126.032 65.5881 130.022 66.919 133.691C67.0189 133.966 67.1206 134.242 67.2243 134.519C77.1118 158.974 88.7103 175.982 91.8641 181.921C92.0253 182.196 92.1706 182.443 92.3042 182.67C92.4229 182.872 92.5305 183.054 92.625 183.215C94.0409 185.626 95.3135 187.731 96.6535 189.962C96.7263 190.083 96.7991 190.204 96.8718 190.325C98.2774 192.667 99.7505 195.135 101.452 198.135C107.699 209.252 112.734 218.401 115.855 227.92C116.416 229.708 116.884 231.444 117.228 233.48C117.229 233.486 117.23 233.492 117.231 233.498C117.625 235.971 117.913 239.037 116.925 242.418C115.996 246.027 112.659 249.508 109.412 250.693C106.765 251.792 104.058 252.555 101.398 253.018C88.8544 254.852 81.2024 252.137 75.497 250.658C75.3286 250.608 75.1609 250.558 74.994 250.507C73.3831 250.02 71.9277 249.53 70.5634 249.048C67.3207 247.899 64.5994 246.812 61.8453 245.665C56.6754 243.504 52.0553 241.515 47.5806 239.81C47.1854 239.66 46.7826 239.507 46.3897 239.362C42.3077 237.854 38.1453 236.512 34.7356 236.15C33.9116 236.065 33.0833 235.975 32.2561 235.882C30.9323 235.733 29.8733 235.396 29.8748 235.134C29.8791 234.871 30.9421 234.782 32.2621 234.93C33.1205 235.027 33.9807 235.121 34.8361 235.209C38.2789 235.577 42.3093 236.858 46.3783 238.347C46.7764 238.493 47.1778 238.642 47.5845 238.796C52.067 240.491 56.7744 242.517 62.0234 244.715C64.6697 245.818 67.2234 246.842 70.3678 247.973C71.8401 248.499 73.4416 249.046 75.2784 249.603C75.3154 249.614 75.3525 249.625 75.3896 249.637C81.1165 251.153 88.7589 253.877 101.124 252.105C103.754 251.656 106.43 250.907 109.052 249.818C112.01 248.723 115.022 245.668 115.95 242.37C116.922 239.262 116.704 236.336 116.346 233.953C116.024 231.927 115.584 230.251 115.021 228.425C111.974 218.999 106.936 209.829 100.666 198.666C99.0549 195.825 97.6734 193.507 96.2673 191.162C96.189 191.031 96.1106 190.901 96.0322 190.77C94.7084 188.565 93.3605 186.336 91.8665 183.792C91.667 183.452 91.4096 183.013 91.1061 182.496C87.9471 176.536 76.3015 159.506 66.315 134.786C66.2866 134.71 66.2583 134.633 66.2302 134.557C64.4875 129.854 63.3389 125.712 62.7902 122.207C61.2351 112.433 61.5654 106.339 62.762 102.009C63.1763 100.474 63.727 99.105 64.3552 97.8264C65.7699 94.9575 67.2522 92.8963 68.6819 91.328C69.0844 90.8873 69.4666 90.5011 69.8566 90.1346C71.52 88.5847 72.9992 87.6301 74.5713 86.7726C79.3935 84.2578 83.8555 83.6103 89.5716 82.6265C94.1906 81.8052 100.418 81.5059 105.921 78.8847C106.16 78.7678 106.397 78.6512 106.63 78.5351C106.638 78.5314 106.645 78.5277 106.653 78.524C107.245 78.2294 107.817 77.9378 108.365 77.6508ZM328.453 -120.41C329.429 -121.373 330.354 -122.033 330.535 -121.844C330.714 -121.655 330.071 -120.678 329.085 -119.706C326.739 -117.389 324.356 -115.222 322.026 -113.112C321.048 -112.227 320.133 -111.682 319.964 -111.881C319.798 -112.083 320.445 -112.956 321.423 -113.841C323.753 -115.951 326.126 -118.109 328.453 -120.41ZM101.569 75.2946C102.68 74.9392 103.779 74.6629 104.149 74.7698C104.156 74.7716 104.163 74.7735 104.169 74.7756C104.279 74.811 104.299 74.8846 104.242 74.9856C104.125 75.2153 103.594 75.5898 102.787 75.8935C102.18 76.1223 101.16 76.4786 99.7385 76.8218C93.7474 79.622 69.6758 74.5431 60.4428 95.7846C56.4721 103.426 57.0418 112.902 58.6157 122.099C58.6592 122.356 58.7036 122.612 58.7489 122.868C59.1507 125.124 59.7137 127.267 60.3197 129.253C63.3612 138.614 67.1541 145.773 76.2557 162.547C83.5742 175.888 91.5366 188.95 98.9976 202.348C102.694 209.032 106.39 215.917 109.356 223.053C110.846 226.716 112.205 230.419 112.828 234.524C113.103 236.469 113.233 238.816 112.559 241.053C111.904 243.432 109.955 245.542 107.65 246.407C97.4626 250.588 86.2457 248.915 76.4796 245.782C62.1938 241.219 49.2763 232.902 35.3262 230.62C23.3643 229.255 11.5371 227.674 -0.264725 228.553C-8.96859 229.092 -18.4613 232.392 -21.5703 240.319C-22.4294 242.415 -22.476 244.767 -21.6346 246.816C-21.1025 248.144 -20.5361 249.467 -19.9463 250.785C-14.1177 263.714 -6.7004 276.058 -1.34187 289.649C1.91274 297.797 5.93995 305.918 9.31873 314.345C10.7406 317.911 12.3519 322.091 13.5304 326.853C14.0902 329.234 14.6096 331.796 14.4549 334.645C14.3517 336.08 14.082 337.667 13.0652 339.183C12.0623 340.727 10.192 341.676 8.59031 341.88C2.25558 342.485 -2.85608 340.715 -7.38128 341.348C-16.61 342.427 -24.2028 342.388 -27.4564 342.62C-28.753 342.689 -29.7634 342.582 -29.7735 342.323C-29.8062 342.061 -28.7769 341.743 -27.4682 341.674C-24.201 341.444 -16.6395 341.479 -7.50647 340.411C-2.73858 339.765 2.5074 341.535 8.44095 340.948C9.86393 340.76 11.4014 339.977 12.2633 338.681C13.1369 337.405 13.4086 335.981 13.508 334.648C13.6669 332.001 13.1825 329.512 12.6392 327.187C11.5041 322.55 9.91658 318.405 8.5179 314.888C5.13591 306.427 1.08747 298.277 -2.22464 289.99C-7.49786 276.611 -14.8309 264.364 -20.6777 251.472C-21.3204 250.043 -21.9386 248.608 -22.5191 247.16C-23.4538 244.884 -23.3986 242.254 -22.4527 239.949C-19.1134 231.487 -9.17772 228.111 -0.333638 227.524C11.5824 226.59 23.5258 228.126 35.4551 229.413C49.9474 231.716 62.8108 239.96 76.9331 244.34C86.5709 247.361 97.3953 248.835 106.995 244.812C111.09 243.345 111.707 238.401 111.047 234.772C110.444 230.946 109.105 227.325 107.621 223.744C104.665 216.749 100.949 209.906 97.2369 203.265C89.7358 189.933 81.7244 176.87 74.3724 163.462C65.3123 146.746 62.6457 139.315 59.5387 129.939C58.8717 127.793 58.2556 125.507 57.8127 123.021C57.7898 122.891 57.7671 122.761 57.7446 122.632C56.1092 113.248 55.4302 103.348 59.5945 95.3419C63.8398 85.7411 72.8165 79.8382 80.7468 78.5475C88.6368 77.0293 94.8815 76.9855 98.4494 76.1133C99.8979 75.8137 100.941 75.4999 101.569 75.2946ZM148.606 38.5639C153.687 33.7739 160.39 28.5916 168.03 24.1718C176.657 19.0794 186.86 15.4404 196.66 14.3445C205.687 13.2507 214.12 14.1266 220.692 14.9367C224.624 15.4168 227.957 15.8981 230.909 16.0652C235.862 16.3792 239.774 17.2609 243.634 18.1286C243.701 18.1441 243.769 18.1595 243.836 18.175C250.108 19.5646 256.24 21.5771 266.533 23.1137C269.611 23.4786 273.207 23.8843 276.797 22.9628C280.08 21.9748 283.218 19.5478 285.155 16.3114C288.013 11.2391 288.29 4.87773 288.237 -1.23586C288.237 -1.24731 288.237 -1.25875 288.237 -1.2702C288.163 -7.94189 287.41 -14.6745 287.985 -21.1606C288.445 -28.7058 290.975 -35.8739 294.474 -40.6627C301.357 -50.2325 309.62 -56.3848 316.702 -61.7364C324.091 -67.3372 322.066 -76.928 321.473 -83.1344C320.284 -90.3344 316.613 -95.2537 315.103 -99.1934C314.487 -100.625 313.914 -102.09 313.504 -103.606C312.631 -106.857 312.865 -110.496 314.434 -113.532L314.344 -113.412C323.551 -121.915 334.49 -130.693 338.578 -143.316C338.581 -143.325 338.588 -143.354 338.591 -143.364C339.309 -146.545 342.128 -148.684 344.714 -150.733C346.674 -151.993 343.885 -149.058 341.324 -146.35C341.236 -146.25 341.152 -146.15 341.069 -146.048C340.362 -145.164 339.899 -144.394 339.587 -143.149C339.581 -143.124 339.563 -143.052 339.556 -143.028C339.506 -142.871 339.454 -142.711 339.4 -142.548C338.551 -139.949 337.675 -138.113 336.817 -136.488C335.838 -133.173 325.12 -121.131 314.988 -112.725L315.273 -113.105C313.699 -110.132 313.647 -106.58 314.4 -103.877C314.95 -101.888 315.727 -100.155 316.345 -98.7661C317.788 -95.1299 321.326 -90.6689 322.749 -83.3222C323.38 -77.296 326.257 -67.1726 317.809 -60.2747C310.905 -54.8785 302.758 -48.6477 296.137 -39.3915C292.848 -34.8291 290.21 -28.4471 289.419 -20.9916C288.617 -14.8851 289.085 -8.24619 289.181 -1.58243C289.181 -1.54224 289.182 -1.50205 289.182 -1.46189C289.236 4.73533 289.038 11.3226 285.975 16.7875C283.863 20.2788 280.656 22.773 277.046 23.8761C273.193 24.8557 269.568 24.419 266.428 24.0539C255.641 22.4356 249.273 20.322 242.934 18.9489C242.873 18.9348 242.812 18.9208 242.75 18.9068C239.046 18.0852 235.376 17.2974 230.875 17.0122C227.871 16.8409 224.538 16.358 220.595 15.8765C213.895 15.0469 205.443 14.1945 196.495 15.3178C186.881 16.4356 176.948 20.0102 168.509 24.9868C160.992 29.3367 154.421 34.402 149.403 39.1132C148.433 40.0165 147.495 40.6351 147.267 40.4917C147.047 40.3421 147.633 39.4736 148.606 38.5639ZM144.841 34.0242C150.846 28.1922 157.63 23.0206 164.811 18.6938C184.283 5.38283 212.578 6.16921 231.153 9.3765C244.932 10.3514 256.181 14.5558 267.028 16.3177C269.852 16.7215 273.35 16.9206 275.021 16.4536C276.059 16.292 278.723 14.3407 279.432 12.987C281.284 9.99819 281.911 4.48602 281.89 -1.35747C281.891 -1.51578 281.891 -1.67393 281.891 -1.83302C281.906 -8.06799 281.358 -14.7512 282.181 -21.8449C282.846 -29.8844 286.239 -38.7363 290.159 -43.933C297.789 -54.4091 306.172 -60.5877 313.37 -66.1354C317.309 -68.6001 316.715 -75.8605 315.788 -82.2979C315.08 -87.1574 311.425 -92.5815 309.658 -96.9324C308.931 -98.6228 308.317 -100.278 307.88 -101.906C306.226 -108.799 307.714 -112.868 309.274 -116.16C309.445 -116.512 310.102 -117.363 310.382 -117.635C311.249 -118.435 312.058 -119.181 312.936 -119.986C313.026 -120.068 313.117 -120.151 313.207 -120.233C313.212 -120.239 313.218 -120.245 313.223 -120.251C313.328 -120.364 313.418 -120.456 313.465 -120.503C313.561 -120.599 313.64 -120.675 313.67 -120.703C313.739 -120.769 313.798 -120.823 313.819 -120.843C313.904 -120.922 314.002 -121.011 314.065 -121.068C314.655 -121.603 316.498 -123.248 317.923 -124.533C319.384 -125.852 320.412 -126.779 321.474 -127.764C321.581 -127.864 321.688 -127.964 321.795 -128.064C322.743 -128.955 323.764 -129.929 325.125 -131.385C325.952 -132.272 326.67 -132.784 326.778 -132.505C326.884 -132.227 326.316 -131.254 325.466 -130.358C323.998 -128.811 322.888 -127.77 321.917 -126.87C321.809 -126.77 321.701 -126.671 321.593 -126.571C320.558 -125.624 319.637 -124.799 318.332 -123.625C316.453 -121.909 315.028 -120.62 313.724 -119.424C312.813 -118.588 311.957 -117.801 311.029 -116.945C310.798 -116.721 310.258 -116.02 310.117 -115.731C308.593 -112.563 307.249 -108.55 308.798 -102.183C309.301 -100.308 310.047 -98.3977 310.94 -96.4086C312.585 -92.5012 315.964 -87.4518 316.724 -82.4356C317.582 -76.1338 318.5 -68.432 313.941 -65.382C306.828 -59.9015 298.486 -53.754 290.944 -43.4065C287.086 -38.2787 283.79 -29.7155 283.12 -21.7342C282.309 -14.7697 282.849 -8.1029 282.836 -1.82909C282.836 -1.66444 282.836 -1.50095 282.836 -1.33681C282.848 4.54612 282.256 10.1802 280.25 13.4619C279.359 15.0806 276.624 17.0922 275.269 17.3653C273.309 17.8947 269.787 17.6571 266.917 17.2559C255.805 15.7267 244.397 11.7933 231.092 11.0591C211.853 8.18372 185.163 7.49715 165.661 20.1409C158.583 24.2179 151.812 29.0577 145.648 34.5656C139.725 40.0564 135.022 45.4615 130.685 50.0095C121.061 60.4177 111.99 66.2137 102.365 70.6256C100.338 71.5957 97.654 72.1514 94.7032 72.5421C92.01 73.3954 83.8949 71.7124 70.7951 76.9621C67.0961 78.6672 63.3174 81.4245 60.2618 85.0508C58.2508 87.4138 56.5246 90.0962 55.0596 92.9753C50.5197 101.261 50.5518 112.104 52.1766 121.81C52.2901 122.529 52.4036 123.203 52.5241 123.886C52.8856 125.944 53.3882 127.988 53.8892 129.741C57.033 140.009 60.3445 147.502 69.5639 164.661C80.2263 185.392 104.669 220.345 106.09 237.681C106.063 238.711 105.823 239.312 105.686 239.489C105.542 239.673 105.469 239.75 104.995 239.946C100.581 241.657 97.2872 241.799 94.7344 241.832C93.7093 241.833 92.7958 241.787 91.96 241.724C89.7685 241.547 88.0455 241.282 85.7839 240.828C83.2998 240.318 80.9357 239.666 78.6337 238.931C65.559 234.932 56.2148 227.816 36.4047 223.915C36.2837 223.902 36.1643 223.888 36.0467 223.874C34.8944 223.734 33.9474 223.437 33.886 223.188C33.8174 222.918 34.8121 222.807 36.0929 222.93C36.111 222.931 36.129 222.933 36.147 222.935C56.5169 226.786 65.7747 234.033 78.9173 238.029C81.2251 238.766 83.5897 239.417 86.0668 239.92C88.3897 240.383 90.1886 240.647 92.3643 240.803C93.1707 240.858 94.0236 240.891 94.9667 240.884C97.3826 240.836 100.478 240.681 104.635 239.071C104.975 238.927 104.853 238.983 104.882 238.991C104.906 239.002 105.129 238.548 105.147 237.602C103.807 221.061 79.4223 185.794 68.762 165.166C59.6133 148.144 56.3244 140.742 53.1047 130.443C52.5442 128.524 51.9912 126.334 51.5878 124.039C51.4897 123.482 51.3975 122.94 51.3037 122.359C49.61 112.459 49.4822 101.173 54.2187 92.5364C55.6515 89.7223 57.3307 87.0878 59.2836 84.7403C62.3541 81.0086 66.2161 78.095 69.9873 76.2956C83.7322 70.6567 91.3136 72.5006 93.6504 71.6997C96.9413 71.3092 99.9163 70.7516 101.988 69.7494C111.717 65.3087 120.697 59.4529 130.163 49.1842C134.434 44.6944 139.078 39.3838 144.841 34.0242ZM-26.9782 252.833C-27.5271 251.585 -27.7869 250.395 -27.5818 250.205C-27.3745 250.02 -26.7888 250.896 -26.2459 252.141C-23.3507 258.701 -20.9972 263.12 -19.2207 266.614C-15.9037 273.045 -14.2964 276.102 -12.0799 280.754C-10.2975 284.51 -8.62514 288.236 -7.20935 291.913C-3.7534 300.596 0.0258692 308.259 2.99936 315.593C5.03167 320.565 6.7988 325.352 7.72269 329.6C8.17775 331.678 8.3772 333.75 8.16294 334.946C8.06568 335.548 7.89005 335.764 7.91708 335.721C7.94721 335.674 8.00662 335.713 7.61415 335.784C3.35859 336.213 -2.61547 334.779 -6.8971 335.212C-7.35401 335.244 -7.79386 335.271 -8.19085 335.291C-8.94581 335.309 -9.47549 335.206 -9.48829 335.021C-9.5005 334.838 -9.01471 334.625 -8.30263 334.455C-7.88045 334.366 -7.4029 334.299 -6.90789 334.266C-2.51403 333.844 3.65086 335.26 7.46476 334.851C7.71403 334.801 7.42952 334.842 7.22702 335.075C7.0273 335.304 7.14832 335.29 7.22755 334.811C7.4132 333.87 7.25427 331.878 6.81692 329.882C5.93714 325.78 4.20515 321.05 2.2003 316.135C-0.770845 308.783 -4.56844 301.098 -8.09154 292.254C-9.48639 288.631 -11.1399 284.943 -12.9077 281.216C-15.0499 276.718 -16.5589 273.837 -19.8045 267.551C-21.5819 264.057 -23.97 259.598 -26.9782 252.833Z" fill="#16685E"/>
<path d="M462.985 -12.8959C465.689 -12.8383 469.032 -12.2344 471.575 -10.7735C471.611 -10.7537 471.646 -10.7337 471.682 -10.7137C472.714 -10.1293 473.746 -9.43681 474.991 -8.4955C475.149 -8.37532 475.312 -8.25036 475.478 -8.12144C476.964 -6.97402 478.747 -5.4414 481.435 -3.13281C485.42 0.280074 489.985 3.76188 495.223 5.38574C500.23 6.95353 504.08 7.60763 505.802 7.88342C511.949 8.84869 518.782 9.65069 527.772 9.23415C528.587 9.19672 529.426 9.15033 530.277 9.09363C530.964 9.04787 531.548 9.21453 531.584 9.47367C531.619 9.73274 531.088 9.98625 530.395 10.0327C529.557 10.0889 528.728 10.1364 527.927 10.174C527.923 10.1742 527.92 10.1744 527.916 10.1745C518.793 10.6021 512.023 9.80172 505.952 8.87219C504.15 8.58874 500.155 7.92298 494.937 6.28722C489.387 4.55845 484.692 0.905258 480.648 -2.55575C477.945 -4.87957 476.173 -6.39057 474.709 -7.51026C474.55 -7.6327 474.395 -7.75071 474.244 -7.8637C474.241 -7.8664 474.237 -7.86909 474.234 -7.87179C473.011 -8.78712 472.053 -9.41845 471.099 -9.95309C471.079 -9.96423 471.058 -9.97534 471.038 -9.98641C468.554 -11.3984 465.443 -11.8955 462.947 -11.9518C462.457 -11.9703 462.078 -12.1761 462.072 -12.4374C462.073 -12.6978 462.467 -12.9153 462.985 -12.8959ZM670.147 75.2412C671.297 75.0307 672.552 74.7467 673.877 74.2493C676.926 73.1073 679.863 71.207 682.269 69.298C685.68 66.5886 688.336 63.8658 689.635 62.6451C690.895 61.441 692.157 60.0029 693.605 58.2901C693.938 57.8978 694.28 57.4904 694.633 57.0722C695.801 55.6914 697.09 54.1694 698.562 52.6175C700.095 51.0012 701.5 49.6285 702.789 48.5078C706.258 45.4448 708.751 43.7054 710.857 42.5273C711.457 42.1896 712.023 41.8956 712.57 41.6305C712.571 41.6301 712.572 41.6297 712.573 41.6293C714.612 40.6498 716.269 40.0938 717.834 39.7609C720.62 39.1893 723.028 38.9447 725.918 38.9372C729.935 38.9032 735.686 38.7234 739.564 38.5119C739.776 38.4991 739.983 38.4856 740.2 38.4731C742.184 38.3623 744.465 38.2636 747.519 38.2906C749.164 38.3275 751.022 38.1636 752.981 37.5942C758.623 35.8807 761.867 32.2929 764.275 29.4978C764.966 28.6704 765.584 27.8722 766.151 27.104C767.385 25.4296 768.392 23.9008 769.285 22.4915C769.46 22.2145 769.626 21.9357 769.782 21.659C774.942 10.1516 774.436 4.01335 776.478 0.988861C776.639 0.686605 776.809 0.411519 776.981 0.160889C778.33 -1.73709 779.571 -2.27333 780.33 -2.60206C780.568 -2.69798 780.777 -2.76824 780.968 -2.83243C781.276 -2.93544 781.571 -3.01559 781.852 -3.07405L780.084 -2.69137C782.404 -2.54928 784.695 -2.4683 787.409 -2.39684C788.144 -2.3777 788.913 -2.35937 789.722 -2.34267C792.427 -2.28603 794.489 -2.44089 796.105 -2.63767C796.814 -2.72374 797.437 -2.81647 798.028 -2.90992C798.038 -2.91178 798.049 -2.91364 798.06 -2.9155C798.142 -2.92856 798.224 -2.94121 798.305 -2.95425C798.366 -2.96409 798.427 -2.97497 798.488 -2.98487C798.512 -2.99208 798.533 -2.9974 798.549 -3.00179C798.562 -3.00526 798.572 -3.00783 798.578 -3.00949C798.579 -3.01001 798.58 -3.01052 798.582 -3.01104C798.696 -3.04132 798.796 -3.0593 798.816 -3.06302C798.852 -3.06955 798.884 -3.07418 798.9 -3.07678C798.986 -3.09049 799.096 -3.10524 799.17 -3.11483C799.36 -3.13958 799.688 -3.18039 800.199 -3.24828C800.643 -3.31753 801.067 -3.3967 801.601 -3.50282C801.634 -3.50959 801.668 -3.51638 801.701 -3.5232C802.221 -3.62778 802.83 -3.75403 803.596 -3.91947C804.292 -4.06948 804.976 -4.01436 805.121 -3.77891C805.267 -3.54385 804.812 -3.21209 804.102 -3.05512C803.37 -2.89347 802.79 -2.76942 802.263 -2.66065C802.23 -2.65365 802.197 -2.64668 802.163 -2.63973C801.614 -2.52734 801.094 -2.42729 800.534 -2.33933C800.346 -2.30992 800.152 -2.28167 799.972 -2.25686C799.648 -2.20612 799.28 -2.14346 798.841 -2.07093C798.753 -2.05637 798.662 -2.04213 798.57 -2.02703C797.974 -1.93011 797.282 -1.82335 796.504 -1.72691C794.685 -1.50056 792.386 -1.33154 789.436 -1.39704C788.663 -1.41391 787.918 -1.43185 787.196 -1.45092C784.663 -1.51812 782.393 -1.59669 780.123 -1.72374L782.217 -2.17702C781.883 -2.11464 781.515 -2.01317 781.127 -1.87018C780.904 -1.78783 780.682 -1.7021 780.444 -1.59408C779.763 -1.26141 778.807 -0.804488 777.697 0.79696C777.578 0.975133 777.46 1.1678 777.346 1.37624C775.419 4.10651 775.98 9.87302 770.674 22.0015C770.491 22.3312 770.293 22.6664 770.082 22.9995C769.151 24.4659 768.087 26.079 766.823 27.785C766.255 28.5502 765.645 29.3358 764.979 30.1311C762.545 32.9509 759.3 36.5396 753.596 38.4034C751.379 39.0971 749.282 39.2893 747.456 39.2465C744.653 39.2261 742.575 39.3143 740.665 39.4134C740.57 39.4188 740.475 39.4243 740.381 39.43C740.264 39.4366 740.148 39.4434 740.033 39.4502C735.941 39.6644 729.853 39.8438 725.498 39.9059C722.746 39.9358 720.532 40.1654 717.813 40.7382C716.49 41.0303 715.109 41.4819 713.159 42.3985C712.612 42.6586 712.021 42.9591 711.378 43.3188C709.31 44.471 706.886 46.1532 703.427 49.2064C702.141 50.3235 700.725 51.7091 699.17 53.3524C697.759 54.8444 696.531 56.2922 695.372 57.6628C695.013 58.0888 694.658 58.5101 694.308 58.923C692.852 60.6443 691.444 62.2623 689.967 63.6637C688.744 64.803 686.137 67.4567 682.725 70.1452C680.193 72.142 677.169 74.03 674.187 75.1496C673.033 75.5848 671.97 75.8544 671.009 76.0654C670.626 76.1488 670.24 76.2202 669.854 76.2807C666.592 76.7678 663.267 76.6059 660.074 75.5923C660.007 75.5715 659.941 75.5505 659.876 75.5294C646.144 70.8251 638.342 53.6867 630.858 45.4228C630.765 45.3117 630.671 45.2014 630.578 45.0919C629.349 43.6515 628.147 42.3538 626.994 41.2514C618.706 32.6603 614.44 27.5969 612.254 25.7606C612.145 25.6589 612.046 25.5664 611.956 25.4833C611.876 25.4091 611.803 25.3423 611.738 25.2833C610.79 24.4117 609.912 23.6823 608.975 22.9394C608.925 22.8995 608.875 22.8596 608.824 22.8198C607.841 22.0462 606.79 21.2513 605.557 20.3324C600.957 16.916 596.789 14.7771 593.097 13.2198C592.408 12.9303 591.732 12.66 591.075 12.4104C591.073 12.4096 591.071 12.4089 591.069 12.4081C588.165 11.3067 585.508 10.5226 582.941 9.86273C581.005 9.36727 579.291 9.01951 577.753 8.75289C575.559 8.37369 573.832 8.15145 572.336 7.98846C571.555 7.90431 570.769 7.82959 570.076 7.77231C568.587 7.64957 567.218 7.56601 565.87 7.48564C563.299 7.33298 560.919 7.33162 558.596 7.40359C558.387 7.41006 558.175 7.41665 557.966 7.42434C555.442 7.51789 552.911 7.69709 550.215 7.89924C549.59 7.94603 549.056 7.77718 549.019 7.51819C548.987 7.25917 549.469 7.00673 550.097 6.95944C552.735 6.76118 555.22 6.58148 557.768 6.48283C557.98 6.47471 558.194 6.46663 558.409 6.45971C560.746 6.38342 563.203 6.382 565.839 6.53646C567.158 6.61429 568.453 6.69085 569.932 6.8095C570.639 6.86642 571.443 6.93999 572.287 7.03006C573.837 7.19653 575.641 7.4268 577.925 7.82207C579.474 8.09112 581.195 8.44066 583.133 8.93535C585.704 9.59487 588.362 10.3753 591.309 11.4873C591.982 11.7421 592.671 12.0149 593.381 12.3123C597.143 13.8926 601.398 16.0697 606.093 19.5525C607.275 20.432 608.284 21.1915 609.281 21.9718C609.336 22.0155 609.391 22.0592 609.447 22.103C610.385 22.844 611.328 23.6212 612.341 24.5526C612.477 24.6773 612.653 24.8407 612.862 25.0352C615.058 26.8758 619.455 32.0725 627.638 40.5598C628.829 41.6975 630.059 43.0265 631.311 44.4951C631.337 44.5255 631.363 44.556 631.388 44.5866C636.974 51.3335 639.918 55.8139 642.535 58.8021C644.578 61.198 646.095 63.0637 647.369 64.5916C647.613 64.8847 647.844 65.1596 648.064 65.42C649.033 66.5651 649.814 67.4482 650.682 68.3086C653.314 70.8634 655.507 72.6142 658.964 74.0691C659.438 74.2567 659.989 74.4711 660.527 74.6462C663.48 75.6205 666.425 75.711 669.042 75.4077C669.047 75.4072 669.052 75.4066 669.057 75.406C669.428 75.3605 669.792 75.3056 670.147 75.2412ZM813.572 -7.30084C814.267 -7.5686 814.906 -7.61364 815.005 -7.37207C815.104 -7.13068 814.609 -6.68731 813.895 -6.4126C812.196 -5.7584 810.479 -5.22249 808.766 -4.78195C808.047 -4.59674 807.421 -4.67162 807.367 -4.92647C807.314 -5.18232 807.842 -5.51943 808.547 -5.70135C810.229 -6.13443 811.911 -6.66033 813.572 -7.30084ZM667.265 70.5886C667.837 70.5764 668.403 70.7374 668.543 70.9902C668.681 71.2416 668.312 71.5076 667.7 71.5388C667.379 71.5542 666.847 71.5791 666.13 71.5515C665.168 71.5076 663.842 71.3949 662.348 70.8499C655.567 68.2999 647.314 57.7308 639.031 47.5849C638.161 46.5258 637.376 45.5958 636.612 44.7135C634.612 42.4279 632.66 40.5481 629.857 38.1766C627.907 36.537 625.831 34.4127 623.347 31.6576C611.671 17.7257 596.501 7.20496 578.62 4.04727C557.105 -1.32013 535.507 6.3575 512.777 4.08643C507.285 3.50029 501.961 2.31633 496.71 0.693063C489.962 -1.51833 485.231 -6.17114 480.24 -9.73532C476.443 -12.5715 470.842 -16.1462 465.105 -16.7964C459.374 -17.584 454.209 -15.9152 452.329 -15.2704C451.733 -15.0626 451.164 -15.0696 451.073 -15.3148C450.983 -15.5593 451.417 -15.9534 452.028 -16.1664C453.937 -16.8177 459.218 -18.5396 465.175 -17.7399C471.141 -17.0748 476.905 -13.4 480.717 -10.5582C485.78 -6.93713 490.519 -2.31646 496.996 -0.209221C502.148 1.38242 507.351 2.54267 512.725 3.12731C535.133 5.46522 556.935 -2.65315 578.909 2.47622C597.155 5.37586 613.209 16.2384 624.93 30.2906C627.418 33.0511 629.308 35.2209 631.021 36.9276C633.622 39.5684 635.203 41.6701 637.204 43.9489C637.976 44.8373 638.774 45.7796 639.654 46.8501C648.053 57.1825 656.557 67.8058 662.768 69.9731C663.887 70.3703 664.932 70.4999 665.729 70.5585C666.421 70.6065 666.944 70.5958 667.265 70.5886ZM690.09 54.6685C692.509 51.6956 695.454 47.9895 699.206 44.5838C702.542 41.537 706.482 38.5532 710.654 36.7506C714.888 34.8674 719.093 34.0042 722.409 33.4983C727.586 32.7523 730.869 32.8988 734.094 33.0363C734.128 33.038 734.163 33.0396 734.198 33.0413C737.413 33.213 740.659 33.4589 745.833 33.7758C746.453 33.8147 747.11 33.8559 747.806 33.9004C752.941 34.5444 758.675 30.4633 762.13 25.1321C762.133 25.1275 762.137 25.1229 762.14 25.1183C763.299 23.4655 764.329 21.7102 765.328 19.97C767.751 15.588 768.148 10.6317 769.077 6.88875C769.744 4.03042 770.447 1.28391 771.595 -1.19057C773.372 -4.97992 776.409 -7.57003 779.547 -8.74265C779.604 -8.76866 779.776 -8.80129 779.84 -8.80608C787.928 -8.79869 793.528 -8.58521 797.082 -8.64805C803.878 -8.68381 811.425 -10.4457 817.695 -14.392C817.702 -14.3959 817.72 -14.4093 817.726 -14.4137C820.504 -16.5008 824.263 -16.1767 827.617 -15.8415C828.755 -15.5733 826.814 -14.9122 824.805 -15.0426C824.734 -15.0455 824.658 -15.048 824.586 -15.0504C823.896 -15.0704 823.294 -15.0759 822.484 -15.0037C821.317 -14.8717 820.54 -14.6436 819.887 -14.3637C819.608 -14.2415 819.077 -14.0042 818.404 -13.5112C818.385 -13.4974 818.326 -13.4548 818.305 -13.4424C813.864 -10.0104 801.489 -7.38897 796.695 -7.68457C793.31 -7.63947 787.829 -7.42831 779.908 -7.1069L780.187 -7.16743C777.541 -6.06161 774.925 -3.70466 773.436 -0.368987C772.431 1.89284 771.77 4.54114 771.105 7.40119C770.185 11.0656 769.207 16.0507 766.306 20.5935C765.232 22.217 764.147 23.8974 762.994 25.5512C762.982 25.5678 762.971 25.5843 762.959 25.6009C759.513 30.9852 753.351 35.5573 747.744 34.8445C747.055 34.8003 746.403 34.7593 745.787 34.7206C740.444 34.3928 737.077 34.1436 733.845 33.9795C733.814 33.9779 733.782 33.9762 733.751 33.9746C730.587 33.846 727.472 33.7231 722.563 34.4304C719.228 34.9372 715.05 35.8106 710.918 37.6693C706.893 39.4306 703.121 42.2938 699.844 45.2819C696.201 48.5847 693.288 52.2336 690.887 55.187C690.474 55.699 689.961 55.998 689.741 55.8546C689.522 55.7109 689.678 55.1804 690.09 54.6685ZM685.636 50.8133C688.291 47.2516 691.094 43.4968 694.889 39.8561C708.327 25.0945 730.577 25.2415 746.009 26.9717C746.71 27.0148 747.457 27.0647 748.249 27.1222C750.686 27.4172 753.58 26.0322 757.049 21.328C757.093 21.2706 757.136 21.2128 757.18 21.1547C758.185 19.8007 759.178 18.2945 760.209 16.7085C761.962 14.1152 762.936 9.39537 763.825 5.58835C764.508 2.6965 765.234 -0.318435 766.626 -3.40836C768.998 -8.54864 772.929 -12.0876 777.446 -13.9058C777.876 -14.0984 779.148 -14.3401 779.617 -14.3756C787.982 -14.5139 793.317 -14.4762 796.666 -14.5229C801.739 -14.5752 803.039 -14.9468 804.979 -15.3818C805.032 -15.3943 805.084 -15.4069 805.136 -15.4195C805.14 -15.4211 805.143 -15.4228 805.146 -15.4244C805.209 -15.4526 805.263 -15.4733 805.29 -15.4834C805.347 -15.5041 805.393 -15.5184 805.411 -15.5237C805.451 -15.5361 805.485 -15.5451 805.497 -15.5484C805.547 -15.5619 805.603 -15.5765 805.64 -15.5856C805.981 -15.6681 807.043 -15.9327 807.867 -16.1665C808.713 -16.4038 809.311 -16.5735 809.937 -16.7631C810.001 -16.7823 810.064 -16.8017 810.127 -16.8213C810.689 -16.9972 811.297 -17.197 812.142 -17.5471C812.654 -17.76 813.114 -17.7398 813.177 -17.4794C813.238 -17.2194 812.863 -16.8142 812.329 -16.5965C811.407 -16.2217 810.737 -16.0082 810.153 -15.8307C810.088 -15.8112 810.023 -15.7919 809.958 -15.7728C809.338 -15.5907 808.792 -15.4391 808.022 -15.2255C806.91 -14.8975 806.069 -14.6755 805.292 -14.4836C803.245 -14.0192 801.7 -13.5948 796.312 -13.5629C793.096 -13.5312 787.885 -13.5678 779.655 -13.4312C779.254 -13.4009 778.169 -13.1947 777.802 -13.0303C773.549 -11.3242 769.767 -7.9581 767.489 -3.02326C766.15 -0.0555043 765.428 2.90485 764.748 5.79005C763.852 9.58804 762.908 14.3584 761.006 17.2163C759.972 18.8053 758.969 20.3294 757.942 21.7127C757.897 21.7739 757.851 21.8348 757.806 21.8953C754.31 26.6791 750.997 28.4166 748.187 28.065C747.401 28.0078 746.659 27.9583 745.964 27.9154C730.043 26.9703 709.329 27.4434 696.06 41.1381C692.335 44.4855 689.365 48.0108 686.434 51.3302C684.031 54.3188 681.914 56.9102 679.904 59.061C676.579 62.6519 673.554 64.9369 671.01 65.9095C669.61 66.509 667.045 66.6585 665.382 66.3833C665.165 66.3515 664.864 66.2808 664.586 66.1812C663.621 65.8573 661.4 64.3733 658.688 61.5292C657.611 60.4151 656.443 59.1071 655.195 57.634C652.129 54.0297 648.632 49.4001 644.403 44.1926C643.514 43.1018 642.699 42.1266 641.91 41.2049C639.69 38.648 637.79 36.4305 634.418 33.2802C632.92 31.917 631.161 30.0417 628.897 27.5296C621.582 18.2786 604.685 4.41183 593.647 1.10354C588.353 -0.907855 585.245 -1.65832 583.052 -2.23661C582.446 -2.39037 581.919 -2.51963 581.426 -2.63624C580.891 -2.76231 580.401 -2.87293 579.914 -2.97749C579.235 -3.12314 578.575 -3.25674 577.817 -3.39654C568.443 -5.04529 561.552 -5.3935 550.726 -4.51618C550.042 -4.45731 549.44 -4.61298 549.369 -4.86913C549.299 -5.12513 549.79 -5.38635 550.477 -5.44662C561.385 -6.34557 568.464 -6.00803 578.033 -4.31836C578.769 -4.18234 579.426 -4.04967 580.085 -3.90863C580.656 -3.78673 581.219 -3.65893 581.826 -3.51425C582.318 -3.39695 582.823 -3.27204 583.414 -3.12154C585.587 -2.54471 588.701 -1.79026 594.029 0.237109C605.176 3.57852 622.299 17.6511 629.577 26.8715C631.859 29.4035 633.603 31.2605 635.063 32.5878C638.407 35.7101 640.288 37.8956 642.498 40.4342C643.298 41.3662 644.121 42.3481 645.025 43.4546C649.282 48.6898 652.782 53.3255 655.829 56.9149C657.065 58.3784 658.218 59.6723 659.273 60.7689C662.185 63.8366 664.293 65.1137 664.998 65.3217C665.144 65.3666 665.302 65.4039 665.421 65.4219C666.819 65.6888 669.501 65.5698 670.702 65.0129C673.064 64.11 676.033 61.8666 679.29 58.332C681.247 56.2292 683.311 53.705 685.636 50.8133ZM514.101 -3.07315C514.699 -3.01389 515.215 -2.75803 515.231 -2.49418C515.252 -2.23017 514.748 -2.058 514.144 -2.11643C510.878 -2.43975 508.573 -2.84367 506.733 -3.19413C503.357 -3.86296 501.748 -4.29072 499.356 -5.02204C499.104 -5.10048 498.851 -5.18029 498.597 -5.26147C493.787 -6.82079 489.146 -11.0467 484.485 -14.4628C476.588 -20.8898 466.757 -23.4564 461.956 -23.0677C461.199 -23.0614 460.561 -23.2347 460.551 -23.4962C460.541 -23.7563 461.183 -24.0067 461.966 -24.0128C466.871 -24.4151 477.018 -21.7515 484.961 -15.2857C489.675 -11.8264 494.347 -7.61578 498.883 -6.16313C499.125 -6.08576 499.366 -6.00964 499.606 -5.93478C501.911 -5.22966 503.397 -4.83106 506.674 -4.17102C508.478 -3.82232 510.797 -3.40635 514.101 -3.07315Z" fill="#16685E"/>
<path d="M-57.1592 647.897C-56.6722 643.938 -56.6875 639.085 -56.4375 635.266C-56.4339 635.213 -56.4303 635.159 -56.4268 635.105C-56.3231 633.543 -56.2036 631.954 -56.0786 630.04C-56.0627 629.796 -56.0464 629.546 -56.0304 629.292C-55.8878 627.026 -55.7429 624.247 -55.6123 620.508C-55.5984 620.113 -55.5857 619.723 -55.5738 619.338C-55.2608 611.609 -54.1023 604.529 -53.7812 599.861C-53.6944 598.618 -53.5311 597.801 -53.4195 597.305C-52.5531 593.651 -50.0274 590.886 -42.2631 589.101C-41.5742 588.945 -40.8454 588.8 -40.0886 588.665C-39.4686 588.554 -38.9219 588.683 -38.8673 588.938C-38.8144 589.195 -39.2652 589.479 -39.8747 589.587C-40.6051 589.716 -41.303 589.855 -41.9642 590.003C-41.9672 590.004 -41.9702 590.004 -41.9732 590.005C-49.6409 591.786 -51.636 594.242 -52.4619 597.393C-52.5784 597.883 -52.7473 598.68 -52.8367 599.964C-53.1757 604.737 -54.3238 611.768 -54.6243 619.324C-54.6386 619.803 -54.6542 620.29 -54.6716 620.781C-54.8041 624.565 -54.9517 627.383 -55.0979 629.671C-55.1138 629.921 -55.13 630.166 -55.1457 630.403C-55.1461 630.409 -55.1465 630.414 -55.1469 630.42C-55.2752 632.354 -55.3931 633.882 -55.4942 635.385C-55.4961 635.417 -55.4981 635.449 -55.5 635.481C-55.7568 639.361 -55.7459 644.153 -56.2231 648.027C-56.3123 648.767 -56.6026 649.333 -56.8606 649.294C-57.1183 649.253 -57.2471 648.63 -57.1592 647.897ZM40.8101 504.532C39.7395 500.874 38.3692 496.054 36.7347 491.892C35.1258 487.699 33.3032 484.055 32.4506 482.342C31.6184 480.666 30.5279 478.902 29.1386 476.886C28.8193 476.422 28.4865 475.949 28.1373 475.46C26.9872 473.847 25.6767 472.091 24.267 470.173C19.3539 463.573 16.1587 459.395 14.0653 456.223C13.9216 456.008 13.781 455.8 13.6435 455.599C13.1627 454.893 12.6963 454.231 12.2606 453.626C12.2598 453.625 12.2591 453.624 12.2584 453.623C10.5999 451.324 9.29324 449.677 8.1582 448.099C6.13335 445.299 4.38888 443.082 2.34118 440.399C-0.495735 436.682 -5.09552 432.167 -8.15282 429.406C-8.32144 429.254 -8.49478 429.099 -8.67008 428.941C-10.1234 427.628 -11.7737 426.121 -13.7908 424.1C-14.9394 422.939 -16.2373 421.678 -17.7338 420.3C-21.318 417.007 -24.4936 414.326 -27.2326 411.961C-28.0189 411.284 -28.7636 410.641 -29.4754 410.026C-31.2711 408.474 -32.8508 407.094 -34.3377 405.82C-37.9313 402.751 -40.6845 400.026 -42.8423 397.599C-46.3821 393.597 -49.0113 390.671 -51.0153 388.574C-53.5431 385.923 -55.0193 384.437 -56.0804 383.364C-56.4025 383.042 -56.6932 382.756 -56.9691 382.499C-59.4526 380.194 -61.9775 378.342 -65.1204 376.346C-65.8216 375.903 -66.557 375.452 -67.3211 374.998C-67.9744 374.61 -68.5743 374.274 -69.164 373.961C-70.89 373.055 -72.0483 372.508 -72.4139 372.291C-72.6476 372.161 -72.721 372.134 -72.8455 372.049C-72.8479 372.048 -72.8502 372.046 -72.8525 372.045C-72.8692 372.033 -72.8864 372.019 -72.904 372.005C-72.9174 371.994 -72.9321 371.983 -72.9462 371.971C-72.9544 371.968 -72.9609 371.965 -72.9661 371.962C-72.9702 371.96 -72.9734 371.959 -72.9754 371.958C-72.9759 371.958 -72.9765 371.958 -72.977 371.958C-73.0141 371.939 -73.0407 371.914 -73.0463 371.909C-73.056 371.9 -73.0639 371.891 -73.0681 371.886C-73.0683 371.886 -73.0686 371.886 -73.0688 371.885C-73.076 371.883 -73.0873 371.87 -73.0966 371.858C-73.1203 371.826 -73.1727 371.757 -73.2894 371.535C-73.4026 371.337 -73.5289 371.111 -73.6886 370.78C-73.6989 370.758 -73.7092 370.737 -73.7195 370.715C-73.8739 370.388 -74.0587 369.955 -74.2648 369.37C-74.4551 368.829 -74.4099 368.244 -74.1763 368.109C-73.9441 367.967 -73.6169 368.324 -73.4389 368.845C-73.2507 369.396 -73.0917 369.782 -72.9414 370.12C-72.9319 370.141 -72.9225 370.161 -72.9131 370.182C-72.7601 370.517 -72.6109 370.805 -72.4864 371.028C-72.4434 371.106 -72.4066 371.169 -72.3756 371.22C-72.3241 371.295 -72.2679 371.351 -72.2638 371.319C-72.2527 371.329 -72.2418 371.339 -72.2313 371.348C-72.2152 371.361 -72.1998 371.374 -72.1852 371.384C-72.0808 371.455 -72.0717 371.411 -71.939 371.475C-71.7694 371.573 -70.5953 372.152 -68.7436 373.113C-68.051 373.479 -67.334 373.88 -66.5701 374.338C-65.8281 374.782 -65.1167 375.221 -64.4196 375.664C-61.2316 377.697 -58.489 379.716 -55.8403 382.22C-55.4763 382.565 -55.1411 382.902 -54.7818 383.27C-53.7301 384.358 -52.467 385.659 -50.1166 388.139C-48.1983 390.16 -45.6245 393.028 -42.1419 396.965C-40.0428 399.326 -37.3529 401.996 -33.8044 405.031C-32.2548 406.361 -30.5756 407.827 -28.7487 409.405C-28.0514 410.007 -27.3313 410.627 -26.5915 411.264C-23.8902 413.596 -20.7979 416.211 -17.2977 419.408C-15.6792 420.89 -14.291 422.235 -13.0748 423.462C-11.2479 425.286 -9.72738 426.681 -8.36169 427.918C-8.28565 427.987 -8.20967 428.055 -8.13374 428.123C-8.04026 428.207 -7.945 428.294 -7.85151 428.378C-4.61698 431.312 0.29243 436.096 3.44035 440.241C5.40434 442.83 7.07999 444.97 9.10562 447.785C10.0967 449.174 11.2318 450.594 12.8757 452.86C13.3373 453.498 13.8377 454.207 14.374 454.992C14.53 455.22 14.6896 455.457 14.8532 455.701C16.9555 458.887 20.1619 463.07 25.1113 469.722C26.48 471.586 27.7401 473.275 28.8922 474.889C29.251 475.392 29.598 475.886 29.9367 476.378C31.3438 478.42 32.5829 480.405 33.5439 482.373C34.335 483.987 36.1036 487.57 37.6802 491.711C39.2994 495.878 40.5807 500.415 41.5644 503.655C41.6675 503.989 41.7689 504.329 41.8681 504.671C41.869 504.674 41.87 504.677 41.8709 504.68C42.6967 507.465 43.5297 510.311 44.4242 512.56C49.2017 522.51 51.8413 541.813 51.3447 555.708C51.3382 555.89 51.3312 556.065 51.323 556.254C51.1678 559.737 50.791 563.133 49.8973 566.462C47.214 576.531 44.0354 583.646 42.6652 586.414C42.5846 586.579 42.5106 586.729 42.4436 586.864C42.3837 586.985 42.3296 587.094 42.2812 587.191C41.5553 588.632 40.8933 589.913 40.1464 591.243C40.1056 591.316 40.0646 591.389 40.0234 591.461C39.224 592.865 38.3283 594.328 37.0966 595.988C34.9414 598.885 32.5726 601.414 29.9824 603.472C27.3498 605.521 24.7594 607.468 20.984 608.764C19.6581 609.198 18.1347 609.519 16.4596 609.519C16.4548 609.519 16.4499 609.519 16.445 609.519C11.8837 609.624 7.9727 606.646 6.25947 604.427C5.31947 603.296 4.47675 602.21 3.68366 601.157C0.233377 596.508 -1.85759 593.659 -3.5981 591.654C-4.1382 591.025 -4.63584 590.474 -5.10318 589.982C-6.11562 588.916 -6.99762 588.103 -7.83547 587.427C-9.44448 586.118 -10.5388 585.911 -10.8641 586.003C-10.9019 586.009 -10.9392 586.016 -10.9782 586.025C-11.0319 586.037 -11.0874 586.053 -11.1524 586.073C-14.0004 586.707 -16.7326 587.09 -19.521 587.364C-20.2495 587.435 -20.873 587.276 -20.91 587.017C-20.9481 586.758 -20.3895 586.497 -19.6668 586.427C-16.9035 586.157 -14.2017 585.781 -11.3408 585.144C-11.2629 585.122 -11.1895 585.104 -11.1184 585.09C-11.053 585.077 -10.9872 585.067 -10.9226 585.059C-10.2932 584.955 -9.02949 585.254 -7.29491 586.649C-6.44087 587.332 -5.5815 588.116 -4.56611 589.171C-4.07922 589.679 -3.56084 590.246 -2.98196 590.917C-1.18984 592.97 0.947016 595.879 4.40788 600.546C5.20446 601.605 6.04879 602.694 6.99072 603.827C8.60187 605.879 12.0289 608.56 16.2036 608.57C17.7803 608.604 19.2482 608.32 20.528 607.916C24.1914 606.701 26.764 604.779 29.3965 602.729C31.9003 600.739 34.205 598.285 36.311 595.459C37.4538 593.922 38.2982 592.56 39.0877 591.186C39.132 591.109 39.1761 591.032 39.22 590.955C39.9545 589.657 40.6494 588.325 41.4075 586.822C41.5088 586.621 41.6374 586.365 41.7884 586.056C43.145 583.321 46.3064 576.264 48.9832 566.222C49.8553 562.977 50.2283 559.632 50.3801 556.178C50.3824 556.128 50.3846 556.078 50.3868 556.03C50.6282 545.431 49.6637 539.891 48.9456 535.654C48.3126 532.338 47.8782 529.878 47.5306 527.849C47.4649 527.467 47.4017 527.104 47.3414 526.756C47.0796 525.246 46.8679 524.068 46.5997 522.9C45.7845 519.36 44.9948 516.865 43.8211 513.898C42.8251 511.38 41.9109 508.253 41.1018 505.52C41.1006 505.516 41.0994 505.512 41.0982 505.508C41.0338 505.29 40.9701 505.074 40.907 504.86C40.8747 504.75 40.8424 504.64 40.8101 504.532ZM-76.5917 360.495C-76.6691 359.835 -76.5168 359.269 -76.2574 359.244C-75.9972 359.221 -75.7286 359.744 -75.6516 360.398C-75.4672 361.967 -75.253 363.52 -74.9962 365.021C-74.8876 365.656 -75.0005 366.184 -75.2561 366.236C-75.5138 366.277 -75.8192 365.814 -75.9296 365.169C-76.1899 363.646 -76.4059 362.077 -76.5917 360.495ZM36.7596 508.308C36.5785 507.656 36.6105 506.961 36.8315 506.76C37.0525 506.559 37.3802 506.931 37.5619 507.585C37.6575 507.928 37.8215 508.503 38.0401 509.27C39.5045 514.803 44.4828 530.492 46.2031 547.959C46.3312 549.447 46.4213 550.754 46.484 552.032C46.6042 556.033 47.1725 559.485 45.964 565.428C45.5183 567.387 44.9405 569.63 44.1021 572.23C40.7029 582.355 36.299 592.834 27.3208 600.095C25.0106 601.84 22.6021 603.607 19.4021 604.591C16.232 605.834 11.6296 604.189 9.838 601.489C2.86638 593.277 -2.59277 580.072 -12.2309 580.754C-27.4691 583.814 -45.5818 580.363 -55.5308 591.013C-57.3703 593.337 -58.3271 596.227 -58.6229 599.33C-59.3122 606.171 -60.2905 612.811 -60.172 619.407C-60.1385 621.565 -60.1083 623.731 -60.0944 625.903C-59.6876 636.24 -61.8668 655.45 -63.7531 659.765C-63.9574 660.457 -64.3381 660.941 -64.5847 660.856C-64.8316 660.771 -64.8548 660.161 -64.655 659.482C-62.8163 655.298 -60.638 636.314 -61.0395 626.018C-61.0531 623.814 -61.0838 621.614 -61.1179 619.421C-61.2373 612.727 -60.2481 606.035 -59.5643 599.227C-59.2611 596.053 -58.2814 593.015 -56.3665 590.543C-45.7565 579.129 -27.4489 582.786 -12.4874 579.489C-6.96348 578.352 -2.41323 583.067 1.0372 587.123C4.59312 591.381 7.63274 596.071 11.1726 600.393C12.8609 602.708 16.1514 603.847 18.8773 602.84C21.6116 601.981 23.9296 600.299 26.1339 598.59C34.4779 591.746 38.8107 581.495 42.1278 571.538C42.9468 568.995 43.5833 566.836 44.1317 564.947C45.5514 559.573 45.6644 556.215 45.5469 552.287C45.4876 551.014 45.3999 549.713 45.2744 548.229C43.6208 531.121 38.739 515.66 37.2563 510.062C37.0321 509.275 36.8619 508.678 36.7596 508.308ZM24.7034 479.304C20.7513 473.784 14.5203 466.644 9.65182 459.148C9.03298 458.191 8.4139 457.267 7.78321 456.359C5.13506 452.536 2.37325 449.182 0.0598508 446.584C-3.53679 442.566 -5.80812 440.001 -8.01221 437.408C-8.0361 437.381 -8.06005 437.353 -8.08389 437.325C-10.2909 434.734 -12.5226 432.174 -16.2143 428.054C-16.5005 427.733 -16.7976 427.4 -17.1051 427.054C-20.6756 422.962 -26.0883 418.355 -31.7071 413.912C-31.7118 413.909 -31.7165 413.905 -31.7211 413.901C-37.2039 409.563 -42.9167 405.203 -46.6863 401.081C-47.0753 400.663 -47.4478 400.255 -47.8034 399.859C-57.2468 388.789 -65.9273 383.04 -71.9798 379.642C-74.1001 378.443 -75.9536 377.433 -76.9481 376.157C-77.2155 375.832 -77.4555 375.486 -77.674 375.124C-81.5185 365.631 -82.2436 353.602 -81.8317 343.119C-81.6276 341.899 -80.8387 343.911 -80.934 346.137C-80.9358 346.218 -80.9376 346.298 -80.9393 346.379C-80.9547 347.14 -80.9625 347.814 -80.9421 348.757C-80.8899 350.115 -80.8213 351.134 -80.7549 352.056C-80.5329 354.14 -79.94 368.988 -76.8983 374.579C-76.5939 375.079 -76.2789 375.482 -75.9736 375.814C-75.1331 376.772 -73.5101 377.6 -71.4759 378.626C-65.4479 381.637 -55.9527 387.063 -46.2175 398.494C-45.8725 398.879 -45.5194 399.28 -45.1572 399.696C-41.688 403.747 -36.7732 408.694 -31.2417 413.07C-31.2251 413.084 -31.2085 413.097 -31.192 413.11C-25.6082 417.526 -20.0703 422.215 -16.3989 426.424C-16.095 426.766 -15.8009 427.096 -15.5172 427.414C-11.7116 431.661 -9.37745 434.333 -7.14359 436.955C-7.12188 436.981 -7.10018 437.007 -7.07848 437.032C-4.8946 439.599 -2.72948 442.051 0.757132 445.946C3.13759 448.619 5.95378 452.044 8.64039 455.934C9.2473 456.811 9.84474 457.703 10.4407 458.625C15.2401 466.021 21.4266 473.121 25.4066 478.664C25.8167 479.223 25.9848 479.824 25.788 479.998C25.5915 480.172 25.1093 479.859 24.7034 479.304ZM19.8305 482.614C14.9794 476.517 9.18388 470.398 4.10046 462.827C-2.64955 452.417 -12.2096 443.634 -21.116 432.777C-21.4588 432.393 -21.8119 431.995 -22.1803 431.577C-25.4332 427.799 -30.3347 423.353 -35.8291 418.739C-35.8965 418.681 -35.9639 418.623 -36.0315 418.566C-41.3728 414.079 -46.894 409.065 -50.709 404.725C-51.1174 404.267 -51.5086 403.829 -51.8834 403.412C-61.0858 392.698 -68.7667 388.015 -74.561 384.85C-76.5036 383.76 -79.3372 382.481 -81.3682 380.053C-81.8176 379.522 -82.1878 379 -82.4947 378.515C-84.5957 374.813 -84.5637 373.263 -85.012 371.789C-85.3444 370.378 -85.5621 369.376 -85.7996 368.199C-85.8127 368.132 -85.8258 368.064 -85.8388 367.997C-85.8405 367.992 -85.8421 367.988 -85.8438 367.984C-85.8725 367.901 -85.8934 367.83 -85.9035 367.793C-85.9243 367.719 -85.9384 367.658 -85.9437 367.635C-85.956 367.581 -85.9647 367.536 -85.9679 367.52C-85.9811 367.455 -85.9951 367.38 -86.0037 367.331C-86.0839 366.891 -86.3029 365.487 -86.4266 364.4C-86.557 363.276 -86.6114 362.485 -86.6632 361.639C-86.668 361.555 -86.6728 361.471 -86.6775 361.387C-86.7203 360.634 -86.763 359.81 -86.827 358.642C-86.8664 357.922 -86.6765 357.402 -86.411 357.462C-86.1455 357.522 -85.9031 358.148 -85.863 358.856C-85.7934 360.084 -85.7461 360.952 -85.7014 361.702C-85.6963 361.786 -85.6912 361.871 -85.686 361.955C-85.6355 362.75 -85.5836 363.447 -85.4672 364.438C-85.2755 365.865 -85.0859 366.922 -84.8928 367.904C-84.6603 369.068 -84.4377 370.103 -84.1022 371.521C-83.6671 372.987 -83.6279 374.581 -81.7082 377.962C-81.3033 378.606 -80.7761 379.319 -80.1117 380.008C-78.2772 381.913 -76.0138 382.955 -74.1404 384.002C-68.4798 387.102 -60.5976 391.812 -51.189 402.771C-50.812 403.191 -50.4188 403.631 -50.0088 404.091C-46.2267 408.394 -40.7556 413.363 -35.4219 417.844C-35.3523 417.903 -35.2828 417.962 -35.2133 418.021C-29.7179 422.636 -24.7654 427.127 -21.4749 430.948C-21.1101 431.363 -20.7602 431.757 -20.4207 432.137C-10.9969 442.664 -1.07337 451.064 5.73897 461.741C10.603 469.108 16.1399 475.406 20.5351 481.976C22.8087 485.063 24.6393 487.928 26.126 490.666C29.2796 496.479 30.9228 501.651 32.1382 506.589C32.6396 508.681 33.1475 510.672 33.6892 512.65C34.1116 514.201 35.0253 518.328 36.1988 524.278C36.5399 526.014 36.9066 527.94 37.2801 529.998C38.1875 535.055 39.2136 541.063 39.8514 547.738C39.9813 549.13 40.0771 550.387 40.1455 551.556C40.3127 555.379 40.5302 558.818 39.4018 563.704C38.9613 565.408 38.4412 567.298 37.7542 569.473C35.3149 577.359 30.236 589.263 23.0341 594.657C19.6859 597.423 16.1971 598.451 16.2425 597.999C16.0832 597.937 15.6693 597.635 15.2351 597.057C13.4759 594.8 12.3301 593.096 11.4312 591.796C11.081 591.285 10.7717 590.83 10.4865 590.411C9.73934 589.316 9.15076 588.454 8.3355 587.33C5.97826 584.107 3.71144 581.19 0.626659 578.477C-2.30898 575.943 -7.20433 572.623 -13.6094 573.956C-15.2981 574.335 -17.1927 574.651 -19.3176 574.929C-19.9776 575.015 -20.5771 574.872 -20.6512 574.617C-20.7252 574.362 -20.2551 574.094 -19.598 574.009C-17.425 573.728 -15.4994 573.409 -13.7978 573.026C-6.97668 571.61 -1.77686 575.147 1.24632 577.762C4.43912 580.572 6.74409 583.552 9.12976 586.814C9.98487 587.994 10.6149 588.919 11.3738 590.032C11.6551 590.445 11.9524 590.882 12.2841 591.366C13.1564 592.627 14.2742 594.285 15.9662 596.457C16.1481 596.699 16.324 596.887 16.4318 596.985C16.5444 597.088 16.5572 597.092 16.5191 597.095C16.4823 597.094 16.4558 597.134 16.6951 597.119C16.9257 597.102 17.3911 596.991 17.982 596.735C19.1791 596.228 20.7878 595.192 22.4487 593.915C29.3459 588.792 34.4409 577.021 36.8427 569.219C37.5301 567.044 38.0478 565.163 38.4868 563.464C39.549 558.882 39.3697 555.54 39.2099 551.804C39.1444 550.64 39.0516 549.399 38.9234 548C38.2998 541.369 37.2785 535.37 36.3751 530.323C36.0035 528.27 35.6399 526.359 35.3008 524.63C34.1065 518.568 33.2447 514.702 32.884 513.369C32.2968 511.221 31.7471 509.054 31.2041 506.773C29.9921 501.816 28.3251 496.674 25.2368 491.012C23.7835 488.348 22.0092 485.578 19.8305 482.614ZM-60.7324 585.911C-60.1214 585.19 -59.3957 584.78 -59.1714 584.925C-58.9456 585.073 -59.283 585.687 -59.8689 586.361C-62.9759 589.988 -63.9026 593.399 -64.4178 595.788C-64.6393 596.883 -64.7514 597.768 -64.8345 598.649C-65.0365 600.921 -65.2125 602.482 -65.4678 604.594C-66.0778 609.568 -66.5647 614.629 -66.4896 619.501C-66.4626 621.497 -66.4373 623.435 -66.423 625.304C-66.2964 635.534 -66.7956 643.672 -67.3971 647.879C-67.4853 648.543 -67.7737 649.04 -68.0312 648.998C-68.2886 648.956 -68.4189 648.397 -68.3321 647.741C-67.7423 643.606 -67.244 635.592 -67.3669 625.419C-67.381 623.522 -67.4067 621.55 -67.4345 619.515C-67.5107 614.595 -67.0215 609.497 -66.4111 604.516C-66.1545 602.392 -65.983 600.872 -65.7767 598.546C-65.7023 597.75 -65.5973 596.918 -65.4183 595.963C-64.92 593.501 -64.0309 589.856 -60.7324 585.911Z" fill="#16685E"/>
<path d="M976 1016C978.4 1090.4 858 1073 813 1080.5H1919.5V796C1889.5 843.2 1796.5 844.667 1774.5 825C1751 862.5 1731 862.5 1689 825C1657.8 869.8 1563.83 843.667 1537.5 825C1530.5 912.5 1433.5 976 1354.5 924.5C1328 1016 1200 1016.33 1171 976C1147.33 1009 1075.2 1063.2 976 1016Z" fill="url(#paint1_linear_27_130)"/>
<path d="M303.259 1166.9C309.923 1132.05 309.708 1069.32 255.528 1097.23C201.349 1125.13 216.209 1063.68 230.412 1029.48C233.082 1007.86 221.435 970.396 153.482 993.418C68.5415 1022.19 136.971 947.442 95.3158 895.593C61.9913 854.113 64.4325 793.079 69.8187 767.747C63.6113 739.478 40.9859 680.754 0.144288 672.018C-40.6974 663.281 -72.052 598.635 -77.109 567.225" stroke="#16685E" stroke-width="3" stroke-linecap="round"/>
<path d="M812 -0.725729C801.321 59.2725 746.767 49.8177 728.184 17.7775C712.621 2.54601 675.767 -10.9195 652.855 57.0699C624.215 142.057 606.287 42.3107 539.799 43.9809C486.608 45.317 442.457 18.9215 425.584 -0.725561" stroke="#16685E" stroke-width="3" stroke-linecap="round"/>
<path d="M435.078 1101.9C439.087 1100.87 443.894 1098.82 447.741 1096.97C447.795 1096.94 447.849 1096.92 447.903 1096.89C447.963 1096.86 448.024 1096.83 448.084 1096.8C448.25 1096.77 449.113 1096.6 451.024 1096.42C451.28 1096.39 451.558 1096.35 451.86 1096.31C453.041 1096.12 454.646 1095.98 457.006 1094.8C458.947 1093.82 461.066 1092.39 463.084 1090.35C474.309 1077.08 472.431 1065.59 473.258 1062.55C473.364 1061.16 473.462 1059.76 473.564 1058.34C473.84 1053.42 474.956 1048.59 475.863 1040.49C475.944 1039.51 476.002 1038.46 475.987 1037.3C475.976 1036.37 476.107 1035.5 476.365 1035.45C476.621 1035.4 476.916 1036.23 476.93 1037.21C476.949 1038.4 476.895 1039.45 476.817 1040.43C476.817 1040.44 476.816 1040.44 476.816 1040.45C475.877 1048.9 474.773 1053.58 474.509 1058.44C474.417 1059.73 474.327 1061.02 474.232 1062.31C473.33 1065.43 475.56 1077.25 463.493 1091.29C461.497 1093.24 459.403 1094.65 457.472 1095.63C454.603 1097.06 452.839 1097.11 451.595 1097.31C451.311 1097.35 451.054 1097.37 450.82 1097.4C450.815 1097.4 450.809 1097.4 450.804 1097.4C449.109 1097.56 448.511 1097.71 448.531 1097.64C448.381 1097.71 448.232 1097.79 448.083 1097.86C448.05 1097.87 448.018 1097.89 447.985 1097.9C444.019 1099.8 439.235 1101.81 435.301 1102.82C434.547 1103.02 433.896 1102.96 433.838 1102.71C433.783 1102.45 434.335 1102.1 435.078 1101.9ZM618.303 1026.4C618.448 1026.8 618.603 1027.23 618.774 1027.66C620.058 1031.73 624.651 1035.93 629.041 1036.93C633.912 1038.3 638.125 1038.12 640.074 1038.21C641.984 1038.25 644.075 1038.08 646.457 1037.85C647.004 1037.8 647.566 1037.75 648.132 1037.7C649.677 1037.57 651.548 1037.44 652.697 1037.65C652.866 1037.68 653.016 1037.73 653.15 1037.78C654.203 1038.11 655.147 1040.02 655.618 1042.14C656.418 1045.57 656.5 1048.36 656.476 1050.61C656.464 1051.38 656.433 1052.09 656.389 1052.77C656.389 1052.77 656.389 1052.77 656.389 1052.77C656.217 1055.31 655.912 1057.24 655.488 1059.03C655.018 1061.02 654.516 1062.76 654.061 1064.91C653.542 1068.57 655.702 1070.89 656.92 1072.13C658.657 1073.81 660.538 1074.87 662.276 1075.81C665.795 1077.68 669.701 1078.91 672.608 1079.52C672.85 1079.57 673.098 1079.62 673.349 1079.67C676.581 1080.32 680.524 1080.94 686.369 1081.58C691.225 1082.1 695.407 1082.48 699.111 1082.8C700.172 1082.88 701.184 1082.97 702.155 1083.04C704.607 1083.23 706.795 1083.36 708.86 1083.42C721.646 1083.71 728.904 1083.84 733.428 1084.26C736.908 1084.57 738.752 1084.94 740.11 1085.22C740.503 1085.3 740.854 1085.38 741.193 1085.45C742.556 1085.73 743.911 1086.01 745.044 1086.33L743.958 1086.01C745.449 1086.74 746.988 1087.47 748.681 1088.25C749.396 1088.58 750.14 1088.93 750.919 1089.29C753.523 1090.49 755.523 1091.24 757.108 1091.78C757.802 1092.02 758.416 1092.21 758.996 1092.4C759.006 1092.4 759.017 1092.4 759.028 1092.41C759.109 1092.43 759.189 1092.46 759.268 1092.48C759.328 1092.5 759.389 1092.52 759.449 1092.54C759.473 1092.54 759.495 1092.55 759.512 1092.55C759.525 1092.56 759.535 1092.56 759.541 1092.56C759.543 1092.56 759.544 1092.56 759.545 1092.56C759.663 1092.58 759.761 1092.61 759.781 1092.62C759.817 1092.63 759.848 1092.64 759.863 1092.65C759.947 1092.67 760.054 1092.71 760.124 1092.74C760.306 1092.8 760.622 1092.92 761.109 1093.1C761.537 1093.25 761.951 1093.38 762.47 1093.54C762.503 1093.55 762.536 1093.56 762.568 1093.57C763.075 1093.73 763.667 1093.92 764.407 1094.16C765.08 1094.38 765.625 1094.78 765.624 1095.06C765.622 1095.33 765.074 1095.38 764.4 1095.16C763.702 1094.93 763.147 1094.76 762.64 1094.6C762.607 1094.59 762.575 1094.58 762.543 1094.57C762.014 1094.4 761.514 1094.24 760.98 1094.06C760.801 1094 760.617 1093.93 760.445 1093.87C760.135 1093.76 759.778 1093.65 759.352 1093.52C759.267 1093.49 759.179 1093.46 759.088 1093.43C758.509 1093.25 757.834 1093.03 757.079 1092.78C755.311 1092.17 753.095 1091.34 750.258 1090.03C749.515 1089.69 748.794 1089.35 748.09 1089.03C746.524 1088.3 745.045 1087.6 743.595 1086.89L744.871 1087.27C743.593 1086.92 742.098 1086.62 740.472 1086.3C740.058 1086.21 739.646 1086.13 739.192 1086.04C737.875 1085.77 736.26 1085.46 733.065 1085.19C728.772 1084.79 721.692 1084.65 708.95 1084.37C706.777 1084.31 704.437 1084.16 701.933 1083.97C700.979 1083.9 699.999 1083.82 698.999 1083.74C695.338 1083.42 691.266 1083.05 686.55 1082.55C680.796 1081.94 676.921 1081.35 673.672 1080.72C673.559 1080.7 673.447 1080.68 673.335 1080.66C673.196 1080.63 673.059 1080.6 672.922 1080.57C669.835 1079.94 665.68 1078.68 661.85 1076.65C659.906 1075.58 657.735 1074.48 655.537 1072.08C654.377 1070.79 652.564 1068.15 653.107 1064.78C653.602 1062.46 654.128 1060.67 654.626 1058.54C654.984 1057.01 655.248 1055.37 655.429 1052.93C655.477 1052.24 655.515 1051.5 655.529 1050.68C655.559 1048.44 655.478 1045.71 654.702 1042.37C654.47 1041.37 654.139 1040.39 653.767 1039.71C653.583 1039.38 653.403 1039.14 653.262 1038.99C653.116 1038.84 653.025 1038.76 652.825 1038.67C652.753 1038.64 652.667 1038.61 652.565 1038.59C651.631 1038.4 649.785 1038.51 648.238 1038.64C647.666 1038.69 647.088 1038.74 646.512 1038.8C644.125 1039.02 641.774 1039.23 639.526 1039.17C637.68 1039.06 633.538 1039.22 628.573 1037.78C623.721 1036.64 619.06 1031.82 617.855 1027.96C617.778 1027.77 617.705 1027.59 617.634 1027.4C617.489 1027.03 617.353 1026.65 617.229 1026.29C616.173 1023.16 615.511 1020.22 614.6 1018.15C614.003 1017.02 613.388 1015.78 612.837 1015.09C612.594 1014.77 612.269 1014.63 612.588 1015.13C612.754 1015.37 613.193 1015.79 613.854 1016.05C614.508 1016.32 615.209 1016.35 615.587 1016.32C608.005 1018.3 597.243 1026.17 588.772 1031.52C588.624 1031.61 588.475 1031.71 588.325 1031.8C588.059 1031.97 587.793 1032.14 587.527 1032.3C573.193 1040.76 561.406 1041.05 557.373 1041.36C557.18 1041.37 557.004 1041.38 556.846 1041.38C556.705 1041.39 556.578 1041.39 556.464 1041.39C554.773 1041.44 553.261 1041.44 551.668 1041.37C551.581 1041.37 551.494 1041.37 551.406 1041.36C549.722 1041.28 547.932 1041.11 545.823 1040.7C543.325 1040.2 540.971 1039.51 538.787 1038.63C534.262 1036.77 531.072 1034.78 528.265 1033.24C527.504 1032.82 526.782 1032.42 526.085 1032.05C526.083 1032.05 526.081 1032.05 526.079 1032.05C523.023 1030.4 520.448 1029.25 518.004 1028.43C513.561 1026.97 510.497 1026.97 508.087 1027.08C507.326 1027.13 506.638 1027.2 505.965 1027.29C504.954 1027.42 504.026 1027.59 503.091 1027.79C502.612 1027.89 502.123 1027.98 501.641 1028.07C498.51 1028.62 495.784 1029.04 493.166 1029.47C492.933 1029.51 492.701 1029.55 492.469 1029.59C489.656 1030.06 486.947 1030.55 484.294 1031.13C483.674 1031.27 483.137 1031.18 483.06 1030.93C482.987 1030.68 483.412 1030.36 484.042 1030.22C486.658 1029.64 489.312 1029.16 492.128 1028.69C492.361 1028.65 492.595 1028.61 492.831 1028.57C495.441 1028.13 498.207 1027.71 501.368 1027.15C501.879 1027.06 502.405 1026.96 502.914 1026.86C503.79 1026.67 504.657 1026.51 505.63 1026.38C506.326 1026.28 507.054 1026.2 507.887 1026.15C510.407 1026.01 513.642 1026.01 518.262 1027.52C520.746 1028.35 523.345 1029.51 526.423 1031.16C527.13 1031.53 527.863 1031.94 528.633 1032.37C531.467 1033.91 534.669 1035.91 539.143 1037.75C541.255 1038.6 543.537 1039.28 545.962 1039.76C547.91 1040.15 549.572 1040.31 551.219 1040.4C551.311 1040.41 551.404 1040.41 551.497 1040.42C553.047 1040.49 554.616 1040.5 556.372 1040.45C556.608 1040.44 556.906 1040.44 557.266 1040.42C561.22 1040.12 572.919 1039.83 587.016 1031.51C587.292 1031.33 587.569 1031.16 587.847 1030.98C587.887 1030.96 587.928 1030.93 587.969 1030.91C596.627 1025.27 600.963 1022.2 604.287 1020.03C606.877 1018.3 608.872 1017.31 610.506 1016.64C610.816 1016.51 611.113 1016.4 611.393 1016.29C612.605 1015.84 613.555 1015.57 614.489 1015.3C614.793 1015.21 615.088 1015.13 615.373 1015.06C615.021 1015.14 613.859 1014.8 613.59 1014.42C613.281 1014.07 613.478 1014.07 613.67 1014.29C614.099 1014.73 614.648 1015.74 615.189 1016.89C616.245 1019.13 616.986 1022.39 617.941 1025.34C617.943 1025.35 617.944 1025.35 617.945 1025.36C618.059 1025.7 618.179 1026.06 618.303 1026.4ZM774.236 1097.09C774.903 1097.33 775.37 1097.73 775.276 1097.97C775.182 1098.22 774.561 1098.22 773.893 1097.97C772.299 1097.38 770.707 1096.78 769.116 1096.18C768.449 1095.93 767.986 1095.53 768.082 1095.28C768.179 1095.04 768.799 1095.05 769.465 1095.3C771.054 1095.9 772.644 1096.5 774.236 1097.09ZM622.228 1022.43C622.408 1023.08 622.386 1023.76 622.169 1023.96C621.953 1024.17 621.615 1023.81 621.428 1023.16C621.329 1022.81 621.165 1022.23 620.954 1021.46C620.595 1020.16 620.146 1018.28 619.438 1015.99C619.074 1014.85 618.654 1013.58 617.962 1012.35C617.321 1011.15 616.041 1009.88 614.572 1010.33C607.377 1012 600.012 1017.5 592.387 1023.07C591.186 1023.94 590.109 1024.72 589.076 1025.47C587.701 1026.45 586.429 1027.42 585.045 1028.44C581.867 1030.72 577.977 1033.17 570.84 1035.23C561.056 1037.9 550.281 1038.67 540.388 1034.68C527.297 1028.12 516.004 1019.49 502.133 1022.74C495.624 1023.88 489.183 1024.36 483.003 1025.71C477.135 1026.96 469.85 1029.61 470.977 1035.21C471.608 1042.68 469.542 1048.99 469.079 1055.62C469.005 1056.38 468.938 1057.13 468.878 1057.89C467.736 1069.24 466.997 1083.51 455.017 1091.04C454.988 1091.05 454.959 1091.07 454.93 1091.09C451.775 1092.76 448.35 1092.35 446.292 1093.44C436.891 1098.39 424.828 1099.77 421.482 1100.2C420.775 1100.29 420.185 1100.15 420.16 1099.89C420.125 1099.64 420.672 1099.35 421.375 1099.26C424.698 1098.83 436.653 1097.46 445.848 1092.61C448.318 1091.37 451.682 1091.77 454.446 1090.27C454.453 1090.27 454.461 1090.26 454.468 1090.26C465.919 1083.22 466.835 1069.15 467.935 1057.8C467.991 1057.09 468.052 1056.39 468.12 1055.69C468.589 1048.99 470.628 1042.43 469.965 1035.35C468.754 1028.66 476.925 1025.87 482.741 1024.54C489.011 1023.1 495.487 1022.53 501.865 1021.33C516.136 1017.7 528.692 1026.8 541.118 1032.88C550.432 1036.56 560.854 1035.81 570.326 1033.2C577.256 1031.19 581.142 1029.35 584.396 1027.43C585.766 1026.6 587.033 1025.77 588.35 1024.82C589.384 1024.08 590.465 1023.29 591.678 1022.41C599.393 1016.78 606.907 1011.11 614.41 1009.38C615.283 1009.16 616.351 1009.35 617.088 1009.88C617.836 1010.4 618.316 1011.07 618.702 1011.7C619.457 1012.99 619.878 1014.22 620.25 1015.34C620.965 1017.59 621.398 1019.39 621.747 1020.67C621.962 1021.47 622.127 1022.06 622.228 1022.43ZM646.53 1032.8C648.544 1032.6 650.725 1032.24 653.419 1032.55C657.631 1032.97 660.062 1037.39 660.787 1040.82C661.836 1045.02 661.967 1049.46 661.579 1053.52C661.161 1058.16 660.064 1062.36 659.56 1065.66C659.545 1065.76 659.543 1065.85 659.552 1065.95C659.626 1066.84 660.821 1067.89 661.832 1068.6C662.885 1069.34 663.943 1069.94 664.943 1070.51C666.155 1071.2 667.332 1071.82 668.51 1072.37C668.543 1072.39 668.577 1072.41 668.61 1072.42C671.697 1073.86 674.949 1075.13 680.417 1076.29C685.954 1077.48 693.747 1078.27 701.627 1078.59C701.633 1078.59 701.64 1078.59 701.646 1078.59C709.487 1078.92 717.458 1078.41 723.212 1078.54C732.399 1078.77 740.032 1078.92 746.175 1080.18C746.207 1080.19 746.299 1080.21 746.33 1080.23C752.913 1083.2 757.627 1085.36 760.692 1086.83C766.677 1089.7 773.453 1092.03 780.128 1094.43C780.141 1094.43 780.181 1094.44 780.195 1094.44C784.846 1095.25 789.376 1095.79 793.36 1097.63C794.424 1098.25 792.296 1098.25 790.245 1097.53C790.169 1097.51 790.094 1097.48 790.019 1097.46C789.301 1097.23 788.671 1097.04 787.762 1096.83C786.443 1096.55 785.441 1096.4 784.515 1096.27C783.88 1096.17 782.273 1096.02 779.97 1095.55C779.926 1095.54 779.796 1095.5 779.754 1095.49C773.884 1093.36 763.97 1089.5 759.887 1087.51C756.988 1086.12 752.317 1084.34 745.727 1081.7L745.888 1081.74C740.05 1080.79 732.406 1080.86 723.121 1080.63C717.468 1080.5 709.656 1079.87 701.754 1079.54C701.732 1079.54 701.71 1079.54 701.689 1079.54C693.839 1079.23 685.919 1078.43 680.236 1077.22C674.519 1076 671.066 1074.64 667.896 1073.14C667.865 1073.12 667.834 1073.11 667.803 1073.09C666.712 1072.57 665.616 1071.99 664.515 1071.36C663.506 1070.78 662.431 1070.17 661.318 1069.39C660.268 1068.61 658.867 1067.64 658.614 1066.06C658.596 1065.89 658.598 1065.71 658.624 1065.53C659.158 1062.07 660.251 1057.88 660.649 1053.29C661.015 1049.34 660.873 1045.08 659.871 1041.05C659.143 1037.7 656.954 1033.85 653.287 1033.49C650.872 1033.21 648.707 1033.53 646.741 1033.73C646.042 1033.81 645.415 1033.67 645.359 1033.41C645.299 1033.16 645.824 1032.88 646.53 1032.8ZM646.079 1026.93C648.37 1026.64 650.368 1026.13 654.279 1026.48C657.813 1026.78 661.785 1029.29 663.647 1031.94C665.623 1034.59 666.436 1037.03 667.051 1039.22C669.904 1049.1 667.59 1059.85 666.212 1066.57C666.479 1064.71 665.586 1063.16 665.312 1062.87C664.992 1062.5 665.044 1062.65 665.267 1062.82C665.737 1063.22 666.755 1063.84 667.974 1064.49C671.9 1066.66 676.665 1068.29 681.575 1069.58C686.776 1070.71 694.342 1071.72 702.093 1072.26C702.18 1072.26 702.268 1072.27 702.355 1072.28C710.015 1072.82 717.786 1073 723.417 1073.13C732.583 1073.38 740.051 1073.36 747.192 1074.65C747.459 1074.69 748.209 1074.93 748.463 1075.03C755.117 1077.89 759.892 1079.92 762.949 1081.39C768.184 1083.9 769.701 1084.45 771.935 1085.27C771.995 1085.3 772.056 1085.32 772.117 1085.34C772.121 1085.34 772.126 1085.34 772.13 1085.34C772.211 1085.36 772.278 1085.38 772.312 1085.39C772.382 1085.41 772.438 1085.42 772.459 1085.43C772.507 1085.45 772.547 1085.46 772.561 1085.47C772.619 1085.49 772.686 1085.51 772.729 1085.53C773.125 1085.68 774.365 1086.16 775.342 1086.56C776.344 1086.96 777.051 1087.27 777.797 1087.6C777.872 1087.63 777.948 1087.66 778.023 1087.7C778.695 1087.99 779.427 1088.31 780.488 1088.75C781.136 1089.02 781.524 1089.41 781.357 1089.63C781.189 1089.84 780.53 1089.8 779.882 1089.53C778.764 1089.07 777.985 1088.72 777.31 1088.43C777.235 1088.39 777.16 1088.36 777.085 1088.33C776.371 1088.01 775.745 1087.74 774.855 1087.38C773.561 1086.88 772.592 1086.53 771.708 1086.2C769.393 1085.34 767.639 1084.71 762.151 1082.07C759.254 1080.68 754.648 1078.71 748.104 1075.9C747.888 1075.82 747.249 1075.62 747.021 1075.58C740.137 1074.32 732.649 1074.32 723.409 1074.08C717.766 1073.95 709.974 1073.76 702.292 1073.22C702.202 1073.21 702.112 1073.21 702.022 1073.2C694.238 1072.66 686.635 1071.65 681.392 1070.51C676.335 1069.44 671.428 1068 667.256 1065.92C665.993 1065.29 664.893 1064.7 664.241 1064.22C663.926 1064 663.748 1063.79 663.882 1063.95C663.944 1064.04 664.096 1064.25 664.241 1064.68C664.388 1065.09 664.474 1065.75 664.387 1066.32C665.649 1059.25 667.789 1049.18 665.301 1039.66C664.771 1037.6 664.065 1035.33 662.348 1032.92C660.728 1030.5 657.289 1028.21 654.087 1027.84C650.572 1027.4 648.547 1027.73 646.295 1027.85C642.093 1028.35 638.66 1028.75 635.741 1028.71C632.927 1028.69 630.726 1028.21 629.524 1027.56C628.333 1026.91 627.79 1026.29 627.195 1024.88C626.539 1023.17 625.997 1020.6 625.339 1018.08C625.123 1017.27 624.849 1015.87 624.217 1013.64C623.869 1012.5 623.519 1011.2 622.502 1009.35C621.963 1008.43 621.258 1007.27 619.69 1006.12C618.155 1004.92 615.448 1004.36 613.629 1004.77C613.346 1004.83 613.062 1004.88 612.776 1004.95C610.62 1005.41 608.374 1006.15 606.123 1007.13C600.581 1009.51 595.089 1013.31 589.342 1017.48C588.136 1018.36 587.069 1019.14 586.055 1019.87C584.527 1020.98 583.121 1021.98 581.565 1023.02C578.96 1024.74 575.574 1026.63 569.618 1028.42C562.476 1030.62 551.038 1031.78 542.988 1028.27C538.384 1026.29 533.831 1023.15 529.989 1021.11C524.637 1018.18 521.028 1017.01 518.53 1016.31C517.824 1016.11 517.206 1015.96 516.623 1015.83C515.123 1015.49 513.914 1015.29 512.355 1015.13C508.128 1014.72 504.373 1015.04 500.8 1015.72C495.854 1016.67 490.494 1017.2 483.184 1018.75C482.445 1018.91 481.759 1018.86 481.646 1018.61C481.534 1018.37 482.046 1018.03 482.795 1017.86C490.231 1016.27 495.66 1015.75 500.624 1014.79C504.283 1014.09 508.152 1013.77 512.509 1014.2C514.179 1014.37 515.499 1014.6 517.06 1014.96C517.648 1015.09 518.252 1015.25 518.94 1015.44C521.445 1016.15 525.104 1017.36 530.484 1020.3C534.348 1022.36 538.905 1025.49 543.344 1027.39C551.057 1030.79 562.316 1029.68 569.322 1027.52C575.227 1025.75 578.518 1023.9 581.053 1022.23C582.521 1021.24 583.866 1020.28 585.332 1019.22C586.344 1018.49 587.414 1017.71 588.63 1016.83C594.385 1012.65 599.926 1008.79 605.568 1006.33C607.856 1005.33 610.146 1004.56 612.35 1004.07C612.727 1003.98 613.101 1003.91 613.47 1003.84C615.481 1003.39 618.5 1004 620.2 1005.32C621.937 1006.58 622.7 1007.83 623.279 1008.79C624.361 1010.73 624.714 1012.04 625.066 1013.15C625.7 1015.34 625.951 1016.63 626.143 1017.32C626.866 1020.08 627.436 1022.88 628.097 1024.58C628.656 1025.85 629.013 1026.2 630.023 1026.76C631.049 1027.3 633.145 1027.76 635.862 1027.76C638.676 1027.79 642.003 1027.41 646.079 1026.93ZM461.919 1054.28C461.994 1053.54 462.277 1052.94 462.542 1052.92C462.807 1052.9 462.955 1053.48 462.879 1054.2C462.764 1055.31 462.673 1056.34 462.6 1057.29C462.433 1059.5 462.28 1061.24 462.13 1062.67C461.728 1066.39 461.442 1068.14 460.848 1070.69C459.328 1077.26 456.409 1082.88 452.33 1085.28C452.17 1085.38 452.008 1085.47 451.843 1085.57C450.964 1086.26 447.328 1085.98 443.352 1087.92C438.516 1090.46 434.084 1091.69 431.326 1092.38C430.675 1092.53 430.098 1092.45 430.045 1092.19C429.992 1091.94 430.473 1091.61 431.114 1091.45C433.826 1090.78 438.184 1089.57 442.908 1087.08C447.224 1085.01 450.955 1085.26 451.382 1084.74C451.512 1084.67 451.641 1084.59 451.768 1084.52C455.539 1082.35 458.413 1077.01 459.921 1070.5C460.488 1068.07 460.761 1066.44 461.159 1062.84C461.316 1061.37 461.477 1059.57 461.656 1057.2C461.726 1056.29 461.812 1055.32 461.919 1054.28Z" fill="#024023"/>
</g>
<defs>
<linearGradient id="paint0_linear_27_130" x1="2052" y1="-19" x2="1041.5" y2="65" gradientUnits="userSpaceOnUse">
<stop offset="0.115385" stop-color="#16685E"/>
<stop offset="0.5" stop-color="#219B8C"/>
<stop offset="1" stop-color="#2CCEBA"/>
</linearGradient>
<linearGradient id="paint1_linear_27_130" x1="842.5" y1="1081" x2="1919.5" y2="938.25" gradientUnits="userSpaceOnUse">
<stop stop-color="#2CCEBA"/>
<stop offset="1" stop-color="#16685E"/>
</linearGradient>
<clipPath id="clip0_27_130">
<rect width="1920" height="1080" fill="white"/>
</clipPath>
</defs>
</svg>
