<?xml version="1.0" encoding="UTF-8"?>
<svg version="1.1" xmlns="http://www.w3.org/2000/svg" width="240" height="360">
<path d="M0 0 C4.46022227 2.23011113 6.90159688 4.48843329 9 9 C10.125 12.4375 10.125 12.4375 11 16 C11.28875 16.99 11.5775 17.98 11.875 19 C12.02388795 22.57331068 10.81513106 24.00592187 8.9453125 26.94140625 C7.02525277 31.12269336 7.23223449 35.53865986 8 40 C10.61818398 44.10182157 13.52826945 45.27224802 17.9375 46.875 C23.12549756 48.86205719 26.58185759 50.84867549 29 56 C30.09439574 60.96552961 30.54607498 65.94125778 31 71 C31.98243965 79.33220046 33.6546942 86.33000611 37 94 C41.12263339 104.02437941 44.36063694 114.21648727 47.375 124.625 C47.73303711 125.84687012 48.09107422 127.06874023 48.45996094 128.32763672 C48.7902832 129.49053223 49.12060547 130.65342773 49.4609375 131.8515625 C49.75790527 132.89135254 50.05487305 133.93114258 50.36083984 135.00244141 C51.37554273 139.76123514 51.53601454 142.90735499 49.375 147.3125 C47 150 47 150 43.9375 151 C41 151 41 151 38 149 C38.33 147.35 38.66 145.7 39 144 C39.66 144 40.32 144 41 144 C39.70965466 131.08000373 35.64696818 121.35403452 29.21264648 110.14477539 C26.28501313 104.96674861 23.74916659 99.9922974 22.3125 94.1875 C21.61163624 91.41145306 20.90600536 88.71801608 20 86 C16.89361888 96.85949763 18.89343465 103.99411159 22.79296875 114.4453125 C24.53323775 119.57037656 25.37177017 124.63813142 26 130 C26.11085938 130.92554688 26.22171875 131.85109375 26.3359375 132.8046875 C27.45968849 143.5258794 27.10037395 153.28132753 24.75 163.8125 C24.52546143 164.86276367 24.30092285 165.91302734 24.06958008 166.99511719 C22.83180117 172.66728605 21.41131081 178.20785556 19.6875 183.75 C17.62206262 190.57094038 17.03186705 197.35753568 18.49609375 204.37890625 C20.53880125 215.00415224 18.96607611 225.25572903 16.5 235.625 C13.66352898 247.69287686 11.2198056 258.65310156 17.88671875 269.90234375 C19.35408127 272.66716366 19.40419174 274.92814275 19 278 C15.35918336 280.33012265 12.25058287 280.46369995 8 280 C3.79498156 276.3749841 3.09957793 270.30558618 2.69702148 265.02758789 C2.66263517 263.59279949 2.63772096 262.15776032 2.62109375 260.72265625 C2.60409927 259.95247665 2.5871048 259.18229706 2.56959534 258.38877869 C2.51689295 255.94676745 2.47639652 253.50476684 2.4375 251.0625 C2.39325836 248.62389099 2.34627843 246.18539795 2.29469299 243.74693298 C2.26328125 242.23657567 2.23623434 240.72611846 2.21446228 239.21559143 C2.1364608 235.18219576 1.78728673 231.29830413 1.24525452 227.29502869 C0.69883627 222.18178726 0.65264821 217.02767098 0.5 211.890625 C0.41667947 209.33723917 0.33334574 206.78385376 0.25 204.23046875 C0.14498477 200.89746588 0.04069756 197.56444373 -0.0625 194.23138428 C-0.20359408 189.6801358 -0.35103652 185.12912173 -0.5 180.578125 C-0.53544922 179.37706116 -0.57089844 178.17599731 -0.60742188 176.9385376 C-0.64416016 175.82347839 -0.68089844 174.70841919 -0.71875 173.55957031 C-0.74904297 172.57998352 -0.77933594 171.60039673 -0.81054688 170.59112549 C-0.98053879 168.26616835 -1.34852723 166.23160745 -2 164 C-2.71109389 168.56734121 -3.16413925 173.02956015 -3.31640625 177.6484375 C-3.35822021 178.89294678 -3.40003418 180.13745605 -3.44311523 181.41967773 C-3.50221069 183.37756226 -3.50221069 183.37756226 -3.5625 185.375 C-3.60675249 186.73315755 -3.65110526 188.09131184 -3.69555664 189.44946289 C-3.89239286 195.69546038 -4.06158306 201.93454426 -3.96044922 208.18383789 C-3.90242606 213.88183552 -4.09850986 219.26214794 -5.0078125 224.89453125 C-6.29909485 234.11350116 -6.10946742 243.18143891 -5.88354492 252.46777344 C-5.40474675 273.83679517 -5.40474675 273.83679517 -10.97973633 280.29248047 C-13 282 -13 282 -15.0703125 282.0234375 C-15.74835938 281.80945313 -16.42640625 281.59546875 -17.125 281.375 C-17.80820313 281.17648437 -18.49140625 280.97796875 -19.1953125 280.7734375 C-21 280 -21 280 -23 278 C-22.81314246 274.16942038 -21.73118202 271.48123637 -19.9375 268.1875 C-14.6249408 256.39049354 -18.49474582 242.60302072 -21.20727539 230.62744141 C-22.98015139 222.65558627 -24.31510669 214.88829663 -22.50244141 206.7722168 C-20.53192674 195.89991647 -22.36401111 185.95835907 -25.42071533 175.5055542 C-29.46777223 161.49414945 -31.24094085 148.63020121 -30 134 C-29.91234375 132.71738281 -29.8246875 131.43476563 -29.734375 130.11328125 C-28.9393337 122.53446367 -26.6210427 115.8221833 -24.04589844 108.71020508 C-21.62289225 101.67696715 -21.35409229 95.43989988 -22 88 C-22.66 88 -23.32 88 -24 88 C-24.06574219 88.804375 -24.13148437 89.60875 -24.19921875 90.4375 C-25.65038078 101.02517815 -29.94350959 109.17932078 -35.35229492 118.34570312 C-41.02427271 128.12402803 -42.38915918 136.32477267 -41.83398438 147.44921875 C-41.74241537 150.7014973 -41.7920413 152.65754333 -43.50390625 155.4765625 C-43.99761719 155.97929687 -44.49132812 156.48203125 -45 157 C-49.29245529 155.46698025 -51.01922537 153.0322912 -53 149 C-54.32618999 141.02959815 -52.09662453 133.82646463 -49.70214844 126.28515625 C-48.87322159 123.58739711 -48.11113281 120.87434581 -47.3515625 118.15625 C-46.90985718 116.59040161 -46.90985718 116.59040161 -46.45922852 114.99291992 C-45.87666778 112.92675636 -45.29876267 110.85927242 -44.72631836 108.7902832 C-42.99241144 102.73734453 -40.78339904 97.21102578 -38.09936523 91.52075195 C-36.59106509 88.06234667 -35.88929075 84.9101992 -35.25 81.1875 C-35.13205078 80.51734863 -35.01410156 79.84719727 -34.89257812 79.15673828 C-33.94836766 73.49014187 -33.56992772 67.82829758 -33.40625 62.0859375 C-32.66364934 56.44502866 -30.22750444 52.58053338 -25.74609375 49.09375 C-23.26789827 47.54141279 -20.70099599 46.58285612 -17.9296875 45.67578125 C-15.77411966 44.92089616 -13.92077755 44.25160344 -12 43 C-10.45333754 38.77414629 -10.68998927 34.86476676 -12.1875 30.6875 C-13.86731047 27.94224769 -13.86731047 27.94224769 -16.25 26.0625 C-18 24 -18 24 -17.8125 20.8125 C-17.544375 19.554375 -17.27625 18.29625 -17 17 C-16.88875619 15.47966795 -16.78482137 13.95878672 -16.6875 12.4375 C-16.22085457 8.09695678 -14.81942898 5.39989965 -12 2 C-7.95308865 -0.6979409 -4.75253951 -0.65804393 0 0 Z " fill="#B8B2AC" transform="translate(122,33)"/>
<path d="M0 0 C4.46022227 2.23011113 6.90159688 4.48843329 9 9 C10.125 12.4375 10.125 12.4375 11 16 C11.28875 16.99 11.5775 17.98 11.875 19 C12.02388795 22.57331068 10.81513106 24.00592187 8.9453125 26.94140625 C7.02525277 31.12269336 7.23223449 35.53865986 8 40 C10.61818398 44.10182157 13.52826945 45.27224802 17.9375 46.875 C23.12549756 48.86205719 26.58185759 50.84867549 29 56 C30.09439574 60.96552961 30.54607498 65.94125778 31 71 C31.98243965 79.33220046 33.6546942 86.33000611 37 94 C41.12263339 104.02437941 44.36063694 114.21648727 47.375 124.625 C47.73303711 125.84687012 48.09107422 127.06874023 48.45996094 128.32763672 C48.7902832 129.49053223 49.12060547 130.65342773 49.4609375 131.8515625 C49.75790527 132.89135254 50.05487305 133.93114258 50.36083984 135.00244141 C51.42528316 139.99450977 51.6376492 142.92396698 49 147.375 C48.34 148.24125 47.68 149.1075 47 150 C46.67 149.34 46.34 148.68 46 148 C43.97536745 147.34786708 43.97536745 147.34786708 42 147 C44.475 144.525 44.475 144.525 47 142 C46.54625 140.9275 46.0925 139.855 45.625 138.75 C43.90165921 134.22421717 43.23471695 129.71850601 42.625 124.9296875 C42.11227142 121.91624461 42.11227142 121.91624461 40.53515625 119.1015625 C38.78454935 115.56471293 38.12739455 112.37917851 37.4375 108.5 C36.59833001 103.83478381 35.60503751 99.4637953 34 95 C33.34 95 32.68 95 32 95 C32 94.01 32 93.02 32 92 C31.01 91.67 30.02 91.34 29 91 C27.75017888 84.88322841 26.55114748 78.75632314 25.375 72.625 C25.23989014 71.93535156 25.10478027 71.24570313 24.96557617 70.53515625 C24.34338356 67.26374353 24 64.3480635 24 61 C23.01 61 22.02 61 21 61 C21.495 68.92 21.495 68.92 22 77 C16 78 16 78 14 77 C14 76.34 14 75.68 14 75 C13.33613281 75.02320312 12.67226562 75.04640625 11.98828125 75.0703125 C3.21792619 75.24956063 3.21792619 75.24956063 -1 73 C-1.99 73.99 -1.99 73.99 -3 75 C-8.59170977 75.34948186 -14.49733924 75.06632914 -20 74 C-22.84614024 71.15385976 -22.45579076 68.19630858 -22.625 64.375 C-22.66367188 63.66859375 -22.70234375 62.9621875 -22.7421875 62.234375 C-22.83647724 60.49001476 -22.91932891 58.74504309 -23 57 C-24.98 57.495 -24.98 57.495 -27 58 C-26.67 55.03 -26.34 52.06 -26 49 C-24.98679687 48.60167969 -24.98679687 48.60167969 -23.953125 48.1953125 C-23.06109375 47.84210938 -22.1690625 47.48890625 -21.25 47.125 C-20.36828125 46.77695313 -19.4865625 46.42890625 -18.578125 46.0703125 C-17.72734375 45.71710938 -16.8765625 45.36390625 -16 45 C-15.25105469 44.71382812 -14.50210938 44.42765625 -13.73046875 44.1328125 C-11.82845686 43.13385657 -11.82845686 43.13385657 -11.28515625 41.046875 C-10.77651882 35.79987837 -10.94233696 32.53377623 -14 28 C-14.7425 27.360625 -15.485 26.72125 -16.25 26.0625 C-18 24 -18 24 -17.8125 20.8125 C-17.544375 19.554375 -17.27625 18.29625 -17 17 C-16.88875619 15.47966795 -16.78482137 13.95878672 -16.6875 12.4375 C-16.22085457 8.09695678 -14.81942898 5.39989965 -12 2 C-7.95308865 -0.6979409 -4.75253951 -0.65804393 0 0 Z " fill="#D9D6D4" transform="translate(122,33)"/>
<path d="M0 0 C5.49152542 0.61016949 5.49152542 0.61016949 7.875 2.4375 C9 4 9 4 9 6 C9.99 6 10.98 6 12 6 C12 5.01 12 4.02 12 3 C13.65 3.33 15.3 3.66 17 4 C17.24935162 7.49092266 17.23356287 9.56333897 15.5625 12.6875 C12.68714797 18.7832463 12.44396847 25.48117094 14 32 C14.99 32 15.98 32 17 32 C17.125 38.625 17.125 38.625 16 42 C15.47876218 46.77876435 15.47876218 46.77876435 17.5 50.875 C19.58731517 53.83202982 19.10646425 56.162147 18.8125 59.68359375 C18.83720285 62.13598168 18.83720285 62.13598168 20.45703125 64.40625 C24.77123724 71.65848487 23.08718147 83.506512 23.125 91.8125 C23.12975342 92.70267822 23.13450684 93.59285645 23.1394043 94.51000977 C23.12267919 100.87732081 23.12267919 100.87732081 22 102 C18.90189004 116.11166723 17.26602969 131.73484845 20 146 C20.66 146 21.32 146 22 146 C21.505 144.02 21.505 144.02 21 142 C21.66 142 22.32 142 23 142 C23.66 143.98 24.32 145.96 25 148 C22.1875 148.25 22.1875 148.25 19 148 C14.82765487 144.27469185 14.10372307 138.35993396 13.69702148 133.02758789 C13.66263517 131.59279949 13.63772096 130.15776032 13.62109375 128.72265625 C13.60409927 127.95247665 13.5871048 127.18229706 13.56959534 126.38877869 C13.51689295 123.94676745 13.47639652 121.50476684 13.4375 119.0625 C13.39325836 116.62389099 13.34627843 114.18539795 13.29469299 111.74693298 C13.26328125 110.23657567 13.23623434 108.72611846 13.21446228 107.21559143 C13.1364608 103.18219576 12.78728673 99.29830413 12.24525452 95.29502869 C11.69883627 90.18178726 11.65264821 85.02767098 11.5 79.890625 C11.41667947 77.33723917 11.33334574 74.78385376 11.25 72.23046875 C11.14498477 68.89746588 11.04069756 65.56444373 10.9375 62.23138428 C10.79640592 57.6801358 10.64896348 53.12912173 10.5 48.578125 C10.46455078 47.37706116 10.42910156 46.17599731 10.39257812 44.9385376 C10.35583984 43.82347839 10.31910156 42.70841919 10.28125 41.55957031 C10.25095703 40.57998352 10.22066406 39.60039673 10.18945312 38.59112549 C10.01946121 36.26616835 9.65147277 34.23160745 9 32 C8.28890611 36.56734121 7.83586075 41.02956015 7.68359375 45.6484375 C7.64177979 46.89294678 7.59996582 48.13745605 7.55688477 49.41967773 C7.51748779 50.72493408 7.47809082 52.03019043 7.4375 53.375 C7.39324751 54.73315755 7.34889474 56.09131184 7.30444336 57.44946289 C7.08383502 64.44979607 6.96351957 71.43442286 7.0625 78.4375 C7.1163791 86.0036648 6.68342635 93.60123726 5 101 C4.01 101.495 4.01 101.495 3 102 C3.11680158 97.31226823 3.24271512 92.62481813 3.375 87.9375 C3.3954538 87.21270447 3.41590759 86.48790894 3.4369812 85.7411499 C3.84110593 71.76998066 4.52587853 57.81993565 5.33935547 43.86694336 C5.55834006 40.03383519 5.7460418 36.20052544 5.90313721 32.36437988 C5.96996254 30.73320175 6.04271344 29.10225931 6.12030029 27.47155762 C6.23243848 24.92642457 6.30639004 22.38267429 6.37109375 19.8359375 C6.42862572 18.68504135 6.42862572 18.68504135 6.48731995 17.51089478 C6.56832163 12.18999906 5.27015628 9.05538889 2.17835999 4.73233032 C1 3 1 3 0 0 Z " fill="#938F8B" transform="translate(111,165)"/>
<path d="M0 0 C1.32 0 2.64 0 4 0 C3.67 5.28 3.34 10.56 3 16 C4.65 16 6.3 16 8 16 C10.67578125 16.875 10.67578125 16.875 13.3125 18 C14.19550781 18.37125 15.07851562 18.7425 15.98828125 19.125 C16.65214844 19.41375 17.31601563 19.7025 18 20 C17.6875 21.9296875 17.6875 21.9296875 17 24 C16.01 24.37125 15.02 24.7425 14 25.125 C10.84243672 26.61516571 10.84243672 26.61516571 10.48828125 29.05859375 C10.36754534 30.77840977 10.27256992 32.50016854 10.19921875 34.22265625 C9.8828618 38.63304432 8.81693859 42.9623587 7 47 C6.01 47.66 5.02 48.32 4 49 C4.52268466 46.23723823 5.10869587 43.6739124 6 41 C6.06970052 38.60509014 6.08448003 36.20832309 6.0625 33.8125 C6.05347656 32.54019531 6.04445313 31.26789063 6.03515625 29.95703125 C6.02355469 28.98121094 6.01195313 28.00539063 6 27 C5.34 27 4.68 27 4 27 C3.93425781 27.804375 3.86851563 28.60875 3.80078125 29.4375 C2.34961922 40.02517815 -1.94350959 48.17932078 -7.35229492 57.34570312 C-13.02427271 67.12402803 -14.38915918 75.32477267 -13.83398438 86.44921875 C-13.74241537 89.7014973 -13.7920413 91.65754333 -15.50390625 94.4765625 C-15.99761719 94.97929687 -16.49132812 95.48203125 -17 96 C-21.29245529 94.46698025 -23.01922537 92.0322912 -25 88 C-26.32618999 80.02959815 -24.09662453 72.82646463 -21.70214844 65.28515625 C-20.87322159 62.58739711 -20.11113281 59.87434581 -19.3515625 57.15625 C-18.90985718 55.59040161 -18.90985718 55.59040161 -18.45922852 53.99291992 C-17.87666778 51.92675636 -17.29876267 49.85927242 -16.72631836 47.7902832 C-15.28221314 42.74902049 -13.64221354 38.04597777 -11.390625 33.3046875 C-9.19782222 28.66573021 -7.95008893 24.36890175 -7.1875 19.3125 C-7.06697266 18.59900391 -6.94644531 17.88550781 -6.82226562 17.15039062 C-6.5345858 15.43581885 -6.26516723 13.71819742 -6 12 C-5.34 12 -4.68 12 -4 12 C-1.8755025 8.45917084 -1.53491637 5.05008109 -1 1 C-0.67 0.67 -0.34 0.34 0 0 Z " fill="#B1ADA8" transform="translate(94,94)"/>
<path d="M0 0 C4.46022227 2.23011113 6.90159688 4.48843329 9 9 C10.125 12.4375 10.125 12.4375 11 16 C11.33 16.928125 11.66 17.85625 12 18.8125 C12 24.007843 9.10012348 27.95242305 6 32 C2.53145336 35 2.53145336 35 0 35 C0.103125 36.093125 0.20625 37.18625 0.3125 38.3125 C0.209375 39.529375 0.10625 40.74625 0 42 C-2.1875 43.8125 -2.1875 43.8125 -5 45 C-6.2684375 45.5878125 -6.2684375 45.5878125 -7.5625 46.1875 C-10 47 -10 47 -14 47 C-12.125 41.125 -12.125 41.125 -11 40 C-10.80418005 36.03251752 -10.99810164 32.32500379 -13.44140625 29.09375 C-13.99699219 28.5265625 -14.55257812 27.959375 -15.125 27.375 C-18.00696492 24.37610572 -18.00696492 24.37610572 -17.9375 20.625 C-17.628125 19.42875 -17.31875 18.2325 -17 17 C-16.88288058 15.48010929 -16.77925673 13.95913249 -16.6875 12.4375 C-16.22085457 8.09695678 -14.81942898 5.39989965 -12 2 C-7.95308865 -0.6979409 -4.75253951 -0.65804393 0 0 Z " fill="#BDB9B5" transform="translate(122,33)"/>
<path d="M0 0 C1.13766102 3.5639084 1.0165157 6.73033297 0.84375 10.44921875 C0.79041504 11.75681152 0.73708008 13.0644043 0.68212891 14.41162109 C0.63732391 15.45609406 0.63732391 15.45609406 0.59161377 16.52166748 C0.17357516 26.40447901 -0.12152356 36.24834859 0.2578125 46.13671875 C0.28586975 46.8742186 0.313927 47.61171844 0.34283447 48.37156677 C0.48516818 51.90694522 0.65578883 55.43896747 0.85742188 58.97143555 C1.68516641 76.72455312 1.68516641 76.72455312 -3.98144531 83.29882812 C-6 85 -6 85 -8.0703125 85.0234375 C-8.74835938 84.80945313 -9.42640625 84.59546875 -10.125 84.375 C-10.80820313 84.17648437 -11.49140625 83.97796875 -12.1953125 83.7734375 C-14 83 -14 83 -16 81 C-15.81391 77.18515491 -14.72010445 74.38970935 -13 71.0625 C-10.38266704 65.60349125 -10.51624618 60.09124176 -10.46875 54.16015625 C-10.3140625 53.11730469 -10.159375 52.07445312 -10 51 C-7.96875 49.55859375 -7.96875 49.55859375 -6 49 C-6.2165625 48.09378906 -6.433125 47.18757813 -6.65625 46.25390625 C-8.23699948 39.33812726 -9.3668449 33.09233464 -9 26 C-11.475 25.01 -11.475 25.01 -14 24 C-14.05395478 22.37536158 -14.09277195 20.75021459 -14.125 19.125 C-14.14820312 18.22007812 -14.17140625 17.31515625 -14.1953125 16.3828125 C-14 14 -14 14 -12 12 C-12.33 11.01 -12.66 10.02 -13 9 C-12.34 9 -11.68 9 -11 9 C-10.34 7.68 -9.68 6.36 -9 5 C-8.01 6.485 -8.01 6.485 -7 8 C-6.01 8 -5.02 8 -4 8 C-3.855625 7.38125 -3.71125 6.7625 -3.5625 6.125 C-3 4 -3 4 -2 2 C-1.34 2 -0.68 2 0 2 C0 1.34 0 0.68 0 0 Z " fill="#B4AFAA" transform="translate(115,230)"/>
<path d="M0 0 C0.99 0 1.98 0 3 0 C3.9765625 4.8828125 4.953125 9.765625 5.9296875 14.6484375 C6.10725586 15.52467773 6.28482422 16.40091797 6.46777344 17.30371094 C6.83270534 19.15247602 7.17877216 21.00503583 7.50878906 22.86035156 C7.6734668 23.76495117 7.83814453 24.66955078 8.0078125 25.6015625 C8.15105957 26.42221191 8.29430664 27.24286133 8.44189453 28.08837891 C8.62606934 28.71921387 8.81024414 29.35004883 9 30 C9.66 30.33 10.32 30.66 11 31 C11 31.99 11 32.98 11 34 C11.66 34 12.32 34 13 34 C15.45630383 38.4295119 16.60437968 42.32930204 17.4375 47.3125 C18.38040301 52.60230198 19.77211756 57.13837088 22.15234375 61.953125 C23.62876436 65.51830657 23.75032538 69.18552664 24 73 C24.23175329 75.37992807 24.55826823 77.64409722 25 80 C25.99 80.495 25.99 80.495 27 81 C25.35 82.65 23.7 84.3 22 86 C22.99 86.33 23.98 86.66 25 87 C25 87.66 25 88.32 25 89 C22.6875 89.625 22.6875 89.625 20 90 C19.01 89.34 18.02 88.68 17 88 C17.33 86.35 17.66 84.7 18 83 C18.66 83 19.32 83 20 83 C18.70965402 70.07999725 14.64678087 60.35445234 8.21289062 49.14501953 C5.29386104 43.98266165 2.76615651 39.04927893 1.375 33.25 C0.56244781 29.90419689 -0.34532431 27.02650083 -2 24 C-2.72445312 24.04640625 -3.44890625 24.0928125 -4.1953125 24.140625 C-10.42808379 24.37331513 -14.06580936 24.21211396 -19 20 C-20.175625 19.13375 -20.175625 19.13375 -21.375 18.25 C-21.91125 17.8375 -22.4475 17.425 -23 17 C-22.34 15.68 -21.68 14.36 -21 13 C-14.07 13.495 -14.07 13.495 -7 14 C-7 14.66 -7 15.32 -7 16 C-4.36 16 -1.72 16 1 16 C0.835 15.030625 0.67 14.06125 0.5 13.0625 C-0.13396273 8.70512237 -0.0896672 4.39369296 0 0 Z " fill="#B6AFA9" transform="translate(143,94)"/>
<path d="M0 0 C0.99 0.33 1.98 0.66 3 1 C3.33 2.65 3.66 4.3 4 6 C4.33 6 4.66 6 5 6 C7.33499773 21.49020818 8.11194406 35.26641835 4.5 50.625 C1.66663271 62.6947686 -0.78148255 73.65092804 5.88671875 84.90234375 C7.35408127 87.66716366 7.40419174 89.92814275 7 93 C4.525 93.99 4.525 93.99 2 95 C1.34 94.34 0.68 93.68 0 93 C0 91.68 0 90.36 0 89 C-0.66 89 -1.32 89 -2 89 C-1.67 90.32 -1.34 91.64 -1 93 C-1.66 93 -2.32 93 -3 93 C-8.39802149 79.08557807 -4.57752006 60.55616609 -1.41015625 46.35546875 C0.16360996 37.31755424 1.11376067 18.67064101 -4 11 C-3.61486163 7.34118551 -2.68183773 2.68183773 0 0 Z " fill="#BCB8B4" transform="translate(134,218)"/>
<path d="M0 0 C5.49152542 0.61016949 5.49152542 0.61016949 7.875 2.4375 C9 4 9 4 9 6 C9.99 6 10.98 6 12 6 C12 5.01 12 4.02 12 3 C13.65 3.33 15.3 3.66 17 4 C17.3553853 8.9753942 16.23480046 11.61979109 14 16 C12.70349539 21.89320277 11.21211277 31.42422554 14 37 C14.01642167 39.25290594 13.96404159 41.50645584 13.87890625 43.7578125 C13.85529526 44.42086395 13.83168427 45.08391541 13.80735779 45.76705933 C13.73073184 47.88659129 13.64670357 50.00575685 13.5625 52.125 C13.50927819 53.56117994 13.4565378 54.9973778 13.40429688 56.43359375 C13.27511856 59.95595436 13.1392997 63.47802352 13 67 C14.32 67.66 15.64 68.32 17 69 C17.05399736 70.45792884 17.09279177 71.91642712 17.125 73.375 C17.14820313 74.18710938 17.17140625 74.99921875 17.1953125 75.8359375 C17 78 17 78 15 80 C14.85502015 82.58064129 14.81322455 85.04943884 14.875 87.625 C14.88853516 88.68460938 14.88853516 88.68460938 14.90234375 89.765625 C14.92592397 91.51056098 14.96179539 93.25532295 15 95 C14.34 95 13.68 95 13 95 C11.71469696 92.42939391 11.80627703 90.48206615 11.71875 87.60400391 C11.68201172 86.47588287 11.64527344 85.34776184 11.60742188 84.18545532 C11.57197266 82.96152069 11.53652344 81.73758606 11.5 80.4765625 C11.45939453 79.22370453 11.41878906 77.97084656 11.37695312 76.68002319 C11.24689252 72.6618072 11.12264582 68.6434471 11 64.625 C10.83857864 59.34617482 10.67081777 54.06759418 10.5 48.7890625 C10.46455078 47.56917633 10.42910156 46.34929016 10.39257812 45.09243774 C10.35583984 43.95801239 10.31910156 42.82358704 10.28125 41.65478516 C10.25095703 40.65710114 10.22066406 39.65941711 10.18945312 38.63150024 C10.02084633 36.28955509 9.6582503 34.2467039 9 32 C8.28890611 36.56734121 7.83586075 41.02956015 7.68359375 45.6484375 C7.64177979 46.89294678 7.59996582 48.13745605 7.55688477 49.41967773 C7.51748779 50.72493408 7.47809082 52.03019043 7.4375 53.375 C7.39324751 54.73315755 7.34889474 56.09131184 7.30444336 57.44946289 C7.08383502 64.44979607 6.96351957 71.43442286 7.0625 78.4375 C7.1163791 86.0036648 6.68342635 93.60123726 5 101 C4.01 101.495 4.01 101.495 3 102 C3.11680158 97.31226823 3.24271512 92.62481813 3.375 87.9375 C3.3954538 87.21270447 3.41590759 86.48790894 3.4369812 85.7411499 C3.84110593 71.76998066 4.52587853 57.81993565 5.33935547 43.86694336 C5.55834006 40.03383519 5.7460418 36.20052544 5.90313721 32.36437988 C5.96996254 30.73320175 6.04271344 29.10225931 6.12030029 27.47155762 C6.23243848 24.92642457 6.30639004 22.38267429 6.37109375 19.8359375 C6.42862572 18.68504135 6.42862572 18.68504135 6.48731995 17.51089478 C6.56832163 12.18999906 5.27015628 9.05538889 2.17835999 4.73233032 C1 3 1 3 0 0 Z " fill="#757372" transform="translate(111,165)"/>
<path d="M0 0 C2.00393694 3.00590541 2.28296049 3.89758247 2.52734375 7.31640625 C2.62946167 8.57916382 2.62946167 8.57916382 2.73364258 9.86743164 C2.80091553 10.7568042 2.86818848 11.64617676 2.9375 12.5625 C3.76319068 21.84102409 5.31544526 29.52791089 9.34765625 37.96484375 C12.17861097 44.15559019 14.18970273 50.48271434 16.125 57 C16.45886719 58.09828125 16.79273438 59.1965625 17.13671875 60.328125 C23.76862628 82.27843856 23.76862628 82.27843856 23 87 C21 90.375 21 90.375 19 93 C18.505 92.01 18.505 92.01 18 91 C15.97536745 90.34786708 15.97536745 90.34786708 14 90 C15.65 88.35 17.3 86.7 19 85 C18.54625 83.9275 18.0925 82.855 17.625 81.75 C15.90165921 77.22421717 15.23471695 72.71850601 14.625 67.9296875 C14.11227142 64.91624461 14.11227142 64.91624461 12.53515625 62.1015625 C10.78454935 58.56471293 10.12739455 55.37917851 9.4375 51.5 C8.59833001 46.83478381 7.60503751 42.4637953 6 38 C5.34 38 4.68 38 4 38 C4 37.01 4 36.02 4 35 C3.01 34.67 2.02 34.34 1 34 C-0.24982112 27.88322841 -1.44885252 21.75632314 -2.625 15.625 C-2.82766479 14.59052734 -2.82766479 14.59052734 -3.03442383 13.53515625 C-3.65661644 10.26374353 -4 7.3480635 -4 4 C-4.99 3.67 -5.98 3.34 -7 3 C-5.5459375 2.5359375 -5.5459375 2.5359375 -4.0625 2.0625 C-1.15934208 1.30476658 -1.15934208 1.30476658 0 0 Z " fill="#DEDAD8" transform="translate(150,90)"/>
<path d="M0 0 C4.01393158 8.02786316 6.58145516 16.14858926 6.04296875 25.171875 C6.02169922 26.07679688 6.02169922 26.07679688 6 27 C6.33 27.33 6.66 27.66 7 28 C7.14115161 30.67058851 7.04247107 33.32432238 7 36 C6.01 36 5.02 36 4 36 C3.67 35.67 3.34 35.34 3 35 C2.67 35.66 2.34 36.32 2 37 C1.34 37 0.68 37 0 37 C0 37.66 0 38.32 0 39 C0.66 39.33 1.32 39.66 2 40 C1.34 40.66 0.68 41.32 0 42 C-0.24287489 44.44012949 -0.24287489 44.44012949 -0.125 47.125 C-0.10695313 48.03507812 -0.08890625 48.94515625 -0.0703125 49.8828125 C-0.04710938 50.58148438 -0.02390625 51.28015625 0 52 C0.66 52 1.32 52 2 52 C2 52.66 2 53.32 2 54 C2.66 54 3.32 54 4 54 C4.19916016 55.61068359 4.19916016 55.61068359 4.40234375 57.25390625 C4.58069564 58.69010833 4.75908295 60.12630601 4.9375 61.5625 C5.02451172 62.26697266 5.11152344 62.97144531 5.20117188 63.69726562 C5.75384491 68.13911927 6.35394596 72.57074664 7 77 C6.34 77 5.68 77 5 77 C5 81.62 5 86.24 5 91 C4.67 91 4.34 91 4 91 C3.96132812 89.9790625 3.96132812 89.9790625 3.921875 88.9375 C3.55747448 82.7095639 2.6275194 76.89392235 1.0625 70.875 C0.88396484 70.18752686 0.70542969 69.50005371 0.52148438 68.79174805 C0.01621584 66.86066909 -0.49181156 64.9303126 -1 63 C-3.09528515 54.74619717 -4.19871943 45.98408348 -2.5078125 37.54296875 C-0.45535557 27.26489597 -2.15784363 17.82950922 -5.22265625 8.046875 C-6 5 -6 5 -5 2 C-4.0234375 3.79036458 -3.046875 5.58072917 -2.0703125 7.37109375 C-1.08589976 9.16618315 -1.08589976 9.16618315 1 10 C0.67 6.7 0.34 3.4 0 0 Z " fill="#A09D9A" transform="translate(102,202)"/>
<path d="M0 0 C0.99 0 1.98 0 3 0 C3.9765625 4.8828125 4.953125 9.765625 5.9296875 14.6484375 C6.10725586 15.52467773 6.28482422 16.40091797 6.46777344 17.30371094 C6.83270534 19.15247602 7.17877216 21.00503583 7.50878906 22.86035156 C7.75580566 24.21725098 7.75580566 24.21725098 8.0078125 25.6015625 C8.15105957 26.42221191 8.29430664 27.24286133 8.44189453 28.08837891 C8.62606934 28.71921387 8.81024414 29.35004883 9 30 C9.66 30.33 10.32 30.66 11 31 C11 31.99 11 32.98 11 34 C11.66 34 12.32 34 13 34 C15.45630383 38.4295119 16.60437968 42.32930204 17.4375 47.3125 C18.38040301 52.60230198 19.77211756 57.13837088 22.15234375 61.953125 C23.62876436 65.51830657 23.75032538 69.18552664 24 73 C24.23175329 75.37992807 24.55826823 77.64409722 25 80 C25.66 80.33 26.32 80.66 27 81 C25.35 82.65 23.7 84.3 22 86 C23.485 86.495 23.485 86.495 25 87 C25 87.66 25 88.32 25 89 C22.6875 89.625 22.6875 89.625 20 90 C18.515 89.01 18.515 89.01 17 88 C17.33 86.35 17.66 84.7 18 83 C18.66 83 19.32 83 20 83 C19.84402344 81.85660156 19.68804687 80.71320313 19.52734375 79.53515625 C19.33043941 78.04430907 19.13384056 76.55342153 18.9375 75.0625 C18.83373047 74.30775391 18.72996094 73.55300781 18.62304688 72.77539062 C18.37334362 70.85525872 18.18209719 68.92771856 18 67 C18.33 66.67 18.66 66.34 19 66 C18.54803755 64.39402675 18.08817673 62.79027492 17.625 61.1875 C17.24214844 59.84751953 17.24214844 59.84751953 16.8515625 58.48046875 C16.04733339 55.79532104 16.04733339 55.79532104 14 53 C14 52.01 14 51.02 14 50 C13.01 49.67 12.02 49.34 11 49 C8.50936587 43.73135087 7.61326526 39.09486619 7.30859375 33.296875 C6.97414 30.80752301 6.13080461 29.22200906 5 27 C4.65625 24.88671875 4.65625 24.88671875 4.5 22.6875 C4.23304409 19.71215504 3.81712654 17.39759331 2.9375 14.5 C1.79607258 10.23867097 1.82125365 6.37928565 2 2 C1.34 2 0.68 2 0 2 C0 1.34 0 0.68 0 0 Z " fill="#C8C1BD" transform="translate(143,94)"/>
<path d="M0 0 C0.33 0.66 0.66 1.32 1 2 C0.34050489 3.33689507 -0.32779514 4.66945017 -1 6 C-1.4613978 7.98589932 -1.85313958 9.98880952 -2.1875 12 C-2.36667969 13.03125 -2.54585937 14.0625 -2.73046875 15.125 C-2.98236388 17.81188142 -2.73641459 19.45495117 -2 22 C-2.33 22.33 -2.66 22.66 -3 23 C-3.35840222 25.32961443 -3.68848712 27.66365343 -4 30 C-4.165 30.78375 -4.33 31.5675 -4.5 32.375 C-5.4981782 37.61543555 -6.05201428 42.70747189 -5.95703125 48.03515625 C-5.93950806 49.10576294 -5.93950806 49.10576294 -5.92163086 50.19799805 C-5.89088435 51.63342523 -5.84643347 53.06863345 -5.78735352 54.50317383 C-5.67401723 59.57267543 -5.67401723 59.57267543 -7.5078125 61.9765625 C-8.00023438 62.31429687 -8.49265625 62.65203125 -9 63 C-14.89140927 57.25965251 -14.89140927 57.25965251 -15.3125 52.375 C-15.19633721 45.02189567 -12.96252171 38.03090017 -11 31 C-10.73203613 30.02289063 -10.46407227 29.04578125 -10.18798828 28.0390625 C-9.30529318 24.83465674 -8.40556537 21.63551296 -7.5 18.4375 C-7.21568115 17.41454834 -6.9313623 16.39159668 -6.63842773 15.33764648 C-5.01084363 9.70484259 -3.16265815 4.94512119 0 0 Z " fill="#C2BBB7" transform="translate(86,126)"/>
<path d="M0 0 C6.18160604 0.53753096 11.326858 2.54582388 17 5 C16.6875 6.9296875 16.6875 6.9296875 16 9 C15.01 9.37125 14.02 9.7425 13 10.125 C9.84243672 11.61516571 9.84243672 11.61516571 9.48828125 14.05859375 C9.36754534 15.77840977 9.27256992 17.50016854 9.19921875 19.22265625 C8.8828618 23.63304432 7.81693859 27.9623587 6 32 C5.01 32.66 4.02 33.32 3 34 C3.52268466 31.23723823 4.10869587 28.6739124 5 26 C5.06970052 23.60509014 5.08448003 21.20832309 5.0625 18.8125 C5.05347656 17.54019531 5.04445313 16.26789063 5.03515625 14.95703125 C5.02355469 13.98121094 5.01195313 13.00539063 5 12 C4.34 12 3.68 12 3 12 C2.79697266 13.39798828 2.79697266 13.39798828 2.58984375 14.82421875 C0.96437116 24.45052051 -1.87260291 31.66973568 -7 40 C-7.66 40 -8.32 40 -9 40 C-7 34 -7 34 -6.26953125 32.01953125 C-4.0289298 25.77541859 -2.96174706 19.54941796 -2 13 C-1.6256086 10.58323897 -1.25061911 8.16657052 -0.875 5.75 C-0.58256864 3.83344986 -0.2906156 1.91682632 0 0 Z " fill="#999795" transform="translate(95,109)"/>
<path d="M0 0 C4.10023204 3.72655382 3.60312604 7.29479056 3.87890625 12.6640625 C4.04226122 17.71256585 4.10196534 22.76158602 4.125 27.8125 C4.12975342 28.70251709 4.13450684 29.59253418 4.1394043 30.50952148 C4.12268116 36.87731884 4.12268116 36.87731884 3 38 C-0.09810996 52.11166723 -1.73397031 67.73484845 1 82 C1.66 82 2.32 82 3 82 C2.67 80.68 2.34 79.36 2 78 C2.66 78 3.32 78 4 78 C4.66 79.98 5.32 81.96 6 84 C3.1875 84.25 3.1875 84.25 0 84 C-3.57007708 80.93993393 -4.04439967 76.41046305 -5 72 C-4.34 72 -3.68 72 -3 72 C-3.01160156 70.99582031 -3.02320312 69.99164063 -3.03515625 68.95703125 C-3.11514933 59.10576204 -2.95209061 49.352116 -1.48828125 39.5859375 C0.46610669 26.4180755 0.18957881 13.28801596 0 0 Z " fill="#ABA59F" transform="translate(130,229)"/>
<path d="M0 0 C2.65777049 2.65777049 3.56953721 5.54304827 5 9 C5.35191406 9.63679688 5.70382813 10.27359375 6.06640625 10.9296875 C7.13807679 13.30619538 7.30110532 15.15436795 7.4375 17.75 C7.84575038 22.67087513 8.95641614 26.50411551 11 31 C11.66 31.33 12.32 31.66 13 32 C16.42549788 37.24529363 17.92587271 42.89443434 19 49 C15.43742373 47.81247458 15.30177525 47.24231225 13.66015625 44.02734375 C13.23669922 43.20943359 12.81324219 42.39152344 12.37695312 41.54882812 C11.94318359 40.68708984 11.50941406 39.82535156 11.0625 38.9375 C10.63259766 38.10283203 10.20269531 37.26816406 9.75976562 36.40820312 C8.90456479 34.74322183 8.05547192 33.07508848 7.21264648 31.40380859 C6.43421877 29.86074451 5.64792784 28.32160792 4.85180664 26.78759766 C0.86207386 19.03543596 -1.52363297 10.73339552 -2 2 C-1.34 1.34 -0.68 0.68 0 0 Z " fill="#8B867E" transform="translate(144,112)"/>
<path d="M0 0 C4.71190102 -0.37695208 8.07370593 -0.46314703 12.375 1.6875 C17.41830248 6.13040932 18.59792066 10.63671684 20 17 C18.68 17.99 17.36 18.98 16 20 C15.67 19.67 15.34 19.34 15 19 C13.865625 19 12.73125 19 11.5625 19 C8 19 8 19 6 18 C6 16.35 6 14.7 6 13 C6.33 13.66 6.66 14.32 7 15 C8.65 15 10.3 15 12 15 C12.33 14.34 12.66 13.68 13 13 C13.66 13.33 14.32 13.66 15 14 C12.84419696 11.60466329 11.36498733 10.13580924 8.3125 9 C7.549375 8.67 6.78625 8.34 6 8 C5.1875 5.875 5.1875 5.875 5 4 C3.68 4.33 2.36 4.66 1 5 C0.67 3.35 0.34 1.7 0 0 Z " fill="#E4E1DF" transform="translate(113,33)"/>
<path d="M0 0 C2.31 0 4.62 0 7 0 C7.66 1.98 8.32 3.96 9 6 C9.99 5.34 10.98 4.68 12 4 C14.125 4.1875 14.125 4.1875 16 5 C16.33 5.99 16.66 6.98 17 8 C15.35 8 13.7 8 12 8 C12 8.99 12 9.98 12 11 C14.64 11.33 17.28 11.66 20 12 C19.67 12.99 19.34 13.98 19 15 C18.01 15.33 17.02 15.66 16 16 C15.67 16.66 15.34 17.32 15 18 C13.35 17.67 11.7 17.34 10 17 C9.67 17.99 9.34 18.98 9 20 C8.76925781 19.33613281 8.53851563 18.67226562 8.30078125 17.98828125 C6.24856262 12.43187903 4.28643485 9.16736722 0 5 C-0.3125 2.1875 -0.3125 2.1875 0 0 Z " fill="#989693" transform="translate(104,52)"/>
<path d="M0 0 C0.33 0 0.66 0 1 0 C2.10621685 9.75603298 2.1173176 17.54237543 -1 27 C-1.66 26.67 -2.32 26.34 -3 26 C-2.67 24.68 -2.34 23.36 -2 22 C-4.7839183 23.39195915 -4.97898997 25.15575779 -6 28 C-8.475 27.01 -8.475 27.01 -11 26 C-11.3125 23.875 -11.3125 23.875 -11 21 C-9.77948164 19.49041151 -8.5524411 17.98317714 -7.2421875 16.55078125 C-5.41195272 14.26586551 -4.76184095 11.79341681 -4 9 C-3.67 8.34 -3.34 7.68 -3 7 C-2.34 7 -1.68 7 -1 7 C-0.67 4.69 -0.34 2.38 0 0 Z " fill="#C3C0BD" transform="translate(112,285)"/>
<path d="M0 0 C1 2 1 2 0.58203125 3.84765625 C0.20111328 4.94400391 0.20111328 4.94400391 -0.1875 6.0625 C-0.54908203 7.13177734 -0.54908203 7.13177734 -0.91796875 8.22265625 C-1.84241351 10.59550905 -2.85820444 12.86982563 -3.92578125 15.1796875 C-6.09840496 20.0269256 -7.59743408 24.94681026 -9 30.0625 C-9.25346191 30.97354492 -9.50692383 31.88458984 -9.76806641 32.82324219 C-10.52062523 35.54656145 -11.26099914 38.27297562 -12 41 C-12.2175293 41.78552246 -12.43505859 42.57104492 -12.65917969 43.38037109 C-16.51152553 56.57300107 -16.51152553 56.57300107 -15 70 C-13.0162233 71.28436734 -13.0162233 71.28436734 -11 72 C-11 72.66 -11 73.32 -11 74 C-15.29245529 72.46698025 -17.01922537 70.0322912 -19 66 C-20.32618999 58.02959815 -18.09662453 50.82646463 -15.70214844 43.28515625 C-14.87322159 40.58739711 -14.11113281 37.87434581 -13.3515625 35.15625 C-12.90985718 33.59040161 -12.90985718 33.59040161 -12.45922852 31.99291992 C-11.87666778 29.92675636 -11.29876267 27.85927242 -10.72631836 25.7902832 C-8.12767962 16.71863075 -4.3010904 8.37580762 0 0 Z " fill="#ACA8A7" transform="translate(88,116)"/>
<path d="M0 0 C1.859375 0.08203125 1.859375 0.08203125 4 1 C5.703125 3.51171875 5.703125 3.51171875 7.25 6.6875 C7.77078125 7.72261719 8.2915625 8.75773437 8.828125 9.82421875 C10.04590785 13.12441028 10.2298884 15.51510082 10 19 C8.35 19.66 6.7 20.32 5 21 C4.34 20.34 3.68 19.68 3 19 C3 17.68 3 16.36 3 15 C2.34 15 1.68 15 1 15 C1.33 16.32 1.66 17.64 2 19 C1.34 19 0.68 19 0 19 C-0.93983832 15.03179378 -1.13421572 11.32334639 -1.125 7.25 C-1.12757813 6.10015625 -1.13015625 4.9503125 -1.1328125 3.765625 C-1 1 -1 1 0 0 Z " fill="#DCDCDB" transform="translate(131,292)"/>
<path d="M0 0 C1.98 0.66 3.96 1.32 6 2 C6 2.66 6 3.32 6 4 C8.64 3.01 11.28 2.02 14 1 C13.65930765 4.15140423 13.41923159 5.60781561 11.0625 7.8125 C9 9 9 9 7 9 C7.103125 10.093125 7.20625 11.18625 7.3125 12.3125 C7.1578125 14.1378125 7.1578125 14.1378125 7 16 C4.8125 17.8125 4.8125 17.8125 2 19 C1.154375 19.391875 0.30875 19.78375 -0.5625 20.1875 C-3 21 -3 21 -7 21 C-5.7874262 17.27566618 -4.49140021 13.62197194 -3 10 C-0.69 10.33 1.62 10.66 4 11 C4.33 10.01 4.66 9.02 5 8 C5.99 7.67 6.98 7.34 8 7 C8.33 6.34 8.66 5.68 9 5 C6.36 4.67 3.72 4.34 1 4 C0.67 2.68 0.34 1.36 0 0 Z " fill="#AEABA7" transform="translate(115,59)"/>
<path d="M0 0 C2.93452581 4.40178872 2.79992389 8.81088723 3.25 14 C3.353125 15.010625 3.45625 16.02125 3.5625 17.0625 C3.65015625 18.031875 3.7378125 19.00125 3.828125 20 C3.9504248 21.3303125 3.9504248 21.3303125 4.07519531 22.6875 C4 25 4 25 2 28 C2.31730524 31.63939932 2.31730524 31.63939932 3 35 C-0.06147003 32.50630303 -0.56283114 30.44003928 -1.16796875 26.59765625 C-1.33876953 25.54255859 -1.50957031 24.48746094 -1.68554688 23.40039062 C-1.85119141 22.29888672 -2.01683594 21.19738281 -2.1875 20.0625 C-2.36474609 18.96486328 -2.54199219 17.86722656 -2.72460938 16.73632812 C-3.40630994 12.42240063 -4 8.37631064 -4 4 C-4.99 3.67 -5.98 3.34 -7 3 C-5.5459375 2.5359375 -5.5459375 2.5359375 -4.0625 2.0625 C-1.15934208 1.30476658 -1.15934208 1.30476658 0 0 Z " fill="#CCC8C3" transform="translate(150,90)"/>
<path d="M0 0 C3.20878901 3.90329402 3.94276458 7.12045189 5 12 C4.34 12 3.68 12 3 12 C2.79697266 13.39798828 2.79697266 13.39798828 2.58984375 14.82421875 C0.96437116 24.45052051 -1.87260291 31.66973568 -7 40 C-7.66 40 -8.32 40 -9 40 C-7 34 -7 34 -6.26953125 32.01953125 C-4.0289298 25.77541859 -2.96174706 19.54941796 -2 13 C-1.6256086 10.58323897 -1.25061911 8.16657052 -0.875 5.75 C-0.58256864 3.83344986 -0.2906156 1.91682632 0 0 Z " fill="#645F5D" transform="translate(95,109)"/>
<path d="M0 0 C0.66 0.33 1.32 0.66 2 1 C0.88004892 8.69472271 -0.40700956 16.3364294 -1.89599609 23.96679688 C-2.75845457 28.46413368 -3.38778417 32.95146637 -3.9375 37.5 C-4.69858257 43.16942014 -6.20773518 47.04598176 -9 52 C-9.15210937 52.79664063 -9.30421875 53.59328125 -9.4609375 54.4140625 C-10.0583 57.27967102 -11.09426631 59.29014982 -12.5625 61.8125 C-13.01753906 62.60269531 -13.47257812 63.39289063 -13.94140625 64.20703125 C-14.29074219 64.79871094 -14.64007813 65.39039063 -15 66 C-15.79856676 63.69132303 -16.15765061 62.44453805 -15.328125 60.10546875 C-14.97234375 59.47253906 -14.6165625 58.83960938 -14.25 58.1875 C-12.8383985 55.57360343 -11.51914652 52.99241305 -10.375 50.25 C-9 47 -9 47 -7.90234375 45.07421875 C-6.83348708 42.61723653 -6.95639699 41.21800442 -7.1875 38.5625 C-7.35499989 31.66708795 -5.59122039 25.32365648 -3.8659668 18.70141602 C-2.42421243 13.11129132 -1.5810304 7.74261117 -1 2 C-0.67 1.34 -0.34 0.68 0 0 Z " fill="#8E8A84" transform="translate(96,95)"/>
<path d="M0 0 C1.12608031 3.37824094 1.02668292 5.70561495 0.87890625 9.2578125 C0.83064697 10.5152124 0.7823877 11.7726123 0.73266602 13.06811523 C0.67597703 14.42041154 0.61925438 15.77270644 0.5625 17.125 C0.45428648 19.86834475 0.35079015 22.61184171 0.25 25.35546875 C0.22519058 26.02661209 0.20038116 26.69775543 0.17481995 27.38923645 C-0.00147905 32.41121722 -0.01977767 37.41429567 0.0625 42.4375 C0.1163791 50.0036648 -0.31657365 57.60123726 -2 65 C-2.99 65.495 -2.99 65.495 -4 66 C-3.59470769 48.9843131 -3.04661608 31.98959648 -2 15 C-1.95820618 14.29738037 -1.91641235 13.59476074 -1.87335205 12.87084961 C-1.75441578 10.89272713 -1.62741715 8.91509431 -1.5 6.9375 C-1.4278125 5.81214844 -1.355625 4.68679687 -1.28125 3.52734375 C-1 1 -1 1 0 0 Z " fill="#898786" transform="translate(118,201)"/>
<path d="M0 0 C-0.44925138 4.82945236 -1.54736544 7.54736544 -5 11 C-5.99 11 -6.98 11 -8 11 C-9.67099977 11.31088368 -11.33871537 11.64080332 -13 12 C-13 11.34 -13 10.68 -13 10 C-13.99 9.67 -14.98 9.34 -16 9 C-15.01 9 -14.02 9 -13 9 C-13 8.34 -13 7.68 -13 7 C-13.99 6.67 -14.98 6.34 -16 6 C-15.01 5.67 -14.02 5.34 -13 5 C-13 4.01 -13 3.02 -13 2 C-11.906875 1.690625 -10.81375 1.38125 -9.6875 1.0625 C-2.78181818 -0.92727273 -2.78181818 -0.92727273 0 0 Z " fill="#CECBC8" transform="translate(134,51)"/>
<path d="M0 0 C3.48029939 2.32019959 3.78452754 3.7527819 4.65136719 7.72265625 C5.22832186 11.49144697 5.21069895 15.19628484 5.125 19 C5.11597656 19.77472656 5.10695312 20.54945313 5.09765625 21.34765625 C5.07439388 23.23190843 5.0385364 25.11599832 5 27 C3.35 26.67 1.7 26.34 0 26 C-0.33895656 24.27192682 -0.67091525 22.54248026 -1 20.8125 C-1.185625 19.84957031 -1.37125 18.88664062 -1.5625 17.89453125 C-1.96877612 15.2065794 -2.07933572 12.71228981 -2 10 C-1.34 10 -0.68 10 0 10 C-0.08378906 9.36191406 -0.16757813 8.72382813 -0.25390625 8.06640625 C-0.35574219 7.24011719 -0.45757812 6.41382813 -0.5625 5.5625 C-0.66691406 4.73878906 -0.77132812 3.91507813 -0.87890625 3.06640625 C-0.91886719 2.38449219 -0.95882812 1.70257813 -1 1 C-0.67 0.67 -0.34 0.34 0 0 Z " fill="#C8C5C3" transform="translate(136,230)"/>
<path d="M0 0 C5.49152542 0.61016949 5.49152542 0.61016949 7.875 2.4375 C9 4 9 4 9 6 C9.99 6 10.98 6 12 6 C12 5.01 12 4.02 12 3 C13.65 3.33 15.3 3.66 17 4 C17.3553853 8.9753942 16.23480046 11.61979109 14 16 C13.65596692 18.33177975 13.32050798 20.66487041 13 23 C12.34 23.33 11.68 23.66 11 24 C10.97284617 22.25008666 10.95353449 20.50005055 10.9375 18.75 C10.92589844 17.77546875 10.91429688 16.8009375 10.90234375 15.796875 C10.98804423 13.34241322 11.29293934 11.33831086 12 9 C11.236875 8.855625 10.47375 8.71125 9.6875 8.5625 C4.68448886 7.51535813 2.94826118 6.16823132 0 2 C0 1.34 0 0.68 0 0 Z " fill="#948E88" transform="translate(111,165)"/>
<path d="M0 0 C0.99 0 1.98 0 3 0 C3.9765625 4.8828125 4.953125 9.765625 5.9296875 14.6484375 C6.10612793 15.52693359 6.28256836 16.40542969 6.46435547 17.31054688 C6.82848747 19.13884137 7.18667182 20.96832838 7.53955078 22.79882812 C7.71212402 23.68763672 7.88469727 24.57644531 8.0625 25.4921875 C8.29259766 26.69270752 8.29259766 26.69270752 8.52734375 27.91748047 C8.97484471 30.15350553 8.97484471 30.15350553 10.125 32.75 C11.22703141 35.58379506 11.14010149 37.98781792 11 41 C11.66 41 12.32 41 13 41 C13.48828125 43.01822917 13.9765625 45.03645833 14.46484375 47.0546875 C14.94846992 49.0585657 14.94846992 49.0585657 16 51 C15.34 51.66 14.68 52.32 14 53 C14 52.01 14 51.02 14 50 C13.01 49.67 12.02 49.34 11 49 C8.50936587 43.73135087 7.61326526 39.09486619 7.30859375 33.296875 C6.97414 30.80752301 6.13080461 29.22200906 5 27 C4.65625 24.88671875 4.65625 24.88671875 4.5 22.6875 C4.23304409 19.71215504 3.81712654 17.39759331 2.9375 14.5 C1.79607258 10.23867097 1.82125365 6.37928565 2 2 C1.34 2 0.68 2 0 2 C0 1.34 0 0.68 0 0 Z " fill="#B1AAA3" transform="translate(143,94)"/>
<path d="M0 0 C1.485 0.99 1.485 0.99 3 2 C5.62531524 2.16713569 5.62531524 2.16713569 8 2 C7.84402344 2.64582031 7.68804687 3.29164063 7.52734375 3.95703125 C6.71971668 8.61733859 6.64414103 13.30398027 6.48242188 18.02539062 C6.21585966 23.78414034 6.21585966 23.78414034 4 26 C3.29289322 27.64991582 2.62056011 29.31562256 2 31 C1.67 31 1.34 31 1 31 C1.00523682 30.23856689 1.01047363 29.47713379 1.01586914 28.69262695 C1.03669525 25.23259308 1.04967813 21.77257241 1.0625 18.3125 C1.07087891 17.11431641 1.07925781 15.91613281 1.08789062 14.68164062 C1.09111328 13.52470703 1.09433594 12.36777344 1.09765625 11.17578125 C1.10289307 10.11270752 1.10812988 9.04963379 1.11352539 7.9543457 C1.00716844 5.1865491 0.62894788 2.69207103 0 0 Z " fill="#767173" transform="translate(116,171)"/>
<path d="M0 0 C0.33 0 0.66 0 1 0 C1.09278949 4.60467839 0.79012392 8.8427614 0 13.375 C-0.8423042 18.95451861 -1.19241093 24.35857012 -1.1875 30 C-1.18814453 30.70560059 -1.18878906 31.41120117 -1.18945312 32.13818359 C-1.14701184 36.18650383 -0.77582287 40.02778689 0 44 C0.66 44 1.32 44 2 44 C1.67 42.68 1.34 41.36 1 40 C1.66 40 2.32 40 3 40 C3.66 41.98 4.32 43.96 5 46 C2.1875 46.25 2.1875 46.25 -1 46 C-4.57007708 42.93993393 -5.04439967 38.41046305 -6 34 C-5.34 34 -4.68 34 -4 34 C-4 28.72 -4 23.44 -4 18 C-3.34 18 -2.68 18 -2 18 C-1.93941406 17.11957031 -1.87882813 16.23914063 -1.81640625 15.33203125 C-1.73261719 14.17058594 -1.64882812 13.00914062 -1.5625 11.8125 C-1.48128906 10.66394531 -1.40007812 9.51539063 -1.31640625 8.33203125 C-1.04596188 5.48401829 -0.62478253 2.78789518 0 0 Z " fill="#B5B1AC" transform="translate(131,267)"/>
<path d="M0 0 C0.66 0 1.32 0 2 0 C2.28875 0.969375 2.5775 1.93875 2.875 2.9375 C3.64214682 6.10664203 3.64214682 6.10664203 6 7 C6 8.65 6 10.3 6 12 C6.66 12.33 7.32 12.66 8 13 C6.35 14.65 4.7 16.3 3 18 C3.99 18.33 4.98 18.66 6 19 C6 19.66 6 20.32 6 21 C3.6875 21.625 3.6875 21.625 1 22 C0.01 21.34 -0.98 20.68 -2 20 C-1.67 18.35 -1.34 16.7 -1 15 C-0.34 15 0.32 15 1 15 C0.835 14.195625 0.67 13.39125 0.5 12.5625 C-0.09247348 8.34112648 -0.08506709 4.25335455 0 0 Z " fill="#8B8887" transform="translate(162,162)"/>
<path d="M0 0 C0.33 0 0.66 0 1 0 C1.1567564 7.71589817 0.67453101 15.31516461 0 23 C-1.32 23 -2.64 23 -4 23 C-4 27.29 -4 31.58 -4 36 C-4.66 35.67 -5.32 35.34 -6 35 C-6.55353075 17.14350797 -6.55353075 17.14350797 -3 9 C-2.67 9 -2.34 9 -2 9 C-1.34 6.03 -0.68 3.06 0 0 Z " fill="#BBB7B5" transform="translate(135,270)"/>
<path d="M0 0 C0.33 0 0.66 0 1 0 C1.02709444 2.08326131 1.04643873 4.16662441 1.0625 6.25 C1.07410156 7.41015625 1.08570312 8.5703125 1.09765625 9.765625 C1 13 1 13 0.50390625 14.96484375 C-0.26690482 18.07796443 -0.13143049 21.11332943 -0.125 24.3125 C-0.12757812 25.58738281 -0.13015625 26.86226562 -0.1328125 28.17578125 C-0.00504018 31.85487234 0.47195694 35.36138396 1 39 C0.5625 41.9375 0.5625 41.9375 0 44 C-2.57117718 39.37188108 -3.12613959 35.00615254 -3.1328125 29.76171875 C-3.13410156 28.77623047 -3.13539062 27.79074219 -3.13671875 26.77539062 C-3.13285156 25.75638672 -3.12898438 24.73738281 -3.125 23.6875 C-3.13080078 22.17639648 -3.13080078 22.17639648 -3.13671875 20.63476562 C-3.1293704 14.9949066 -2.83967361 9.57783182 -2 4 C-1.34 4 -0.68 4 0 4 C0 2.68 0 1.36 0 0 Z " fill="#939091" transform="translate(95,155)"/>
<path d="M0 0 C0.3690205 14.78132118 0.3690205 14.78132118 -2 21 C-2.66 21 -3.32 21 -4 21 C-4.33 21.99 -4.66 22.98 -5 24 C-5.33 24 -5.66 24 -6 24 C-6 18.72 -6 13.44 -6 8 C-5.34 8 -4.68 8 -4 8 C-3.87625 6.865625 -3.7525 5.73125 -3.625 4.5625 C-3.41875 3.386875 -3.2125 2.21125 -3 1 C-1 0 -1 0 0 0 Z " fill="#BAB5B0" transform="translate(113,271)"/>
<path d="M0 0 C0.66 0 1.32 0 2 0 C2.12117188 1.07121094 2.24234375 2.14242187 2.3671875 3.24609375 C2.53597601 4.64328752 2.70527313 6.04041991 2.875 7.4375 C2.95363281 8.14455078 3.03226562 8.85160156 3.11328125 9.58007812 C3.33927676 11.39673432 3.66300727 13.20062522 4 15 C7.14369796 16.57184898 10.54301808 16.4608622 14 16.6875 C14.73734375 16.74744141 15.4746875 16.80738281 16.234375 16.86914062 C18.15249494 16.99689861 20.0776401 17.00621453 22 17 C22.66 16.34 23.32 15.68 24 15 C24.33 16.32 24.66 17.64 25 19 C16.58969882 21.80343373 8.2500338 19.06250845 0 17 C0 11.39 0 5.78 0 0 Z " fill="#C7C2BC" transform="translate(97,90)"/>
<path d="M0 0 C1.55913346 3.11826692 0.66585225 5.67073874 0 9 C-0.99 9.495 -0.99 9.495 -2 10 C-2.1546875 11.2065625 -2.1546875 11.2065625 -2.3125 12.4375 C-3 15 -3 15 -5.25 16.375 C-9.32695704 17.30158115 -12.10658902 16.29780366 -16 15 C-15.36191406 14.79246094 -14.72382812 14.58492187 -14.06640625 14.37109375 C-11.51822592 13.42099219 -9.27823491 12.49128736 -7 11 C-6.25248627 7.51745287 -6.25248627 7.51745287 -6 4 C-2.9375 1.5625 -2.9375 1.5625 0 0 Z " fill="#C4C0BB" transform="translate(128,64)"/>
<path d="M0 0 C0.66 0 1.32 0 2 0 C2.13277344 0.62648437 2.26554688 1.25296875 2.40234375 1.8984375 C2.57894531 2.71570312 2.75554687 3.53296875 2.9375 4.375 C3.11152344 5.18710937 3.28554687 5.99921875 3.46484375 6.8359375 C3.92330693 9.029463 3.92330693 9.029463 5 11 C3.68 11.99 2.36 12.98 1 14 C0.67 13.67 0.34 13.34 0 13 C-1.134375 13 -2.26875 13 -3.4375 13 C-7 13 -7 13 -9 12 C-9 10.35 -9 8.7 -9 7 C-8.67 7.66 -8.34 8.32 -8 9 C-6.35 9 -4.7 9 -3 9 C-2.67 8.34 -2.34 7.68 -2 7 C-1.34 7.33 -0.68 7.66 0 8 C-0.99 6.68 -1.98 5.36 -3 4 C-2.34 4 -1.68 4 -1 4 C-0.67 2.68 -0.34 1.36 0 0 Z " fill="#D5D4D3" transform="translate(128,39)"/>
<path d="M0 0 C2.36557373 2.13300328 3.62967528 3.95949399 4.75 6.9375 C5.01296875 7.60652344 5.2759375 8.27554688 5.546875 8.96484375 C6.07046274 11.31647491 5.74954377 12.73617523 5 15 C3.02 15.33 1.04 15.66 -1 16 C-2.125 13.25 -2.125 13.25 -3 10 C-2.0625 7.9375 -2.0625 7.9375 -1 6 C-1.30378052 3.31006947 -1.30378052 3.31006947 -2 1 C-1.34 0.67 -0.68 0.34 0 0 Z " fill="#CCCBCA" transform="translate(139,136)"/>
<path d="M0 0 C2.475 0.495 2.475 0.495 5 1 C5 1.66 5 2.32 5 3 C7.97 3.33 10.94 3.66 14 4 C13.67 4.99 13.34 5.98 13 7 C12.01 7.33 11.02 7.66 10 8 C9.67 8.66 9.34 9.32 9 10 C7.35 9.67 5.7 9.34 4 9 C3.67 9.99 3.34 10.98 3 12 C2.49166409 10.75336669 1.99368855 9.50250613 1.5 8.25 C1.2215625 7.55390625 0.943125 6.8578125 0.65625 6.140625 C0 4 0 4 0 0 Z " fill="#878582" transform="translate(110,60)"/>
<path d="M0 0 C2.98941468 1.49470734 3.53778532 4.07557063 5 7 C5.66 7.33 6.32 7.66 7 8 C7 8.66 7 9.32 7 10 C7.66 10 8.32 10 9 10 C9.33 11.65 9.66 13.3 10 15 C9.01 15.33 8.02 15.66 7 16 C7 18.97 7 21.94 7 25 C6.67 25 6.34 25 6 25 C4.99379031 21.39753737 3.99610413 17.79276877 3 14.1875 C2.71382813 13.16333984 2.42765625 12.13917969 2.1328125 11.08398438 C1.86210938 10.10107422 1.59140625 9.11816406 1.3125 8.10546875 C1.06113281 7.19949951 0.80976562 6.29353027 0.55078125 5.36010742 C0 3 0 3 0 0 Z " fill="#8F8C8A" transform="translate(96,204)"/>
<path d="M0 0 C0.33 0 0.66 0 1 0 C1.30416035 3.04160348 1.56904321 6.07843978 1.8125 9.125 C1.90208984 9.9809375 1.99167969 10.836875 2.08398438 11.71875 C2.40765145 16.14787834 2.54750639 18.96934953 -0.4375 22.4375 C-1.283125 23.283125 -2.12875 24.12875 -3 25 C-3.86542699 27.72113503 -3.86542699 27.72113503 -4 30 C-2.35 30.33 -0.7 30.66 1 31 C1.66 30.01 2.32 29.02 3 28 C3 29.32 3 30.64 3 32 C3.66 32.33 4.32 32.66 5 33 C3 34 3 34 -0.5 33.1875 C-4 32 -4 32 -6 30 C-5.81391 26.18515491 -4.72010445 23.38970935 -3 20.0625 C-0.00542176 13.74784589 -0.18095374 6.86719449 0 0 Z " fill="#ACA8A7" transform="translate(105,281)"/>
<path d="M0 0 C0.99 0.66 1.98 1.32 3 2 C3.36328125 4.09375 3.36328125 4.09375 3.3125 6.5 C3.30863281 7.2940625 3.30476562 8.088125 3.30078125 8.90625 C3 11 3 11 1 13 C0.85502015 15.58064129 0.81322455 18.04943884 0.875 20.625 C0.88853516 21.68460938 0.88853516 21.68460938 0.90234375 22.765625 C0.92592397 24.51056098 0.96179539 26.25532295 1 28 C0.34 28 -0.32 28 -1 28 C-2.20029908 25.59940183 -2.11459743 24.10639351 -2.09765625 21.4296875 C-2.09443359 20.53378906 -2.09121094 19.63789063 -2.08789062 18.71484375 C-2.07951172 17.77769531 -2.07113281 16.84054688 -2.0625 15.875 C-2.05798828 14.93011719 -2.05347656 13.98523438 -2.04882812 13.01171875 C-2.03702357 10.67441613 -2.02055759 8.33723939 -2 6 C-1.34 6 -0.68 6 0 6 C0 4.02 0 2.04 0 0 Z " fill="#807F7D" transform="translate(125,232)"/>
<path d="M0 0 C0.33 0.99 0.66 1.98 1 3 C1.88042969 3.13277344 2.76085937 3.26554687 3.66796875 3.40234375 C4.82941406 3.57894531 5.99085937 3.75554687 7.1875 3.9375 C8.33605469 4.11152344 9.48460938 4.28554687 10.66796875 4.46484375 C13.46325212 4.91379313 16.22933586 5.42082162 19 6 C18.67 8.31 18.34 10.62 18 13 C17.34 13 16.68 13 16 13 C16 12.01 16 11.02 16 10 C10.04446564 8.65590828 10.04446564 8.65590828 4.0625 7.4375 C2 7 2 7 0 6 C0 4.02 0 2.04 0 0 Z " fill="#BCB5B0" transform="translate(96,104)"/>
<path d="M0 0 C0.33 0 0.66 0 1 0 C1 7.26 1 14.52 1 22 C-1.31 20.02 -3.62 18.04 -6 16 C-5.34 14.68 -4.68 13.36 -4 12 C-4 11.13375 -4 10.2675 -4 9.375 C-4 7 -4 7 -2 5 C-1.29289322 3.35008418 -0.62056011 1.68437744 0 0 Z " fill="#9D9B9A" transform="translate(79,163)"/>
<path d="M0 0 C3.61867057 3.61867057 4.14651796 9.07365147 5 14 C4.96604495 16.55087339 4.62189827 18.51240692 4 21 C3.34 21 2.68 21 2 21 C-1.64361029 8.53381133 -1.64361029 8.53381133 -2 2 C-1.34 1.34 -0.68 0.68 0 0 Z " fill="#5A5455" transform="translate(144,112)"/>
<path d="M0 0 C0.33 0 0.66 0 1 0 C1.07476562 0.60328125 1.14953125 1.2065625 1.2265625 1.828125 C1.89341039 6.58163604 1.89341039 6.58163604 4.46875 10.453125 C5.93336104 11.37886971 7.46385551 12.19853331 9 13 C9 13.33 9 13.66 9 14 C7.95199219 14.05607422 7.95199219 14.05607422 6.8828125 14.11328125 C5.51769531 14.21189453 5.51769531 14.21189453 4.125 14.3125 C3.22007812 14.37050781 2.31515625 14.42851563 1.3828125 14.48828125 C-1.36221601 14.7882039 -1.36221601 14.7882039 -3 18 C-4.26264601 13.70700357 -3.62950412 11.12168689 -2 7 C-1.34 7 -0.68 7 0 7 C0 4.69 0 2.38 0 0 Z " fill="#E1E0DF" transform="translate(128,66)"/>
<path d="M0 0 C0.33 0 0.66 0 1 0 C1.3125 3.3125 1.3125 3.3125 1 7 C-1.1875 8.8125 -1.1875 8.8125 -4 10 C-4.845625 10.391875 -5.69125 10.78375 -6.5625 11.1875 C-9 12 -9 12 -13 12 C-12.34 10.02 -11.68 8.04 -11 6 C-10.2575 5.855625 -9.515 5.71125 -8.75 5.5625 C-7.09622716 5.22422828 -5.44732994 4.85788484 -3.8125 4.4375 C-2 4 -2 4 0 4 C0 2.68 0 1.36 0 0 Z " fill="#B8B5B2" transform="translate(121,68)"/>
<path d="M0 0 C2.32976763 1.8232964 2.99973834 2.99914028 3.875 5.875 C4.02609215 9.65230371 3.11955127 10.93842595 1 14 C0.30177383 15.65369357 -0.37498605 17.31727014 -1 19 C-1.66 18.67 -2.32 18.34 -3 18 C-2.7215625 17.1028125 -2.7215625 17.1028125 -2.4375 16.1875 C-1.77906313 13.83591238 -1.77906313 13.83591238 -3 11 C-2.6953125 8.5546875 -2.6953125 8.5546875 -2.125 5.875 C-1.94195312 4.98554688 -1.75890625 4.09609375 -1.5703125 3.1796875 C-1 1 -1 1 0 0 Z " fill="#B7B0AA" transform="translate(85,131)"/>
<path d="M0 0 C0.66 1.32 1.32 2.64 2 4 C1.01 5.485 1.01 5.485 0 7 C1.98 9.64 3.96 12.28 6 15 C5.01 15.99 4.02 16.98 3 18 C-2.94553641 12.20691325 -2.94553641 12.20691325 -3.09765625 8.8359375 C-3.08605469 8.02382812 -3.07445313 7.21171875 -3.0625 6.375 C-3.05347656 5.55773437 -3.04445313 4.74046875 -3.03515625 3.8984375 C-3.02355469 3.27195313 -3.01195313 2.64546875 -3 2 C-2.34 2.66 -1.68 3.32 -1 4 C-0.67 2.68 -0.34 1.36 0 0 Z " fill="#BCB7B3" transform="translate(74,171)"/>
<path d="M0 0 C1.4606285 2.64738916 2 3.89448334 2 7 C2.66 7 3.32 7 4 7 C4.06058594 7.61488281 4.12117188 8.22976563 4.18359375 8.86328125 C4.26738281 9.67152344 4.35117188 10.47976563 4.4375 11.3125 C4.51871094 12.11300781 4.59992188 12.91351563 4.68359375 13.73828125 C4.95265693 16.16087179 4.95265693 16.16087179 6 19 C5.91343435 21.39870613 5.76001509 23.79537281 5.5625 26.1875 C5.46066406 27.45980469 5.35882813 28.73210937 5.25390625 30.04296875 C5.17011719 31.01878906 5.08632812 31.99460937 5 33 C4.67 33 4.34 33 4 33 C3.96261719 32.27296875 3.92523438 31.5459375 3.88671875 30.796875 C3.52618936 25.28289604 2.89414313 20.15123448 1.4375 14.8125 C0.04413105 9.67867946 -0.26513493 5.30269861 0 0 Z " fill="#959290" transform="translate(102,260)"/>
<path d="M0 0 C2.87120794 2.87120794 2.76470827 5.50243778 3.11328125 9.4453125 C2.94016413 13.34940195 1.52259458 15.09519412 -1 18 C-1.33 17.34 -1.66 16.68 -2 16 C-4.02463255 15.34786708 -4.02463255 15.34786708 -6 15 C-5.154375 14.2575 -4.30875 13.515 -3.4375 12.75 C-2.633125 11.8425 -1.82875 10.935 -1 10 C-1.04497842 7.72476911 -1.04497842 7.72476911 -2 6 C-1.67 6 -1.34 6 -1 6 C-0.67 4.02 -0.34 2.04 0 0 Z " fill="#BEBCB9" transform="translate(170,165)"/>
<path d="M0 0 C0.33 0 0.66 0 1 0 C1 1.65 1 3.3 1 5 C1.66 5 2.32 5 3 5 C3.41910684 11.28660266 2.2767163 17.11614059 0 23 C-1.60546875 24.828125 -1.60546875 24.828125 -3 26 C-3.66 25.67 -4.32 25.34 -5 25 C-5.625 22.4375 -5.625 22.4375 -6 20 C-5.01 19.67 -4.02 19.34 -3 19 C-2.67 20.65 -2.34 22.3 -2 24 C-1.93941406 23.33613281 -1.87882812 22.67226563 -1.81640625 21.98828125 C-1.10285714 14.46857143 -1.10285714 14.46857143 -0.4375 11.4375 C0.24374278 7.64200449 0.07540537 3.8456739 0 0 Z " fill="#C6C3C1" transform="translate(113,288)"/>
<path d="M0 0 C0.33 0 0.66 0 1 0 C1 1.65 1 3.3 1 5 C1.66 5.33 2.32 5.66 3 6 C2.34 9.3 1.68 12.6 1 16 C0.34 15.67 -0.32 15.34 -1 15 C-0.67 13.68 -0.34 12.36 0 11 C-2.7839183 12.39195915 -2.97898997 14.15575779 -4 17 C-5.125 15.25 -5.125 15.25 -6 13 C-5.25 11.0625 -5.25 11.0625 -4 9 C-3.67 8.175 -3.34 7.35 -3 6.5 C-2.10465354 4.26163385 -1.10893734 2.13866487 0 0 Z " fill="#DCD7D4" transform="translate(110,296)"/>
<path d="M0 0 C0.75925781 0.2165625 1.51851563 0.433125 2.30078125 0.65625 C3.29464844 0.9346875 4.28851563 1.213125 5.3125 1.5 C6.29863281 1.7784375 7.28476563 2.056875 8.30078125 2.34375 C11.02287203 3.11812196 11.02287203 3.11812196 14 3 C14.66 3 15.32 3 16 3 C15.34 4.32 14.68 5.64 14 7 C4.90495571 7.62485037 4.90495571 7.62485037 1.375 5.1875 C0 3 0 3 0 0 Z " fill="#918B85" transform="translate(126,111)"/>
<path d="M0 0 C6.35891766 7.23600975 7.50944139 13.64555471 8 23 C7.34 22.67 6.68 22.34 6 22 C5.375 18.9375 5.375 18.9375 5 16 C4.34 16 3.68 16 3 16 C2.67 16.66 2.34 17.32 2 18 C2.19335938 17.44441406 2.38671875 16.88882813 2.5859375 16.31640625 C3.1016259 13.43147022 2.53612126 11.70847887 1.625 8.9375 C1.34914062 8.08027344 1.07328125 7.22304687 0.7890625 6.33984375 C0.52867187 5.56769531 0.26828125 4.79554688 0 4 C-0.33 3.01 -0.66 2.02 -1 1 C-0.67 0.67 -0.34 0.34 0 0 Z " fill="#B4AFAC" transform="translate(159,146)"/>
<path d="M0 0 C0.66 0 1.32 0 2 0 C2.33872513 1.41538717 2.67074624 2.83237963 3 4.25 C3.185625 5.03890625 3.37125 5.8278125 3.5625 6.640625 C4 9 4 9 4 13 C3.01 13.495 3.01 13.495 2 14 C2 15.65 2 17.3 2 19 C1.34 19 0.68 19 0 19 C-0.93983832 15.03179378 -1.13421572 11.32334639 -1.125 7.25 C-1.12757813 6.10015625 -1.13015625 4.9503125 -1.1328125 3.765625 C-1 1 -1 1 0 0 Z " fill="#EBEAE7" transform="translate(131,292)"/>
<path d="M0 0 C2 2 2 2 2 5 C2.99 5 3.98 5 5 5 C5.125 11.625 5.125 11.625 4 15 C3.93259135 16.56118428 3.91485544 18.1250252 3.9375 19.6875 C3.94652344 20.49574219 3.95554687 21.30398437 3.96484375 22.13671875 C3.97644531 22.75160156 3.98804687 23.36648437 4 24 C3.34 23.67 2.68 23.34 2 23 C1.718235 20.67616498 1.54828316 18.33823176 1.4375 16 C1.61583954 11.67859865 1.61583954 11.67859865 0 8 C-0.14115161 5.32941149 -0.04247107 2.67567762 0 0 Z " fill="#9F9A96" transform="translate(123,192)"/>
<path d="M0 0 C0.33 0 0.66 0 1 0 C2.19005253 9.53650207 2.14701087 18.60839691 0 28 C-0.66 28.33 -1.32 28.66 -2 29 C-1.86070975 25.10390391 -1.71242069 21.20820038 -1.5625 17.3125 C-1.52318359 16.20970703 -1.48386719 15.10691406 -1.44335938 13.97070312 C-1.40146484 12.90400391 -1.35957031 11.83730469 -1.31640625 10.73828125 C-1.27974854 9.75899658 -1.24309082 8.77971191 -1.20532227 7.77075195 C-1.00780667 5.10534823 -0.58426967 2.60530212 0 0 Z " fill="#A09F9E" transform="translate(116,238)"/>
<path d="M0 0 C7.42857143 -0.28571429 7.42857143 -0.28571429 11 2 C11 2.66 11 3.32 11 4 C9.02 4.66 7.04 5.32 5 6 C4.67 7.98 4.34 9.96 4 12 C3.34 12 2.68 12 2 12 C1.34 8.04 0.68 4.08 0 0 Z " fill="#7E7A78" transform="translate(98,114)"/>
<path d="M0 0 C0.33 0 0.66 0 1 0 C1.12350504 12.3779494 0.82637424 24.64865646 0 37 C-0.33 37 -0.66 37 -1 37 C-1.87402815 24.39568496 -2.34900367 12.46330873 0 0 Z " fill="#A5A1A1" transform="translate(117,176)"/>
<path d="M0 0 C6.00333124 -0.6319296 10.63404795 1.62455877 16 4 C15.67 5.32 15.34 6.64 15 8 C14.34 8 13.68 8 13 8 C13 7.34 13 6.68 13 6 C12.22914062 5.90203125 11.45828125 5.8040625 10.6640625 5.703125 C9.15972656 5.47882813 9.15972656 5.47882813 7.625 5.25 C6.62726563 5.11078125 5.62953125 4.9715625 4.6015625 4.828125 C2 4 2 4 0.6484375 1.921875 C0.43445313 1.28765625 0.22046875 0.6534375 0 0 Z " fill="#96918B" transform="translate(96,110)"/>
<path d="M0 0 C0.99 0.33 1.98 0.66 3 1 C2.55074862 5.82945236 1.45263456 8.54736544 -2 12 C-2.99 12 -3.98 12 -5 12 C-6.67099977 12.31088368 -8.33871537 12.64080332 -10 13 C-9.01 12.67 -8.02 12.34 -7 12 C-5.77479736 8.99152582 -5.77479736 8.99152582 -5 6 C-3.68 6 -2.36 6 -1 6 C-0.67 4.02 -0.34 2.04 0 0 Z " fill="#BBB6B7" transform="translate(131,50)"/>
<path d="M0 0 C1.32 0 2.64 0 4 0 C3 2 3 2 2 3 C1.72852669 4.33955286 1.51006376 5.6899734 1.31640625 7.04296875 C1.19330078 7.86990234 1.07019531 8.69683594 0.94335938 9.54882812 C0.69229436 11.28825807 0.44226988 13.02783857 0.19335938 14.76757812 C-0.49392281 19.37201263 -1.34417424 23.62030501 -3 28 C-4.17903454 24.46289637 -3.76531133 22.64889745 -3.125 19 C-2.23667797 13.68199159 -1.62681122 8.423538 -1.24609375 3.046875 C-1 1 -1 1 0 0 Z " fill="#9B9691" transform="translate(94,94)"/>
<path d="M0 0 C0.99 0.33 1.98 0.66 3 1 C3.33 2.98 3.66 4.96 4 7 C3.34 7 2.68 7 2 7 C1.01 11.95 0.02 16.9 -1 22 C-1.66 22 -2.32 22 -3 22 C-2.57397395 16.3271268 -1.84192069 11.40296735 0 6 C0.16798469 2.74955291 0.16798469 2.74955291 0 0 Z " fill="#484545" transform="translate(96,114)"/>
<path d="M0 0 C0.66 0.33 1.32 0.66 2 1 C1.01 3.97 0.02 6.94 -1 10 C-1.99 10 -2.98 10 -4 10 C-4.33 13.96 -4.66 17.92 -5 22 C-5.33 22 -5.66 22 -6 22 C-6.60085227 7.00094697 -6.60085227 7.00094697 -1.3125 1.125 C-0.879375 0.75375 -0.44625 0.3825 0 0 Z " fill="#B8B5B4" transform="translate(95,83)"/>
<path d="M0 0 C0.33 0.66 0.66 1.32 1 2 C0.67 2.66 0.34 3.32 0 4 C-1.32 3.67 -2.64 3.34 -4 3 C-2.68 2.01 -1.36 1.02 0 0 Z M-4 4 C-4.25561323 6.3431213 -4.59270772 8.67843403 -5 11 C-5.99 11.495 -5.99 11.495 -7 12 C-9.625 11.0625 -9.625 11.0625 -12 10 C-12 8.68 -12 7.36 -12 6 C-6.25 4 -6.25 4 -4 4 Z " fill="#C3C2C3" transform="translate(108,76)"/>
<path d="M0 0 C0.66 0.33 1.32 0.66 2 1 C0.58524699 10.72018539 -1.14305274 20.35625389 -3 30 C-4.0934508 26.60940049 -3.92711046 23.94489419 -3.4765625 20.4296875 C-3.3425 19.36878906 -3.2084375 18.30789062 -3.0703125 17.21484375 C-2.92335938 16.11269531 -2.77640625 15.01054688 -2.625 13.875 C-2.48578125 12.76511719 -2.3465625 11.65523437 -2.203125 10.51171875 C-1.14043257 2.28086515 -1.14043257 2.28086515 0 0 Z " fill="#7F7B76" transform="translate(96,95)"/>
<path d="M0 0 C1.98 0 3.96 0 6 0 C6 0.99 6 1.98 6 3 C7.43750191 4.68798827 7.43750191 4.68798827 9 6 C7.01432292 5.96744792 5.02864583 5.93489583 3.04296875 5.90234375 C0.79694539 5.91736783 0.79694539 5.91736783 -2 7 C-2.66 5.35 -3.32 3.7 -4 2 C-2.68 2 -1.36 2 0 2 C0 1.34 0 0.68 0 0 Z " fill="#ABA7A3" transform="translate(115,51)"/>
<path d="M0 0 C0.66 0 1.32 0 2 0 C2.13277344 0.98742187 2.26554688 1.97484375 2.40234375 2.9921875 C2.57894531 4.27351563 2.75554687 5.55484375 2.9375 6.875 C3.11152344 8.15117188 3.28554687 9.42734375 3.46484375 10.7421875 C3.81433227 13.87559454 3.81433227 13.87559454 5 16 C5.13415472 18.6723621 5.04318541 21.32250488 5 24 C0.59350147 19.59350147 0.63061412 13.51477542 0.375 7.625 C0.33632812 6.88894531 0.29765625 6.15289062 0.2578125 5.39453125 C0.16442002 3.59672594 0.0811629 1.79839892 0 0 Z " fill="#8B8681" transform="translate(143,96)"/>
<path d="M0 0 C0.66 0 1.32 0 2 0 C1.52333252 2.92810021 1.03205544 5.84328453 0.4375 8.75 C-0.06362322 10.94518178 -0.06362322 10.94518178 0 13 C-0.99 13.495 -0.99 13.495 -2 14 C-2.72159424 15.64363134 -3.39351421 17.31050386 -4 19 C-5.61063369 15.77873262 -4.1761882 12.81019868 -3.375 9.41015625 C-2.79041621 6.86488405 -2.79041621 6.86488405 -4 4 C-2.68 3.34 -1.36 2.68 0 2 C0 1.34 0 0.68 0 0 Z " fill="#B5B2AD" transform="translate(81,150)"/>
<path d="M0 0 C0.66 0.33 1.32 0.66 2 1 C1.98839844 1.81984375 1.97679688 2.6396875 1.96484375 3.484375 C1.95582031 4.56203125 1.94679688 5.6396875 1.9375 6.75 C1.92589844 7.81734375 1.91429688 8.8846875 1.90234375 9.984375 C1.98557034 12.55441217 2.110669 14.5988063 3 17 C4.9837767 18.28436734 4.9837767 18.28436734 7 19 C7 19.66 7 20.32 7 21 C2.70754471 19.46698025 0.98077463 17.0322912 -1 13 C-1.93918129 3.87836257 -1.93918129 3.87836257 0 0 Z " fill="#9E9A99" transform="translate(70,169)"/>
<path d="M0 0 C0.33 0 0.66 0 1 0 C1.33608711 8.05364285 1.0517291 14.49783264 -2 22 C-2.33 22 -2.66 22 -3 22 C-3.11269443 15.8894576 -2.89604368 10.04829486 -2 4 C-1.34 4 -0.68 4 0 4 C0 2.68 0 1.36 0 0 Z " fill="#9C999A" transform="translate(95,155)"/>
<path d="M0 0 C2 3 2 3 1.8125 6.3125 C1.0081891 9.96283406 -0.17852061 12.75301499 -2 16 C-2.33 16 -2.66 16 -3 16 C-3.37952295 9.80112515 -2.8352113 5.5522888 0 0 Z " fill="#D2CECC" transform="translate(75,160)"/>
<path d="M0 0 C0.66 0.66 1.32 1.32 2 2 C3.9931567 2.02375926 3.9931567 2.02375926 6.125 1.625 C7.40375 1.41875 8.6825 1.2125 10 1 C10 2.32 10 3.64 10 5 C9.04287109 5.07347656 9.04287109 5.07347656 8.06640625 5.1484375 C7.24011719 5.22320312 6.41382812 5.29796875 5.5625 5.375 C4.73878906 5.44460937 3.91507812 5.51421875 3.06640625 5.5859375 C2.04353516 5.79089844 2.04353516 5.79089844 1 6 C0.67 6.66 0.34 7.32 0 8 C-1.125 2.25 -1.125 2.25 0 0 Z " fill="#9F9B99" transform="translate(107,43)"/>
<path d="M0 0 C0.33 0 0.66 0 1 0 C1.33 4.95 1.66 9.9 2 15 C1.01 15.33 0.02 15.66 -1 16 C-3 14 -3 14 -3.125 10.375 C-3.08375 9.26125 -3.0425 8.1475 -3 7 C-2.34 7 -1.68 7 -1 7 C-0.67 4.69 -0.34 2.38 0 0 Z " fill="#D1CDCA" transform="translate(112,285)"/>
<path d="M0 0 C0.66 0 1.32 0 2 0 C2.13277344 1.04800781 2.26554687 2.09601563 2.40234375 3.17578125 C2.58057235 4.55470778 2.75896641 5.93361293 2.9375 7.3125 C3.02451172 8.00279297 3.11152344 8.69308594 3.20117188 9.40429688 C3.59210135 12.40142288 4.0415004 15.12450119 5 18 C3.35 17.67 1.7 17.34 0 17 C0 11.39 0 5.78 0 0 Z " fill="#BCBAB9" transform="translate(97,90)"/>
<path d="M0 0 C0.99 0.33 1.98 0.66 3 1 C2.67 7.27 2.34 13.54 2 20 C1.34 20 0.68 20 0 20 C0 13.4 0 6.8 0 0 Z " fill="#8B8987" transform="translate(125,281)"/>
<path d="M0 0 C0.928125 0.7425 0.928125 0.7425 1.875 1.5 C3.83880904 3.19222773 3.83880904 3.19222773 6 3 C6.33 4.32 6.66 5.64 7 7 C8.65 7.33 10.3 7.66 12 8 C12 8.33 12 8.66 12 9 C8.37 8.67 4.74 8.34 1 8 C0.34 5.69 -0.32 3.38 -1 1 C-0.67 0.67 -0.34 0.34 0 0 Z " fill="#CECAC6" transform="translate(112,34)"/>
<path d="M0 0 C3 1 3 1 3.984375 2.70703125 C4.23703125 3.40183594 4.4896875 4.09664063 4.75 4.8125 C5.01296875 5.49957031 5.2759375 6.18664062 5.546875 6.89453125 C6.06902933 9.32074834 5.89879285 10.69809164 5 13 C4.01 13.495 4.01 13.495 3 14 C2.49307308 12.4188708 1.99473557 10.83498617 1.5 9.25 C1.2215625 8.36828125 0.943125 7.4865625 0.65625 6.578125 C0 4 0 4 0 0 Z " fill="#D6D3CF" transform="translate(151,114)"/>
<path d="M0 0 C0.33 0 0.66 0 1 0 C1.0809723 2.43816585 1.14046972 4.87364384 1.1875 7.3125 C1.22520508 8.34793945 1.22520508 8.34793945 1.26367188 9.40429688 C1.33834499 14.55674183 1.33834499 14.55674183 -0.51171875 16.98046875 C-1.24841797 17.48513672 -1.24841797 17.48513672 -2 18 C-2.20852314 11.59370576 -2.1583195 6.07027358 0 0 Z " fill="#8E8887" transform="translate(124,171)"/>
<path d="M0 0 C5.98993047 -0.3152595 9.63560356 0.31780178 15 3 C14.67 3.99 14.34 4.98 14 6 C13.67 5.34 13.34 4.68 13 4 C10.94824595 3.34848903 10.94824595 3.34848903 8.5625 2.9375 C4.167979 2.0839895 4.167979 2.0839895 2 1 C2.66 2.65 3.32 4.3 4 6 C2.68 5.34 1.36 4.68 0 4 C0 2.68 0 1.36 0 0 Z " fill="#A59E98" transform="translate(124,110)"/>
<path d="M0 0 C5.875 4.625 5.875 4.625 7 8 C5.625 9.5 5.625 9.5 4 11 C3.34 11 2.68 11 2 11 C1.896875 10.38125 1.79375 9.7625 1.6875 9.125 C1.12474627 6.63473516 1.12474627 6.63473516 -2 5 C-1.01 4.67 -0.02 4.34 1 4 C0.67 2.68 0.34 1.36 0 0 Z " fill="#E0DCDB" transform="translate(144,82)"/>
<path d="M0 0 C4.94702956 4.39735961 9.36698302 10.24781892 10 17 C5.81624532 15.60541511 5.33736111 13.47096261 3.3125 9.625 C2.68988281 8.46226562 2.06726563 7.29953125 1.42578125 6.1015625 C0 3 0 3 0 0 Z " fill="#7B7775" transform="translate(153,144)"/>
<path d="M0 0 C2.03446794 2.23018891 3.02098128 3.32086916 2.92578125 6.40234375 C2.72339844 7.23894531 2.52101563 8.07554688 2.3125 8.9375 C2.10496094 9.81019531 1.89742188 10.68289062 1.68359375 11.58203125 C0.95924942 14.14414061 0.12679489 16.58543952 -1 19 C-1.33 19 -1.66 19 -2 19 C-1.50873071 12.63440427 -1.00344253 6.30735307 0 0 Z " fill="#565351" transform="translate(95,109)"/>
<path d="M0 0 C2 2 2 2 2.125 5.125 C2.08375 6.07375 2.0425 7.0225 2 8 C0.35 8.66 -1.3 9.32 -3 10 C-3.66 9.01 -4.32 8.02 -5 7 C-4.67 6.01 -4.34 5.02 -4 4 C-2.68 4 -1.36 4 0 4 C-0.33 3.01 -0.66 2.02 -1 1 C-0.67 0.67 -0.34 0.34 0 0 Z " fill="#D4D2D1" transform="translate(139,303)"/>
<path d="M0 0 C0.33 3.3 0.66 6.6 1 10 C2.32 10.33 3.64 10.66 5 11 C4.67 9.68 4.34 8.36 4 7 C4.66 7 5.32 7 6 7 C6.66 8.98 7.32 10.96 8 13 C5.1875 13.25 5.1875 13.25 2 13 C-1.57007708 9.93993393 -2.04439967 5.41046305 -3 1 C-1 0 -1 0 0 0 Z " fill="#AAA8A6" transform="translate(128,300)"/>
<path d="M0 0 C-0.66 3.63 -1.32 7.26 -2 11 C-2.66 11 -3.32 11 -4 11 C-4.33 8.03 -4.66 5.06 -5 2 C-2 0 -2 0 0 0 Z " fill="#BAB8B7" transform="translate(141,120)"/>
<path d="M0 0 C0.66 0 1.32 0 2 0 C2 1.32 2 2.64 2 4 C1.01 4.495 1.01 4.495 0 5 C0 9.29 0 13.58 0 18 C-0.66 17.67 -1.32 17.34 -2 17 C-2.05383848 14.54137599 -2.09359038 12.0839245 -2.125 9.625 C-2.14175781 8.92632812 -2.15851563 8.22765625 -2.17578125 7.5078125 C-2.19344267 5.67102514 -2.10303261 3.83398037 -2 2 C-1.34 1.34 -0.68 0.68 0 0 Z " fill="#D3D0CC" transform="translate(131,288)"/>
<path d="M0 0 C0.33 0.66 0.66 1.32 1 2 C0.67 2.99 0.34 3.98 0 5 C-0.14403348 6.33363703 -0.24590423 7.67218046 -0.31640625 9.01171875 C-0.35830078 9.76904297 -0.40019531 10.52636719 -0.44335938 11.30664062 C-0.48267578 12.09232422 -0.52199219 12.87800781 -0.5625 13.6875 C-0.60568359 14.48478516 -0.64886719 15.28207031 -0.69335938 16.10351562 C-0.79927368 18.06881447 -0.90012551 20.03438496 -1 22 C-1.33 22 -1.66 22 -2 22 C-2 16.06 -2 10.12 -2 4 C-2.66 4 -3.32 4 -4 4 C-4.33 3.01 -4.66 2.02 -5 1 C-3.35 0.67 -1.7 0.34 0 0 Z " fill="#595354" transform="translate(123,173)"/>
<path d="M0 0 C0.66 0.33 1.32 0.66 2 1 C1.875 2.875 1.875 2.875 1 5 C-1.875 6.1875 -1.875 6.1875 -5 7 C-5.99 7.33 -6.98 7.66 -8 8 C-8 6.02 -8 4.04 -8 2 C-5.69 2.33 -3.38 2.66 -1 3 C-0.67 2.01 -0.34 1.02 0 0 Z " fill="#A29D9A" transform="translate(120,67)"/>
<path d="M0 0 C0.33 0.66 0.66 1.32 1 2 C3.97 2 6.94 2 10 2 C9.67 3.32 9.34 4.64 9 6 C2.25 6.125 2.25 6.125 0 5 C0 3.35 0 1.7 0 0 Z " fill="#DFDDD9" transform="translate(119,46)"/>
<path d="M0 0 C2 3 2 3 3 5 C3.99 5 4.98 5 6 5 C6.33 7.31 6.66 9.62 7 12 C5.1875 11.875 5.1875 11.875 3 11 C0.61517162 7.25241255 -0.39145737 4.43651689 0 0 Z " fill="#D8D4D1" transform="translate(161,144)"/>
<path d="M0 0 C3.15277249 3.42692662 3.66643139 6.4134316 4 11 C3.67 11.99 3.34 12.98 3 14 C1.35 10.04 -0.3 6.08 -2 2 C-1.34 1.34 -0.68 0.68 0 0 Z " fill="#E3DEDC" transform="translate(157,125)"/>
<path d="M0 0 C3.24855436 6.05848536 4.73426427 12.23636935 3 19 C2.34 19 1.68 19 1 19 C1.01160156 18.30132812 1.02320313 17.60265625 1.03515625 16.8828125 C1.04417969 15.97273437 1.05320313 15.06265625 1.0625 14.125 C1.07410156 13.22007813 1.08570313 12.31515625 1.09765625 11.3828125 C1.16249257 8.9831415 1.16249257 8.9831415 0 7 C-0.04022391 4.6670134 -0.04320247 2.33293334 0 0 Z " fill="#696562" transform="translate(145,114)"/>
<path d="M0 0 C5.19209404 -0.21192221 9.126739 0.4087311 14 2 C14 2.66 14 3.32 14 4 C9.25 5.125 9.25 5.125 7 4 C7 3.34 7 2.68 7 2 C4.69 2 2.38 2 0 2 C0 1.34 0 0.68 0 0 Z " fill="#C9C3BF" transform="translate(129,106)"/>
<path d="M0 0 C4.34464536 0.60825035 8.67551867 1.26167392 13 2 C12.67 3.65 12.34 5.3 12 7 C11.34 7 10.68 7 10 7 C10 6.01 10 5.02 10 4 C9.36191406 3.87882812 8.72382812 3.75765625 8.06640625 3.6328125 C7.24011719 3.46523437 6.41382812 3.29765625 5.5625 3.125 C4.73878906 2.96257812 3.91507812 2.80015625 3.06640625 2.6328125 C2.38449219 2.42398438 1.70257813 2.21515625 1 2 C0.67 1.34 0.34 0.68 0 0 Z " fill="#ADA59E" transform="translate(102,110)"/>
<path d="M0 0 C0.66 0 1.32 0 2 0 C1.01 4.95 0.02 9.9 -1 15 C-3 12 -3 12 -2.5390625 9.08203125 C-2.23742187 8.00308594 -1.93578125 6.92414063 -1.625 5.8125 C-1.32851562 4.72582031 -1.03203125 3.63914063 -0.7265625 2.51953125 C-0.48679688 1.68808594 -0.24703125 0.85664063 0 0 Z " fill="#BEBDBC" transform="translate(145,194)"/>
<path d="M0 0 C0.99 0.33 1.98 0.66 3 1 C2.67 2.65 2.34 4.3 2 6 C2.99 6.33 3.98 6.66 5 7 C0.25 8.125 0.25 8.125 -2 7 C-1.125 1.125 -1.125 1.125 0 0 Z " fill="#AFACAD" transform="translate(108,38)"/>
<path d="M0 0 C2.475 0.495 2.475 0.495 5 1 C5.36923077 6.41538462 5.36923077 6.41538462 3.5 9.375 C3.005 9.91125 2.51 10.4475 2 11 C2 8.36 2 5.72 2 3 C1.34 3 0.68 3 0 3 C0 2.01 0 1.02 0 0 Z " fill="#A29D98" transform="translate(123,168)"/>
<path d="M0 0 C0.66 0.66 1.32 1.32 2 2 C0.02 5.63 -1.96 9.26 -4 13 C-5.06337251 8.74650995 -5.06328907 8.37494164 -3.125 4.8125 C-2.57199219 3.77029297 -2.57199219 3.77029297 -2.0078125 2.70703125 C-1 1 -1 1 0 0 Z " fill="#82807C" transform="translate(85,148)"/>
<path d="M0 0 C0.33 0 0.66 0 1 0 C1 1.65 1 3.3 1 5 C1.66 5 2.32 5 3 5 C3.125 11.75 3.125 11.75 2 14 C1.34 14 0.68 14 0 14 C0 9.38 0 4.76 0 0 Z " fill="#B6B4B3" transform="translate(113,288)"/>
<path d="M0 0 C0.33 0 0.66 0 1 0 C0.88658363 2.31309705 0.75896193 4.62550185 0.625 6.9375 C0.52058594 8.86916016 0.52058594 8.86916016 0.4140625 10.83984375 C0.27742188 11.88269531 0.14078125 12.92554688 0 14 C-0.99 14.495 -0.99 14.495 -2 15 C-2.21755666 9.5610835 -2.10428384 5.12919186 0 0 Z " fill="#949291" transform="translate(116,252)"/>
<path d="M0 0 C-0.66 1.32 -1.32 2.64 -2 4 C-4.64 4 -7.28 4 -10 4 C-10 3.01 -10 2.02 -10 1 C-9.05125 1.020625 -8.1025 1.04125 -7.125 1.0625 C-4.31337204 1.00626744 -2.6726858 0 0 0 Z " fill="#86817D" transform="translate(142,114)"/>
<path d="M0 0 C0.33 0 0.66 0 1 0 C1.34833144 4.87664009 0.41685712 7.77050005 -2 12 C-2.99 11.34 -3.98 10.68 -5 10 C-4.54625 9.46375 -4.0925 8.9275 -3.625 8.375 C-1.78311688 5.68301698 -0.92028067 3.11479612 0 0 Z " fill="#C9C6C4" transform="translate(108,294)"/>
<path d="M0 0 C0.33 0 0.66 0 1 0 C1.144375 0.763125 1.28875 1.52625 1.4375 2.3125 C1.9632594 5.08172908 1.9632594 5.08172908 3 8 C2.67 8.99 2.34 9.98 2 11 C1.34 11 0.68 11 0 11 C-0.33 11.66 -0.66 12.32 -1 13 C-1.0272415 11.58344207 -1.04650467 10.16672955 -1.0625 8.75 C-1.07410156 7.96109375 -1.08570313 7.1721875 -1.09765625 6.359375 C-1.00385306 4.09308998 -0.63241063 2.1711105 0 0 Z " fill="#BFBDBE" transform="translate(146,177)"/>
<path d="M0 0 C0.66 0.33 1.32 0.66 2 1 C2 4.14213983 1.66719444 6.93090555 1 10 C0.01 10.495 0.01 10.495 -1 11 C-2.1875 9.4375 -2.1875 9.4375 -3 7 C-1.625 3.25 -1.625 3.25 0 0 Z " fill="#CAC5C1" transform="translate(77,152)"/>
<path d="M0 0 C0.8723412 2.99480917 1.10829766 5.63575911 1.0625 8.75 C1.05347656 9.54921875 1.04445313 10.3484375 1.03515625 11.171875 C1.01775391 12.07679688 1.01775391 12.07679688 1 13 C0.34 12.67 -0.32 12.34 -1 12 C-2.37634409 5.00358423 -2.37634409 5.00358423 -1.0625 1.5 C-0.711875 1.005 -0.36125 0.51 0 0 Z " fill="#A59E97" transform="translate(89,125)"/>
<path d="M0 0 C1.05566977 3.16700931 0.97926374 3.96428241 0 7 C-0.33 7.66 -0.66 8.32 -1 9 C-1.99 9 -2.98 9 -4 9 C-3.38461538 3.46153846 -3.38461538 3.46153846 -1.4375 1.125 C-0.963125 0.75375 -0.48875 0.3825 0 0 Z " fill="#A6A4A2" transform="translate(99,143)"/>
<path d="M0 0 C2.97 0 5.94 0 9 0 C8.67 0.99 8.34 1.98 8 3 C5.69 3 3.38 3 1 3 C0.67 2.01 0.34 1.02 0 0 Z " fill="#7B7B76" transform="translate(115,64)"/>
<path d="M0 0 C0.66 0 1.32 0 2 0 C2.6875 2.75 2.6875 2.75 3 6 C1.5625 8.375 1.5625 8.375 0 10 C-0.19412181 8.52168779 -0.38012131 7.04230684 -0.5625 5.5625 C-0.66691406 4.73878906 -0.77132812 3.91507812 -0.87890625 3.06640625 C-0.91886719 2.38449219 -0.95882812 1.70257813 -1 1 C-0.67 0.67 -0.34 0.34 0 0 Z " fill="#E6E3E0" transform="translate(131,292)"/>
<path d="M0 0 C0.33 0 0.66 0 1 0 C1 2.97 1 5.94 1 9 C-0.98 9.99 -0.98 9.99 -3 11 C-2.69078116 9.54096742 -2.37751201 8.08279278 -2.0625 6.625 C-1.88847656 5.81289063 -1.71445313 5.00078125 -1.53515625 4.1640625 C-1 2 -1 2 0 0 Z " fill="#C5C0BB" transform="translate(132,279)"/>
<path d="M0 0 C1.53166168 4.08443115 0.63081652 7.79455657 0 12 C-2.58787727 9.41212273 -2.62709152 7.57992139 -3 4 C-2.67 3.34 -2.34 2.68 -2 2 C-1.34 2 -0.68 2 0 2 C0 1.34 0 0.68 0 0 Z " fill="#A5A3A1" transform="translate(115,230)"/>
<path d="M0 0 C2.76223278 2.76223278 2.57856291 5.20706617 3 9 C1.35 9 -0.3 9 -2 9 C-1.34 6.03 -0.68 3.06 0 0 Z " fill="#C3C1C0" transform="translate(170,165)"/>
<path d="M0 0 C0.99 0.99 1.98 1.98 3 3 C2.01 3.495 2.01 3.495 1 4 C0.34444881 6.52733235 0.34444881 6.52733235 0 9 C-0.66 9 -1.32 9 -2 9 C-2 6.36 -2 3.72 -2 1 C-1.34 0.67 -0.68 0.34 0 0 Z " fill="#CFCAC7" transform="translate(125,70)"/>
<path d="M0 0 C2 2 2 2 2.1953125 4.6015625 C2.17210937 5.59929687 2.14890625 6.59703125 2.125 7.625 C2.10695312 8.62789062 2.08890625 9.63078125 2.0703125 10.6640625 C2.03550781 11.82035156 2.03550781 11.82035156 2 13 C1.34 12.67 0.68 12.34 0 12 C-0.44921875 9.53125 -0.44921875 9.53125 -0.6875 6.5 C-0.77386719 5.4996875 -0.86023438 4.499375 -0.94921875 3.46875 C-0.96597656 2.6540625 -0.98273438 1.839375 -1 1 C-0.67 0.67 -0.34 0.34 0 0 Z " fill="#A29E96" transform="translate(128,216)"/>
<path d="M0 0 C0.99 0.33 1.98 0.66 3 1 C3.33 3.31 3.66 5.62 4 8 C2.35 6.35 0.7 4.7 -1 3 C-0.67 2.01 -0.34 1.02 0 0 Z " fill="#93908F" transform="translate(76,177)"/>
<path d="M0 0 C0.66 0 1.32 0 2 0 C1.8864371 1.64666203 1.75882619 3.29236082 1.625 4.9375 C1.52058594 6.31228516 1.52058594 6.31228516 1.4140625 7.71484375 C1.27742188 8.46894531 1.14078125 9.22304687 1 10 C0.01 10.495 0.01 10.495 -1 11 C-1.0270043 9.54176788 -1.04639787 8.08339325 -1.0625 6.625 C-1.07410156 5.81289062 -1.08570312 5.00078125 -1.09765625 4.1640625 C-1 2 -1 2 0 0 Z " fill="#D9D5D4" transform="translate(73,165)"/>
<path d="M0 0 C0.66 0.33 1.32 0.66 2 1 C1.34 4.63 0.68 8.26 0 12 C-0.33 12 -0.66 12 -1 12 C-1.02698189 10.37509046 -1.04638757 8.75005367 -1.0625 7.125 C-1.07410156 6.22007813 -1.08570312 5.31515625 -1.09765625 4.3828125 C-1 2 -1 2 0 0 Z " fill="#74716F" transform="translate(96,95)"/>
<path d="M0 0 C1.98 0 3.96 0 6 0 C6.33 0.99 6.66 1.98 7 3 C5.02 3.33 3.04 3.66 1 4 C0.67 2.68 0.34 1.36 0 0 Z " fill="#B5B1AB" transform="translate(121,44)"/>
<path d="M0 0 C2.97 0 5.94 0 9 0 C9.33 0.66 9.66 1.32 10 2 C7.03 1.505 7.03 1.505 4 1 C3.67 2.32 3.34 3.64 3 5 C2.34 4.67 1.68 4.34 1 4 C0.67 2.68 0.34 1.36 0 0 Z " fill="#DAD9D8" transform="translate(113,33)"/>
<path d="M0 0 C0.99 0.99 1.98 1.98 3 3 C2.34 4.32 1.68 5.64 1 7 C0.01 6.34 -0.98 5.68 -2 5 C-2 3.68 -2 2.36 -2 1 C-1.34 0.67 -0.68 0.34 0 0 Z " fill="#D0CFCE" transform="translate(139,136)"/>
<path d="M0 0 C0 1.65 0 3.3 0 5 C0.66 5.33 1.32 5.66 2 6 C0.35 6.33 -1.3 6.66 -3 7 C-3 5.02 -3 3.04 -3 1 C-1 0 -1 0 0 0 Z " fill="#979491" transform="translate(168,169)"/>
<path d="M0 0 C0.66 0.33 1.32 0.66 2 1 C1.55090939 2.48199902 1.09043436 3.96055236 0.625 5.4375 C0.36976562 6.26121094 0.11453125 7.08492187 -0.1484375 7.93359375 C-1 10 -1 10 -3 11 C-2.32829194 7.1936543 -1.27253436 3.64793184 0 0 Z " fill="#A5A4A3" transform="translate(101,132)"/>
<path d="M0 0 C0.66 0 1.32 0 2 0 C2.6875 2.75 2.6875 2.75 3 6 C2.01 7.32 1.02 8.64 0 10 C0 6.7 0 3.4 0 0 Z " fill="#AFA8A2" transform="translate(86,134)"/>
<path d="M0 0 C2 2 2 2 2 5 C2.66 5.33 3.32 5.66 4 6 C3.67 6.99 3.34 7.98 3 9 C2.01 8.67 1.02 8.34 0 8 C0 5.36 0 2.72 0 0 Z " fill="#908B89" transform="translate(123,192)"/>
<path d="M0 0 C0.66 0 1.32 0 2 0 C1.74438677 2.3431213 1.40729228 4.67843403 1 7 C0.01 7.495 0.01 7.495 -1 8 C-1.04241723 5.66705225 -1.04092937 3.33297433 -1 1 C-0.67 0.67 -0.34 0.34 0 0 Z " fill="#938E8D" transform="translate(123,181)"/>
<path d="M0 0 C0.33 0.99 0.66 1.98 1 3 C2.65 3.33 4.3 3.66 6 4 C6 4.66 6 5.32 6 6 C4.34385343 6.38218767 2.67542976 6.71395102 1 7 C0 6 0 6 -0.0625 2.9375 C-0.041875 1.968125 -0.02125 0.99875 0 0 Z " fill="#ABA6A3" transform="translate(96,104)"/>
<path d="M0 0 C2.64 0 5.28 0 8 0 C8 0.66 8 1.32 8 2 C5.6875 2.6875 5.6875 2.6875 3 3 C1.1875 1.5625 1.1875 1.5625 0 0 Z " fill="#838172" transform="translate(160,181)"/>
<path d="M0 0 C2.32947183 2.11770166 3.88750845 4.03335588 5 7 C4.67 7.99 4.34 8.98 4 10 C1.80902348 6.6659053 0.56545837 3.95820859 0 0 Z " fill="#6E6A69" transform="translate(116,171)"/>
<path d="M0 0 C2.89932357 2.39509338 3.50168276 4.31245243 4 8 C3.01 7.67 2.02 7.34 1 7 C-0.1875 3.9375 -0.1875 3.9375 -1 1 C-0.67 0.67 -0.34 0.34 0 0 Z " fill="#89827F" transform="translate(159,153)"/>
<path d="M0 0 C2.7839183 1.39195915 2.97898997 3.15575779 4 6 C2.68 6 1.36 6 0 6 C-0.38218767 4.34385343 -0.71395102 2.67542976 -1 1 C-0.67 0.67 -0.34 0.34 0 0 Z " fill="#CAC5C0" transform="translate(137,145)"/>
<path d="M0 0 C2.04795423 1.9626228 2.94976638 3.4277307 3.19921875 6.26953125 C3.18858877 8.51954383 3.12958525 10.75385562 3 13 C2.67 13 2.34 13 2 13 C1.855625 11.865625 1.71125 10.73125 1.5625 9.5625 C1.38828522 6.19222799 1.38828522 6.19222799 0 5 C-0.04063832 3.33382885 -0.042721 1.66611905 0 0 Z " fill="#958E87" transform="translate(148,121)"/>
<path d="M0 0 C0.99 1.32 1.98 2.64 3 4 C2.01 6.31 1.02 8.62 0 11 C-1.37432457 7.18243176 -0.67975039 3.92744671 0 0 Z " fill="#615C5A" transform="translate(95,109)"/>
<path d="M0 0 C2.475 0.495 2.475 0.495 5 1 C5.33 2.32 5.66 3.64 6 5 C3.03 4.505 3.03 4.505 0 4 C0 2.68 0 1.36 0 0 Z " fill="#CCCACB" transform="translate(96,82)"/>
<path d="M0 0 C1.32 1.32 2.64 2.64 4 4 C3.01 4.99 2.02 5.98 1 7 C-1 4 -1 4 -0.625 1.8125 C-0.41875 1.214375 -0.2125 0.61625 0 0 Z " fill="#CBC7C6" transform="translate(76,182)"/>
<path d="M0 0 C0.66 1.32 1.32 2.64 2 4 C1.01 5.485 1.01 5.485 0 7 C-0.99 7 -1.98 7 -3 7 C-3 5.35 -3 3.7 -3 2 C-2.34 2.66 -1.68 3.32 -1 4 C-0.67 2.68 -0.34 1.36 0 0 Z " fill="#B4B0AE" transform="translate(74,171)"/>
<path d="M0 0 C1 4 1 4 1 4 Z M-2.4375 3.9375 C-1.2309375 3.9684375 -1.2309375 3.9684375 0 4 C-0.99 5.485 -0.99 5.485 -2 7 C-3.32 6.34 -4.64 5.68 -6 5 C-5 4 -5 4 -2.4375 3.9375 Z M-8 6 C-6 7 -6 7 -6 7 Z " fill="#B3ADA7" transform="translate(121,68)"/>
<path d="M0 0 C0.99 0 1.98 0 3 0 C2 3 2 3 -1 5 C-3.1875 4.625 -3.1875 4.625 -5 4 C-4.01 4 -3.02 4 -2 4 C-1.34 2.68 -0.68 1.36 0 0 Z " fill="#C0BEBB" transform="translate(126,58)"/>
<path d="M0 0 C2.375 0.3125 2.375 0.3125 5 1 C5.66 1.99 6.32 2.98 7 4 C6.01 4.33 5.02 4.66 4 5 C4 4.34 4 3.68 4 3 C2.68 2.67 1.36 2.34 0 2 C0 1.34 0 0.68 0 0 Z " fill="#F1EEEC" transform="translate(118,34)"/>
</svg>
